<svg width="500" height="500" viewBox="0 0 500 500" fill="none" xmlns="http://www.w3.org/2000/svg">
<path d="M101.53 432.38C183.98 475.47 317.67 475.47 400.12 432.38C482.57 389.29 482.57 319.38 400.12 276.32C317.67 233.26 183.98 233.22 101.53 276.32C19.0799 319.42 19.0799 389.28 101.53 432.38Z" fill="#F5F5F5"/>
<path d="M245.86 386.89L249.66 389.08C250.331 389.42 251.073 389.597 251.825 389.597C252.577 389.597 253.319 389.42 253.99 389.08L355.27 330.6C355.531 330.511 355.758 330.343 355.919 330.119C356.079 329.895 356.166 329.626 356.166 329.35C356.166 329.074 356.079 328.805 355.919 328.581C355.758 328.357 355.531 328.189 355.27 328.1L351.48 325.91C350.809 325.57 350.067 325.393 349.315 325.393C348.563 325.393 347.821 325.57 347.15 325.91L245.86 384.39C245.599 384.479 245.372 384.647 245.211 384.871C245.051 385.095 244.964 385.364 244.964 385.64C244.964 385.916 245.051 386.185 245.211 386.409C245.372 386.633 245.599 386.801 245.86 386.89V386.89Z" fill="#E0E0E0"/>
<path d="M410.88 378.66C398.34 385.37 378 385.37 365.46 378.66C352.92 371.95 352.92 361.08 365.46 354.37C378 347.66 398.34 347.66 410.88 354.37C423.42 361.08 423.42 372 410.88 378.66Z" fill="#E0E0E0"/>
<path d="M403.11 338.5C403.11 338.5 404.27 328.33 409.33 320.44C414.39 312.55 421.33 307.63 427.81 307.12C434.29 306.61 439.53 312.57 432.6 316.66C425.67 320.75 413.34 324.94 407.67 340.26L403.11 338.5Z" fill="#26B600"/>
<path opacity="0.1" d="M403.11 338.5C403.11 338.5 404.27 328.33 409.33 320.44C414.39 312.55 421.33 307.63 427.81 307.12C434.29 306.61 439.53 312.57 432.6 316.66C425.67 320.75 413.34 324.94 407.67 340.26L403.11 338.5Z" fill="black"/>
<path d="M405 335.86H404.93C404.887 335.844 404.849 335.819 404.816 335.787C404.783 335.755 404.757 335.717 404.74 335.675C404.722 335.633 404.713 335.588 404.713 335.543C404.713 335.497 404.722 335.452 404.74 335.41C411.58 318.56 424.6 311.52 430.53 310.16C430.574 310.15 430.62 310.148 430.664 310.155C430.709 310.162 430.752 310.178 430.79 310.202C430.829 310.225 430.862 310.256 430.889 310.293C430.915 310.33 430.934 310.371 430.945 310.415C430.955 310.459 430.957 310.505 430.95 310.549C430.943 310.594 430.927 310.637 430.903 310.675C430.88 310.714 430.849 310.747 430.812 310.774C430.775 310.8 430.734 310.82 430.69 310.83C424.88 312.17 412.11 319.08 405.38 335.67C405.346 335.739 405.291 335.795 405.222 335.829C405.153 335.864 405.075 335.874 405 335.86V335.86Z" fill="white"/>
<path d="M439.65 336.06C439.06 337.38 437.65 338.06 436.27 338.61C434.89 339.16 433.47 339.73 432.74 340.99C431.28 343.51 433.68 347.07 432.11 349.53C431.742 350.021 431.278 350.432 430.747 350.74C430.216 351.048 429.629 351.245 429.02 351.32C428.02 351.51 427.02 351.5 426.02 351.59C425.538 351.579 425.058 351.542 424.58 351.48C423.176 351.166 421.708 351.32 420.4 351.92C418.4 353.05 417.77 355.59 416.55 357.54C415.797 358.697 414.802 359.676 413.633 360.41C412.464 361.144 411.149 361.615 409.78 361.79C408.614 362.028 407.405 361.949 406.28 361.56L406.09 361.44C405.963 361.307 405.842 361.166 405.73 361.02V360.96C405.37 359.65 405.95 358.28 405.98 356.96C405.985 356.88 405.985 356.8 405.98 356.72C405.93 355.14 405.88 353.58 405.85 352.01C405.77 349.12 405.74 346.22 405.76 343.33C405.76 341.46 405.55 339.4 406.35 337.63C407.23 335.69 409.42 335.63 410.24 333.74C410.57 332.97 410.75 332.16 411.07 331.39C411.566 330.262 412.364 329.292 413.374 328.587C414.385 327.881 415.57 327.467 416.8 327.39C420.62 327.2 424.04 330.29 427.86 330.01C428.842 329.873 429.817 329.686 430.78 329.45C433.87 328.87 437.45 329.75 439.19 332.37C439.56 332.902 439.795 333.516 439.875 334.158C439.955 334.801 439.878 335.454 439.65 336.06V336.06Z" fill="#26B600"/>
<path d="M405.33 354.92C405.288 354.91 405.249 354.891 405.214 354.865C405.18 354.839 405.151 354.806 405.13 354.769C405.108 354.732 405.095 354.69 405.089 354.648C405.084 354.605 405.088 354.561 405.1 354.52C410.37 334.72 431.23 331.86 436.1 332.21C436.143 332.213 436.185 332.224 436.223 332.243C436.262 332.262 436.296 332.289 436.324 332.321C436.352 332.354 436.373 332.392 436.386 332.433C436.399 332.474 436.404 332.517 436.4 332.56C436.399 332.603 436.389 332.644 436.371 332.683C436.353 332.721 436.327 332.756 436.295 332.784C436.263 332.812 436.226 332.833 436.185 332.847C436.145 332.86 436.102 332.864 436.06 332.86C431.28 332.52 410.88 335.32 405.72 354.69C405.697 354.771 405.643 354.84 405.571 354.883C405.498 354.925 405.412 354.939 405.33 354.92Z" fill="white"/>
<path d="M428.51 344.89C428.445 344.878 428.386 344.847 428.34 344.8C426.412 343.131 424.14 341.908 421.686 341.217C419.232 340.525 416.655 340.383 414.14 340.8C414.098 340.807 414.055 340.806 414.013 340.796C413.972 340.786 413.933 340.768 413.898 340.743C413.864 340.718 413.834 340.686 413.812 340.649C413.79 340.613 413.776 340.572 413.77 340.53C413.759 340.444 413.782 340.357 413.834 340.287C413.886 340.218 413.964 340.172 414.05 340.16C416.665 339.728 419.343 339.879 421.892 340.601C424.442 341.324 426.801 342.6 428.8 344.34C428.846 344.39 428.876 344.453 428.884 344.521C428.893 344.588 428.881 344.657 428.849 344.717C428.817 344.778 428.768 344.827 428.707 344.857C428.646 344.888 428.577 344.9 428.51 344.89V344.89Z" fill="white"/>
<path d="M266.32 244.39V254.39L93.7499 354L88.4399 357C87.2344 356.181 86.2386 355.09 85.5333 353.815C84.8279 352.54 84.4328 351.116 84.3799 349.66V181.91C84.3915 181.61 84.4774 181.318 84.6299 181.06C84.78 180.796 84.993 180.572 85.2499 180.41L124.58 157.7C125.06 157.43 127.86 158.6 128.32 158.88L128.62 159.05C128.88 159.217 129.113 159.422 129.31 159.66C129.53 159.901 129.7 160.183 129.81 160.49L133.37 170.77L261.37 94.51C261.633 94.3882 261.92 94.3251 262.21 94.3251C262.5 94.3251 262.787 94.3882 263.05 94.51L265.43 95.89C265.684 96.049 265.893 96.269 266.04 96.53C266.197 96.79 266.283 97.0865 266.29 97.39V244.39H266.32Z" fill="#263238"/>
<path d="M266.32 254.35L88.4399 357V183.25L129.31 159.66C129.53 159.901 129.7 160.183 129.81 160.49L133.37 170.77L134.05 172.72L266.05 96.5C266.207 96.7599 266.293 97.0564 266.3 97.36L266.32 254.35Z" fill="#37474F"/>
<path d="M129.31 159.66L88.4399 183.25L84.6299 181.06C84.78 180.796 84.993 180.573 85.2499 180.41L124.58 157.7C124.844 157.564 125.137 157.493 125.435 157.493C125.732 157.493 126.025 157.564 126.29 157.7L128.62 159.04C128.881 159.21 129.113 159.419 129.31 159.66V159.66Z" fill="#455A64"/>
<path d="M266.06 96.5L134.06 172.72L133.38 170.77L261.38 94.51C261.643 94.3882 261.93 94.3251 262.22 94.3251C262.51 94.3251 262.797 94.3882 263.06 94.51L265.44 95.89C265.694 96.0393 265.907 96.2488 266.06 96.5V96.5Z" fill="#455A64"/>
<path d="M143.09 286.37C142.541 286 142.087 285.506 141.766 284.927C141.444 284.348 141.264 283.702 141.24 283.04V117.78C141.279 117.095 141.481 116.43 141.829 115.838C142.177 115.247 142.661 114.747 143.24 114.38L240.86 58.08C241.428 57.7233 242.083 57.5281 242.753 57.5155C243.424 57.503 244.086 57.6735 244.667 58.0088C245.248 58.344 245.726 58.8313 246.051 59.4183C246.376 60.0052 246.535 60.6696 246.51 61.34V226.6C246.469 227.284 246.266 227.949 245.919 228.54C245.571 229.131 245.088 229.632 244.51 230L146.9 286.3C146.315 286.611 145.666 286.78 145.003 286.792C144.341 286.804 143.686 286.66 143.09 286.37V286.37Z" fill="#FAFAFA"/>
<path d="M146.9 286.3L244.52 230C245.098 229.632 245.581 229.131 245.928 228.54C246.276 227.949 246.479 227.284 246.52 226.6V61.34C246.52 60.09 245.64 59.58 244.52 60.2L146.89 116.51C146.312 116.878 145.829 117.379 145.481 117.97C145.134 118.561 144.931 119.226 144.89 119.91V285.17C144.93 286.42 145.81 286.93 146.9 286.3Z" fill="#F0F0F0"/>
<path d="M157.59 123.07L231.31 80.51C232.26 79.96 233.04 80.4 233.04 81.51V82.2C233.006 82.8004 232.832 83.3845 232.531 83.9055C232.231 84.4264 231.812 84.8698 231.31 85.2L157.59 127.76C156.59 128.31 155.86 127.86 155.86 126.76V126.07C155.892 125.469 156.066 124.884 156.366 124.363C156.667 123.842 157.086 123.399 157.59 123.07Z" fill="#E0E0E0"/>
<path d="M157.59 134.78L231.31 92.2201C232.26 91.6701 233.04 92.1201 233.04 93.2201V93.9101C233.007 94.5109 232.834 95.0956 232.533 95.6168C232.233 96.138 231.814 96.5811 231.31 96.9101L157.59 139.47C156.59 140.02 155.86 139.57 155.86 138.47V137.78C155.894 137.18 156.068 136.596 156.369 136.075C156.669 135.554 157.087 135.11 157.59 134.78Z" fill="#E0E0E0"/>
<path d="M157.59 146.49L231.31 103.93C232.26 103.38 233.04 103.83 233.04 104.93V105.62C233.007 106.221 232.834 106.806 232.533 107.327C232.233 107.848 231.814 108.291 231.31 108.62L157.59 151.18C156.59 151.74 155.86 151.29 155.86 150.18V149.49C155.894 148.89 156.068 148.306 156.369 147.785C156.669 147.264 157.087 146.82 157.59 146.49Z" fill="#E0E0E0"/>
<path d="M157.59 158.2L231.31 115.65C232.26 115.09 233.04 115.54 233.04 116.65V117.34C233.005 117.94 232.831 118.524 232.53 119.045C232.23 119.566 231.812 120.009 231.31 120.34L157.59 162.9C156.59 163.45 155.86 163 155.86 161.9V161.2C155.895 160.6 156.069 160.016 156.37 159.495C156.67 158.974 157.088 158.531 157.59 158.2V158.2Z" fill="#E0E0E0"/>
<path d="M157.59 169.92L231.31 127.36C232.26 126.81 233.04 127.25 233.04 128.36V129.05C233.006 129.65 232.832 130.235 232.531 130.756C232.231 131.277 231.812 131.72 231.31 132.05L157.59 174.61C156.59 175.16 155.86 174.71 155.86 173.61V172.92C155.892 172.319 156.066 171.735 156.366 171.213C156.667 170.692 157.086 170.249 157.59 169.92V169.92Z" fill="#E0E0E0"/>
<path d="M157.59 181.72L231.31 139.16C232.26 138.6 233.04 139.05 233.04 140.16V140.85C233.005 141.45 232.831 142.034 232.53 142.555C232.23 143.076 231.812 143.519 231.31 143.85L157.59 186.41C156.59 186.96 155.86 186.51 155.86 185.41V184.72C155.892 184.119 156.066 183.535 156.366 183.013C156.667 182.492 157.086 182.049 157.59 181.72V181.72Z" fill="#E0E0E0"/>
<path d="M157.59 193.43L231.31 150.87C232.26 150.32 233.04 150.76 233.04 151.87V152.56C233.006 153.161 232.832 153.745 232.531 154.266C232.231 154.787 231.812 155.23 231.31 155.56L157.59 198.12C156.59 198.67 155.86 198.22 155.86 197.12V196.43C155.892 195.829 156.066 195.245 156.366 194.723C156.667 194.202 157.086 193.759 157.59 193.43Z" fill="#E0E0E0"/>
<path d="M157.59 205.14L231.31 162.58C232.26 162.03 233.04 162.48 233.04 163.58V164.27C233.007 164.871 232.834 165.456 232.533 165.977C232.233 166.498 231.814 166.941 231.31 167.27L157.59 209.83C156.59 210.38 155.86 209.94 155.86 208.83V208.14C155.894 207.54 156.068 206.956 156.369 206.435C156.669 205.914 157.087 205.47 157.59 205.14Z" fill="#E0E0E0"/>
<path d="M157.59 216.85L231.31 174.29C232.26 173.74 233.04 174.19 233.04 175.29V176C233.007 176.601 232.834 177.186 232.533 177.707C232.233 178.228 231.814 178.671 231.31 179L157.59 221.56C156.59 222.12 155.86 221.67 155.86 220.56V219.87C155.892 219.266 156.065 218.679 156.365 218.154C156.666 217.629 157.085 217.183 157.59 216.85V216.85Z" fill="#E0E0E0"/>
<path d="M157.59 228.57L231.31 186C232.26 185.44 233.04 185.89 233.04 187V187.69C233.005 188.29 232.831 188.874 232.53 189.395C232.23 189.916 231.812 190.359 231.31 190.69L157.59 233.25C156.59 233.8 155.86 233.35 155.86 232.25V231.56C155.894 230.961 156.068 230.378 156.369 229.859C156.669 229.34 157.087 228.898 157.59 228.57V228.57Z" fill="#E0E0E0"/>
<path d="M157.59 240.33L231.31 197.77C232.26 197.22 233.04 197.67 233.04 198.77V199.46C233.006 200.06 232.832 200.645 232.531 201.166C232.231 201.686 231.812 202.13 231.31 202.46L157.59 245C156.59 245.55 155.86 245.1 155.86 244V243.31C155.895 242.713 156.07 242.132 156.371 241.614C156.671 241.097 157.089 240.657 157.59 240.33V240.33Z" fill="#E0E0E0"/>
<path d="M157.59 252L231.31 209.44C232.26 208.89 233.04 209.34 233.04 210.44V211.13C233.007 211.731 232.834 212.316 232.533 212.837C232.233 213.358 231.814 213.801 231.31 214.13L157.59 256.69C156.59 257.24 155.86 256.8 155.86 255.69V255C155.894 254.4 156.068 253.816 156.369 253.295C156.669 252.774 157.087 252.33 157.59 252V252Z" fill="#E0E0E0"/>
<path d="M157.59 263.75L231.31 221.19C232.26 220.64 233.04 221.09 233.04 222.19V222.89C233.005 223.49 232.831 224.074 232.53 224.595C232.23 225.116 231.812 225.559 231.31 225.89L157.59 268.44C156.59 269 155.86 268.55 155.86 267.44V266.75C155.895 266.15 156.069 265.566 156.37 265.045C156.67 264.524 157.088 264.081 157.59 263.75Z" fill="#E0E0E0"/>
<path d="M146.64 286.43C146.069 286.733 145.429 286.881 144.783 286.857C144.138 286.834 143.51 286.64 142.963 286.296C142.416 285.952 141.97 285.47 141.669 284.898C141.368 284.327 141.224 283.685 141.25 283.04V117.79C141.274 117.106 141.47 116.439 141.82 115.85L145.51 117.98C145.155 118.563 144.955 119.228 144.93 119.91V285.17C144.93 286.32 145.68 286.84 146.64 286.43Z" fill="#E0E0E0"/>
<path d="M156.91 294.21C156.361 293.84 155.907 293.346 155.586 292.767C155.264 292.188 155.084 291.542 155.06 290.88V125.62C155.099 124.935 155.301 124.27 155.649 123.678C155.997 123.087 156.48 122.587 157.06 122.22L254.68 65.92C255.248 65.5632 255.902 65.3681 256.573 65.3555C257.244 65.3429 257.905 65.5135 258.486 65.8487C259.067 66.184 259.546 66.6713 259.871 67.2583C260.196 67.8452 260.354 68.5096 260.33 69.18V234.44C260.289 235.124 260.086 235.789 259.738 236.38C259.391 236.971 258.908 237.472 258.33 237.84L160.71 294.14C160.127 294.45 159.478 294.617 158.818 294.629C158.158 294.642 157.504 294.498 156.91 294.21Z" fill="#FAFAFA"/>
<path d="M160.72 294.14L258.34 237.84C258.918 237.471 259.401 236.971 259.748 236.38C260.096 235.789 260.299 235.124 260.34 234.44V69.1799C260.34 67.9299 259.46 67.4199 258.34 68.0399L160.71 124.35C160.131 124.718 159.649 125.219 159.301 125.81C158.953 126.401 158.751 127.066 158.71 127.75V293C158.75 294.26 159.63 294.77 160.72 294.14Z" fill="#F0F0F0"/>
<path d="M171.41 130.91L245.13 88.3499C246.13 87.7999 246.86 88.2399 246.86 89.3499V89.9999C246.826 90.6004 246.651 91.1845 246.351 91.7054C246.051 92.2264 245.632 92.6697 245.13 92.9999L171.41 135.6C170.41 136.15 169.68 135.7 169.68 134.6V133.91C169.712 133.309 169.886 132.724 170.186 132.203C170.487 131.682 170.906 131.239 171.41 130.91V130.91Z" fill="#E0E0E0"/>
<path d="M171.41 142.62L245.13 100.06C246.13 99.5099 246.86 99.9599 246.86 101.06V101.75C246.827 102.351 246.654 102.935 246.353 103.457C246.053 103.978 245.633 104.421 245.13 104.75L171.41 147.31C170.41 147.86 169.68 147.42 169.68 146.31V145.62C169.714 145.02 169.888 144.435 170.188 143.914C170.489 143.393 170.907 142.95 171.41 142.62V142.62Z" fill="#E0E0E0"/>
<path d="M171.41 154.33L245.13 111.77C246.13 111.22 246.86 111.67 246.86 112.77V113.46C246.827 114.061 246.654 114.645 246.353 115.167C246.053 115.688 245.633 116.131 245.13 116.46L171.41 159C170.41 159.56 169.68 159.11 169.68 158V157.31C169.717 156.713 169.892 156.133 170.193 155.616C170.493 155.098 170.91 154.658 171.41 154.33Z" fill="#E0E0E0"/>
<path d="M171.41 166.05L245.13 123.49C246.13 122.93 246.86 123.38 246.86 124.49V125.18C246.825 125.78 246.65 126.364 246.35 126.885C246.05 127.406 245.632 127.849 245.13 128.18L171.41 170.74C170.41 171.29 169.68 170.84 169.68 169.74V169.05C169.712 168.449 169.886 167.864 170.186 167.343C170.487 166.822 170.906 166.379 171.41 166.05V166.05Z" fill="#E0E0E0"/>
<path d="M171.41 177.76L245.13 135.2C246.13 134.65 246.86 135.09 246.86 136.2V136.89C246.826 137.49 246.651 138.075 246.351 138.596C246.051 139.116 245.632 139.56 245.13 139.89L171.41 182.45C170.41 183 169.68 182.55 169.68 181.45V180.76C169.712 180.159 169.886 179.575 170.186 179.053C170.487 178.532 170.906 178.089 171.41 177.76Z" fill="#E0E0E0"/>
<path d="M171.41 189.56L245.13 147C246.13 146.44 246.86 146.89 246.86 148V148.69C246.825 149.29 246.65 149.874 246.35 150.395C246.05 150.916 245.632 151.359 245.13 151.69L171.41 194.25C170.41 194.8 169.68 194.35 169.68 193.25V192.56C169.712 191.959 169.886 191.374 170.186 190.853C170.487 190.332 170.906 189.889 171.41 189.56V189.56Z" fill="#E0E0E0"/>
<path d="M171.41 201.27L245.13 158.71C246.13 158.16 246.86 158.6 246.86 159.71V160.4C246.826 161 246.651 161.585 246.351 162.106C246.051 162.627 245.632 163.07 245.13 163.4L171.41 206C170.41 206.55 169.68 206.1 169.68 205V204.31C169.706 203.702 169.877 203.11 170.177 202.581C170.478 202.052 170.901 201.603 171.41 201.27V201.27Z" fill="#E0E0E0"/>
<path d="M171.41 213L245.13 170.44C246.13 169.89 246.86 170.34 246.86 171.44V172.13C246.827 172.731 246.654 173.315 246.353 173.837C246.053 174.358 245.633 174.801 245.13 175.13L171.41 217.69C170.41 218.24 169.68 217.8 169.68 216.69V216C169.714 215.4 169.888 214.815 170.188 214.294C170.489 213.773 170.907 213.33 171.41 213Z" fill="#E0E0E0"/>
<path d="M171.41 224.69L245.13 182.13C246.13 181.58 246.86 182.03 246.86 183.13V183.82C246.827 184.421 246.654 185.005 246.353 185.527C246.053 186.048 245.633 186.491 245.13 186.82L171.41 229.38C170.41 229.94 169.68 229.49 169.68 228.38V227.69C169.714 227.09 169.889 226.506 170.189 225.985C170.49 225.464 170.908 225.021 171.41 224.69V224.69Z" fill="#E0E0E0"/>
<path d="M171.41 236.41L245.13 193.85C246.13 193.29 246.86 193.74 246.86 194.85V195.54C246.825 196.14 246.65 196.724 246.35 197.245C246.05 197.766 245.632 198.209 245.13 198.54L171.41 241.1C170.41 241.65 169.68 241.2 169.68 240.1V239.41C169.712 238.809 169.886 238.225 170.186 237.703C170.487 237.182 170.906 236.739 171.41 236.41V236.41Z" fill="#E0E0E0"/>
<path d="M171.41 248.17L245.13 205.61C246.13 205.06 246.86 205.51 246.86 206.61V207.3C246.827 207.901 246.654 208.485 246.353 209.007C246.053 209.528 245.633 209.971 245.13 210.3L171.41 252.86C170.41 253.41 169.68 252.96 169.68 251.86V251.17C169.712 250.569 169.886 249.984 170.186 249.463C170.487 248.942 170.906 248.499 171.41 248.17V248.17Z" fill="#E0E0E0"/>
<path d="M171.41 259.88L245.13 217.32C246.13 216.77 246.86 217.22 246.86 218.32V219C246.827 219.601 246.654 220.185 246.353 220.707C246.053 221.228 245.633 221.671 245.13 222L171.41 264.56C170.41 265.11 169.68 264.67 169.68 263.56V262.87C169.715 262.271 169.89 261.689 170.191 261.17C170.491 260.651 170.908 260.209 171.41 259.88V259.88Z" fill="#E0E0E0"/>
<path d="M171.41 271.59L245.13 229C246.13 228.45 246.86 228.9 246.86 230V230.7C246.825 231.3 246.65 231.884 246.35 232.405C246.05 232.926 245.632 233.369 245.13 233.7L171.41 276.25C170.41 276.81 169.68 276.36 169.68 275.25V274.56C169.719 273.965 169.896 273.387 170.196 272.872C170.496 272.357 170.912 271.918 171.41 271.59V271.59Z" fill="#E0E0E0"/>
<path d="M160.46 294.27C159.89 294.573 159.249 294.721 158.604 294.697C157.958 294.674 157.33 294.48 156.783 294.136C156.236 293.792 155.79 293.31 155.489 292.738C155.188 292.166 155.044 291.525 155.07 290.88V125.63C155.094 124.946 155.29 124.279 155.64 123.69L159.33 125.82C158.975 126.403 158.775 127.068 158.75 127.75V293C158.75 294.16 159.5 294.68 160.46 294.27Z" fill="#E0E0E0"/>
<path d="M302.65 117L274.13 240.5L271.5 251.86C270.628 254.892 268.693 257.508 266.05 259.23L96.8299 356.89C95.5997 357.557 94.229 357.924 92.8299 357.96C91.3096 358.066 89.7897 357.748 88.4399 357.04L89.3099 353.27L89.3999 352.9L90.3499 348.77L94.4899 330.85L120.71 217.31C120.746 217.164 120.799 217.023 120.87 216.89C120.94 216.76 121.02 216.63 121.1 216.51V216.45C121.281 216.206 121.505 215.996 121.76 215.83L266.31 132.4L297.94 114.14C298.209 114.002 298.507 113.93 298.81 113.93C299.112 113.93 299.411 114.002 299.68 114.14L302.01 115.48C302.256 115.64 302.449 115.871 302.563 116.142C302.677 116.413 302.707 116.712 302.65 117Z" fill="#37474F"/>
<path d="M302.68 116.71C302.68 116.36 302.4 116.25 302.01 116.48L125.86 218.18C125.6 218.34 125.376 218.551 125.2 218.8L121.14 216.45C121.321 216.206 121.545 215.996 121.8 215.83L297.94 114.14C298.209 114.002 298.507 113.93 298.81 113.93C299.112 113.93 299.411 114.002 299.68 114.14L302.01 115.48C302.214 115.614 302.382 115.797 302.498 116.011C302.615 116.226 302.678 116.466 302.68 116.71V116.71Z" fill="#455A64"/>
<path d="M125.2 218.8C125.086 218.954 124.985 219.118 124.9 219.29C124.847 219.406 124.803 219.527 124.77 219.65L99.6999 328.23L94.4199 351.11L93.7499 354L92.8299 358C91.3096 358.106 89.7897 357.788 88.4399 357.08L89.3099 353.31L89.3999 352.94L90.3499 348.81L94.4899 330.89L120.71 217.35C120.746 217.204 120.799 217.063 120.87 216.93C120.94 216.8 121.02 216.67 121.1 216.55V216.49L125.2 218.8Z" fill="#263238"/>
<path d="M94.64 346.56C94.8497 346.68 95.0154 346.865 95.1126 347.086C95.2098 347.308 95.2334 347.554 95.18 347.79L93.75 354L93 357.09C92.9393 357.348 92.7899 357.577 92.5779 357.736C92.3658 357.895 92.1046 357.974 91.8399 357.96C90.6394 357.933 89.463 357.617 88.41 357.04C87.2044 356.221 86.2087 355.13 85.5033 353.855C84.798 352.58 84.4028 351.156 84.35 349.7V342.58C84.3435 342.379 84.391 342.181 84.4876 342.005C84.5842 341.829 84.7263 341.682 84.899 341.58C85.0718 341.478 85.2688 341.424 85.4695 341.424C85.6702 341.424 85.8672 341.478 86.04 341.58L87.85 342.58C88.0226 342.683 88.1651 342.83 88.2634 343.005C88.3617 343.181 88.4122 343.379 88.41 343.58V347.12C88.3989 347.403 88.4952 347.679 88.6796 347.894C88.8639 348.108 89.1226 348.245 89.4038 348.277C89.6849 348.308 89.9676 348.233 90.195 348.064C90.4225 347.896 90.5779 347.648 90.63 347.37L90.93 346.06C90.9705 345.889 91.0504 345.73 91.1632 345.596C91.276 345.461 91.4186 345.354 91.5797 345.285C91.7408 345.215 91.916 345.183 92.0914 345.193C92.2668 345.203 92.4375 345.253 92.5899 345.34L94.64 346.56Z" fill="#263238"/>
<path d="M132 320.17L122.37 314.61L122.27 314.55C117.48 311.84 110.91 312.24 103.64 316.44C96.8299 320.36 90.6399 326.91 85.9499 334.44C80.5399 343.16 77.1399 353.26 77.1399 362.31C77.1399 370.75 80.1399 376.68 84.8699 379.45L94.6499 385.03C99.4799 388.11 106.3 387.84 113.86 383.47C128.5 375.02 140.37 354.47 140.37 337.56C140.37 328.84 137.15 322.78 132 320.17Z" fill="#F4B313"/>
<path opacity="0.1" d="M94.4599 385L84.8699 379.52C80.0899 376.75 77.1399 370.82 77.1399 362.38C77.1399 353.33 80.5399 343.24 85.9499 334.52L96.1799 340.42C90.7699 349.14 87.3799 359.22 87.3799 368.26C87.3499 376.32 90.0499 382.09 94.4599 385Z" fill="black"/>
<path opacity="0.4" d="M131.8 320.06C127.08 317.77 120.8 318.35 113.86 322.34C106.92 326.33 100.86 332.83 96.1499 340.41L85.9199 334.51C90.5999 326.93 96.8099 320.39 103.61 316.51C110.88 312.31 117.45 311.91 122.24 314.61L122.34 314.67L131.8 320.06Z" fill="white"/>
<path d="M117.52 355.67V365C117.52 365.475 117.41 365.944 117.2 366.37C117.054 366.776 116.785 367.125 116.43 367.37L111.32 370.32C111.206 370.404 111.065 370.445 110.924 370.434C110.782 370.423 110.65 370.361 110.55 370.26C110.433 370.123 110.344 369.964 110.289 369.792C110.234 369.62 110.214 369.44 110.23 369.26V359.97L103.94 363.59C103.828 363.678 103.687 363.721 103.545 363.712C103.403 363.702 103.27 363.641 103.17 363.54C103.053 363.403 102.964 363.244 102.909 363.072C102.854 362.9 102.834 362.72 102.85 362.54V356.24C102.856 355.762 102.965 355.292 103.17 354.86C103.331 354.479 103.598 354.153 103.94 353.92L110.23 350.29V341C110.236 340.522 110.345 340.052 110.55 339.62C110.707 339.237 110.975 338.91 111.32 338.68L116.43 335.68C116.544 335.596 116.683 335.556 116.824 335.565C116.965 335.574 117.098 335.632 117.2 335.73C117.318 335.867 117.407 336.026 117.462 336.197C117.517 336.369 117.537 336.55 117.52 336.73V346L123.77 342.4C123.882 342.312 124.022 342.269 124.164 342.278C124.306 342.288 124.44 342.349 124.54 342.45C124.657 342.587 124.745 342.746 124.8 342.918C124.855 343.09 124.875 343.27 124.86 343.45V349.75C124.854 350.228 124.745 350.699 124.54 351.13C124.379 351.511 124.112 351.837 123.77 352.07L117.52 355.67Z" fill="white"/>
<path d="M374.56 211.19L362.87 210.86C362.09 210.19 349.82 196.34 349.82 196.34C349.82 196.34 345.4 203.34 345.33 203.75C345.26 204.16 357.33 217.14 358.56 218.45C358.897 218.885 359.329 219.237 359.823 219.479C360.317 219.722 360.86 219.849 361.41 219.85C364.58 220.04 376.41 220.85 376.41 220.85L374.56 211.19Z" fill="#B16668"/>
<path d="M249.79 386.71C249.243 386.338 248.792 385.843 248.472 385.265C248.153 384.686 247.974 384.04 247.95 383.38V228C247.991 227.316 248.194 226.651 248.541 226.06C248.889 225.469 249.372 224.968 249.95 224.6L347.57 168.29C348.156 167.983 348.805 167.817 349.467 167.805C350.128 167.793 350.783 167.935 351.38 168.22C351.928 168.593 352.38 169.089 352.7 169.67C353.02 170.25 353.198 170.898 353.22 171.56V326.93C353.18 327.616 352.978 328.283 352.631 328.876C352.283 329.469 351.8 329.97 351.22 330.34L253.6 386.64C253.015 386.949 252.365 387.116 251.703 387.128C251.042 387.14 250.386 386.997 249.79 386.71V386.71Z" fill="#26B600"/>
<path opacity="0.15" d="M253.05 386.86L253.25 386.8C253.208 386.83 253.161 386.85 253.11 386.86C252.993 386.908 252.872 386.948 252.75 386.98H252.55C252.402 387.013 252.251 387.036 252.1 387.05C251.927 387.06 251.753 387.06 251.58 387.05C250.957 387.064 250.341 386.92 249.79 386.63C249.389 386.372 249.048 386.031 248.79 385.63C248.292 384.949 248.009 384.134 247.98 383.29V228C247.979 227.661 248.029 227.324 248.13 227C248.18 226.833 248.24 226.669 248.31 226.51C248.38 226.345 248.46 226.185 248.55 226.03L252.23 228.16L252.14 228.31C251.84 228.857 251.672 229.467 251.65 230.09V385.51C251.649 385.709 251.675 385.908 251.73 386.1C251.794 386.333 251.927 386.542 252.11 386.7C252.23 386.789 252.366 386.853 252.51 386.89H252.74C252.829 386.905 252.921 386.905 253.01 386.89C253.027 386.885 253.041 386.875 253.05 386.86V386.86Z" fill="black"/>
<path opacity="0.3" d="M353.15 171.14C352.99 170.14 352.15 169.81 351.22 170.37L253.59 226.67C253.014 227.039 252.536 227.544 252.2 228.14L248.52 226C248.848 225.4 249.327 224.897 249.91 224.54L347.53 168.23C348.116 167.923 348.765 167.757 349.427 167.745C350.088 167.733 350.743 167.875 351.34 168.16C351.838 168.498 352.257 168.939 352.57 169.453C352.882 169.967 353.08 170.542 353.15 171.14V171.14Z" fill="white"/>
<path d="M264.3 233.24L338 190.68C339 190.12 339.73 190.57 339.73 191.68V192.37C339.697 192.971 339.523 193.555 339.222 194.076C338.922 194.597 338.503 195.04 338 195.37L264.28 237.93C263.28 238.48 262.55 238.03 262.55 236.93V236.24C262.584 235.637 262.76 235.051 263.064 234.53C263.369 234.008 263.792 233.566 264.3 233.24V233.24Z" fill="#FAFAFA"/>
<path d="M264.3 247.57L338 205C339 204.44 339.73 204.89 339.73 206V206.69C339.698 207.291 339.525 207.876 339.225 208.397C338.924 208.919 338.504 209.362 338 209.69L264.28 252.25C263.28 252.8 262.55 252.35 262.55 251.25V250.56C262.585 249.959 262.762 249.375 263.067 248.855C263.371 248.336 263.793 247.895 264.3 247.57V247.57Z" fill="#FAFAFA"/>
<path d="M264.3 261.9L338 219.34C339 218.79 339.73 219.23 339.73 220.34V221C339.698 221.601 339.525 222.186 339.225 222.707C338.924 223.229 338.504 223.672 338 224L264.28 266.56C263.28 267.11 262.55 266.66 262.55 265.56V264.87C262.589 264.272 262.767 263.692 263.071 263.176C263.375 262.66 263.796 262.223 264.3 261.9V261.9Z" fill="#FAFAFA"/>
<path d="M264.3 276.23L338 233.67C339 233.12 339.73 233.56 339.73 234.67V235.36C339.698 235.961 339.525 236.546 339.225 237.067C338.924 237.589 338.504 238.032 338 238.36L264.28 280.92C263.28 281.47 262.55 281.02 262.55 279.92V279.23C262.584 278.627 262.76 278.041 263.064 277.52C263.369 276.998 263.792 276.556 264.3 276.23V276.23Z" fill="#FAFAFA"/>
<path d="M264.3 290.56L338 248C339 247.45 339.73 247.89 339.73 249V249.69C339.698 250.291 339.525 250.876 339.225 251.397C338.924 251.919 338.504 252.362 338 252.69L264.28 295.25C263.28 295.8 262.55 295.35 262.55 294.25V293.56C262.584 292.957 262.76 292.371 263.064 291.85C263.369 291.328 263.792 290.886 264.3 290.56V290.56Z" fill="#FAFAFA"/>
<path d="M264.3 304.89L338 262.33C339 261.78 339.73 262.22 339.73 263.33V264C339.698 264.601 339.525 265.186 339.225 265.707C338.924 266.229 338.504 266.672 338 267L264.28 309.56C263.28 310.11 262.55 309.66 262.55 308.56V307.87C262.587 307.271 262.765 306.689 263.069 306.171C263.373 305.653 263.795 305.214 264.3 304.89Z" fill="#FAFAFA"/>
<path d="M264.3 319.22L338 276.66C339 276.11 339.73 276.55 339.73 277.66V278.35C339.698 278.951 339.525 279.536 339.225 280.057C338.924 280.579 338.504 281.022 338 281.35L264.28 323.91C263.28 324.46 262.55 324.01 262.55 322.91V322.22C262.584 321.617 262.76 321.031 263.064 320.51C263.369 319.988 263.792 319.546 264.3 319.22V319.22Z" fill="#FAFAFA"/>
<path d="M264.3 333.55L338 291C339 290.45 339.73 290.9 339.73 292V292.69C339.698 293.291 339.525 293.876 339.225 294.397C338.924 294.919 338.504 295.362 338 295.69L264.28 338.25C263.28 338.8 262.55 338.35 262.55 337.25V336.56C262.582 335.956 262.758 335.367 263.062 334.844C263.366 334.321 263.791 333.877 264.3 333.55V333.55Z" fill="#FAFAFA"/>
<path d="M264.3 347.88L338 305.32C339 304.77 339.73 305.22 339.73 306.32V307C339.699 307.601 339.526 308.186 339.226 308.708C338.925 309.229 338.505 309.672 338 310L264.28 352.56C263.28 353.11 262.55 352.66 262.55 351.56V350.87C262.585 350.269 262.762 349.685 263.067 349.165C263.371 348.646 263.793 348.205 264.3 347.88V347.88Z" fill="#FAFAFA"/>
<path d="M264.3 362.21L338 319.65C339 319.1 339.73 319.55 339.73 320.65V321.34C339.699 321.941 339.526 322.526 339.226 323.048C338.925 323.569 338.505 324.012 338 324.34L264.29 366.9C263.29 367.45 262.56 367 262.56 365.9V365.21C262.594 364.608 262.769 364.023 263.071 363.502C263.373 362.98 263.794 362.538 264.3 362.21Z" fill="#FAFAFA"/>
<path d="M376.73 209.16H390.61C395.368 209.16 399.931 207.27 403.295 203.905C406.66 200.541 408.55 195.978 408.55 191.22C408.55 187 406.874 182.954 403.89 179.97C400.906 176.986 396.86 175.31 392.64 175.31C388.42 175.31 384.374 176.986 381.39 179.97C378.406 182.954 376.73 187 376.73 191.22V209.16Z" fill="#263238"/>
<path d="M405 181.58L408.85 179.51C408.731 179.248 408.559 179.013 408.346 178.82C408.133 178.626 407.882 178.478 407.61 178.384C407.338 178.291 407.049 178.254 406.762 178.275C406.475 178.297 406.195 178.377 405.94 178.51C405.412 178.796 405.018 179.278 404.842 179.853C404.666 180.427 404.723 181.047 405 181.58V181.58Z" fill="#263238"/>
<path d="M404.73 182L408.83 183.53C408.943 183.266 409.002 182.982 409.002 182.695C409.003 182.408 408.945 182.124 408.833 181.859C408.721 181.595 408.557 181.356 408.35 181.157C408.143 180.957 407.898 180.802 407.63 180.7C407.072 180.504 406.46 180.53 405.921 180.772C405.381 181.014 404.955 181.453 404.73 182Z" fill="#263238"/>
<path d="M391 222.39L371.67 221.56C370 219.21 370 213 371.76 211L393.15 211.58L391 222.39Z" fill="#26B600"/>
<path d="M379.25 342.31C379.369 343.603 379.422 344.901 379.41 346.2V353.81H386V349.35C386.003 347.34 386.17 345.333 386.5 343.35L379.25 342.31Z" fill="#B16668"/>
<path d="M379.4 350.55V349.6C379.22 351.04 375.1 356.46 372.48 358.85C370.39 360.76 367.54 362.96 366.81 365.09C366.08 367.22 370.18 368.17 372.88 367.9C375.503 367.574 377.918 366.31 379.68 364.34C380.772 362.968 381.752 361.509 382.61 359.98C383.41 358.9 387.01 356.68 387.45 355.42C387.575 354.249 387.445 353.066 387.07 351.95C386.76 350.78 386.43 349.49 386.07 349.6V350.32C385.127 351.06 383.959 351.455 382.76 351.44C381.75 351.48 379.4 351.29 379.4 350.55Z" fill="#263238"/>
<path d="M386 350.32C385.056 351.06 383.889 351.455 382.69 351.44C381.69 351.44 379.37 351.29 379.37 350.55V349.6C379.19 351.04 375.07 356.46 372.45 358.85C371.95 359.31 371.4 359.78 370.85 360.27C369.74 361.51 370.06 362.59 372.67 362.81C375.28 363.03 377.58 361.46 379.56 359.03C381.54 356.6 386 350.32 386 350.32Z" fill="#B16668"/>
<path d="M399.48 353.53C399.61 355.13 399.61 356.8 399.64 357.53V365.14H406.26V360.68C406.26 358.67 406.423 356.663 406.75 354.68L399.48 353.53Z" fill="#B16668"/>
<path d="M399.63 361.87V360.92C399.44 362.36 395.33 367.78 392.7 370.17C390.61 372.08 387.76 374.28 387.04 376.4C386.32 378.52 390.4 379.49 393.11 379.22C395.73 378.895 398.142 377.63 399.9 375.66C400.994 374.287 401.977 372.829 402.84 371.3C403.64 370.22 407.24 368 407.67 366.74C407.805 365.569 407.675 364.384 407.29 363.27C406.99 362.1 406.65 360.81 406.29 360.92V361.64C405.346 362.38 404.179 362.775 402.98 362.76C402 362.8 399.62 362.61 399.63 361.87Z" fill="#263238"/>
<path d="M406.25 361.64C405.306 362.38 404.139 362.775 402.94 362.76C401.94 362.76 399.62 362.61 399.63 361.87V360.92C399.44 362.36 395.33 367.78 392.7 370.17C392.2 370.63 391.7 371.1 391.11 371.59C390 372.83 390.32 373.91 392.93 374.13C395.54 374.35 397.83 372.78 399.81 370.35C401.79 367.92 406.25 361.64 406.25 361.64Z" fill="#B16668"/>
<path d="M379.25 345.45C377.83 333.78 375.51 313.6 374.83 309.19C374.2 305.11 375.78 270.19 376.75 259.07L411.25 257.22C413.87 268.46 411.31 283.62 410.42 293.09C409.54 302.3 408.42 313.09 408.42 313.09C408.42 313.09 411.11 322.48 410.42 329.95C409.96 334.66 407.85 348.87 406.85 354.95C405.674 355.546 404.371 355.848 403.053 355.831C401.734 355.814 400.44 355.477 399.28 354.85C399.39 356.14 398.05 339.11 397.28 332.23C396.18 322.68 395.76 315.72 394.78 310.14C393.55 303.14 393.13 275.92 393.13 275.92L389.13 306.85C389.563 310.166 389.773 313.506 389.76 316.85C389.76 323.76 387.21 339.46 386.41 345.33C384.68 346.56 381.16 346.93 379.25 345.45Z" fill="#455A64"/>
<path d="M393.12 275.9C393.12 275.9 386.81 273.69 383.22 270.39C385.026 273.199 387.587 275.441 390.61 276.86L390.67 294.96L393.12 275.9" fill="#37474F"/>
<path d="M398.14 211.74C398.14 211.74 407.51 212.82 408.63 213.32C402.92 219.57 409 224.75 409 224.75L404.65 243.89C408.4 248.68 410.54 252.38 411.44 258.09C407.44 265.17 384.87 266.15 376.6 260.88C377.32 251.01 378.93 243.94 378.39 240.97C374.46 228.85 375.68 226.31 376.05 223.54C376.77 218.13 382.14 213.42 385.21 211.44H388.07L398.14 211.74Z" fill="#F0F0F0"/>
<path d="M382 183.1C380.32 184.1 378.24 188.32 378.45 197.18C378.62 204.69 381.06 206.54 382.28 207.08C383.5 207.62 385.86 207.29 388.15 206.9V211.41C388.15 211.41 384.98 215.09 385.15 217.16C385.32 219.23 389.72 219.71 392.69 217.69C394.832 216.029 396.678 214.017 398.15 211.74L398.1 201.38C398.1 201.38 399.44 202.69 401.73 200.69C403.62 199.04 404.25 196.25 402.73 194.76C402.351 194.404 401.894 194.144 401.395 193.999C400.896 193.854 400.37 193.829 399.86 193.927C399.35 194.025 398.87 194.241 398.46 194.56C398.05 194.879 397.721 195.29 397.5 195.76C397.5 195.76 396.23 192.23 390.95 190.5C386.22 189 383.63 187.19 382 183.1Z" fill="#B16668"/>
<path d="M387.3 195.29C387.298 195.537 387.389 195.776 387.553 195.961C387.717 196.146 387.944 196.263 388.19 196.29C388.445 196.29 388.691 196.193 388.877 196.019C389.063 195.844 389.175 195.605 389.19 195.35C389.208 195.219 389.199 195.086 389.163 194.959C389.127 194.832 389.065 194.714 388.98 194.612C388.896 194.511 388.792 194.428 388.673 194.369C388.555 194.31 388.426 194.276 388.294 194.27C388.162 194.264 388.031 194.285 387.907 194.332C387.784 194.38 387.672 194.452 387.579 194.546C387.485 194.639 387.412 194.75 387.364 194.873C387.316 194.996 387.294 195.128 387.3 195.26V195.29Z" fill="#263238"/>
<path d="M387.05 201.66L384.86 202.36C384.899 202.506 384.967 202.643 385.06 202.763C385.154 202.882 385.27 202.981 385.403 203.054C385.536 203.127 385.682 203.172 385.833 203.187C385.983 203.202 386.135 203.186 386.28 203.14C386.575 203.041 386.82 202.832 386.964 202.556C387.108 202.28 387.139 201.958 387.05 201.66V201.66Z" fill="#9A4A4D"/>
<path d="M379.56 192.39L381.47 191.07C381.39 190.941 381.284 190.83 381.16 190.742C381.035 190.655 380.894 190.595 380.746 190.564C380.597 190.533 380.444 190.533 380.295 190.563C380.146 190.593 380.005 190.653 379.88 190.74C379.627 190.923 379.454 191.195 379.394 191.502C379.335 191.808 379.394 192.126 379.56 192.39Z" fill="#263238"/>
<path d="M390.05 193.09L388.14 191.77C388.22 191.641 388.325 191.529 388.45 191.442C388.574 191.355 388.715 191.295 388.864 191.264C389.013 191.233 389.166 191.233 389.315 191.263C389.464 191.293 389.605 191.353 389.73 191.44C389.983 191.623 390.156 191.895 390.216 192.202C390.275 192.508 390.216 192.826 390.05 193.09V193.09Z" fill="#263238"/>
<path d="M380 194.61C379.998 194.857 380.089 195.096 380.253 195.281C380.417 195.466 380.644 195.583 380.89 195.61C381.143 195.611 381.388 195.515 381.573 195.342C381.759 195.17 381.872 194.933 381.89 194.68C381.908 194.549 381.899 194.416 381.863 194.289C381.827 194.162 381.765 194.044 381.68 193.942C381.596 193.841 381.491 193.758 381.373 193.699C381.255 193.64 381.126 193.606 380.994 193.6C380.862 193.594 380.731 193.615 380.607 193.662C380.484 193.71 380.372 193.782 380.279 193.876C380.185 193.969 380.112 194.08 380.064 194.203C380.016 194.326 379.994 194.458 380 194.59V194.61Z" fill="#263238"/>
<path d="M384.45 194.07L384.3 199.75L381.31 198.83L384.45 194.07Z" fill="#9A4A4D"/>
<path d="M388.11 206.9C390.52 206.59 395.49 205.16 396.27 203.2C395.957 204.193 395.346 205.066 394.52 205.7C393.04 206.97 388.11 208.41 388.11 208.41V206.9Z" fill="#9A4A4D"/>
<path d="M406.59 235.34L398.6 247.01L404.65 243.89L406.59 235.34Z" fill="#E0E0E0"/>
<path d="M402.89 215.87L384.14 235.26C384.14 235.26 365.73 233.45 359.48 231.66C357.48 231.09 355.92 228.39 355.48 226.12C355.424 225.525 355.183 224.962 354.79 224.512C354.397 224.061 353.872 223.746 353.29 223.61V228.16C353.13 229.31 352.57 229.9 350.93 229.94C344.61 230.08 341.68 228.16 340.93 231.59C340.44 233.78 341.39 236.27 345.56 237.42C351.42 239.02 354.66 238.22 358.22 239.11C360.97 239.79 380.16 243.44 383.93 244.26C385.93 244.7 387.44 244.56 389.61 242.42C391.78 240.28 408 225.08 408 225.08C413 220.08 411.52 214.95 408.74 213.42C407 212.47 405.1 213.59 402.89 215.87Z" fill="#B16668"/>
<path d="M408.63 213.32C409.84 213.81 411.32 215.1 411.44 218.44C411.56 221.78 409.09 224.82 406.18 228.3C403.27 231.78 402.39 232.7 402.39 232.7C402.39 232.7 395.03 230.02 393.78 224.55C393.78 224.55 399.33 218.67 400.99 216.79C402.65 214.91 405.71 212 408.63 213.32Z" fill="#26B600"/>
<path d="M370.63 86.78L377.58 90.78C377.54 90.4749 377.52 90.1676 377.52 89.86V87.86C377.52 84.28 380.04 82.86 383.14 84.62C384.473 85.4425 385.615 86.5403 386.49 87.84C387 83.33 390.49 81.66 394.83 84.13C399.47 86.82 403.24 93.34 403.24 98.7V101.7C403.271 102.903 403.024 104.097 402.52 105.19L408.3 108.52C409.206 109.113 409.961 109.911 410.503 110.849C411.045 111.786 411.359 112.839 411.42 113.92C411.42 115.92 410.02 116.72 408.3 115.72L370.63 94C369.722 93.4086 368.966 92.6115 368.424 91.6732C367.882 90.7349 367.569 89.682 367.51 88.6C367.51 86.59 368.91 85.78 370.63 86.78Z" fill="#EBEBEB"/>
<path d="M340.88 107L346.12 110C346.12 109.76 346.12 109.53 346.12 109.3V107.78C346.12 105.08 348.02 103.98 350.36 105.34C351.371 105.955 352.234 106.785 352.89 107.77C353.27 104.37 355.89 103.1 359.18 104.97C361.031 106.173 362.571 107.797 363.674 109.708C364.778 111.62 365.414 113.766 365.53 115.97V118.24C365.552 119.15 365.368 120.052 364.99 120.88L369.35 123.39C370.034 123.838 370.604 124.441 371.012 125.149C371.42 125.858 371.656 126.653 371.7 127.47C371.7 128.97 370.65 129.58 369.35 128.83L340.92 112.41C340.234 111.965 339.663 111.364 339.253 110.657C338.843 109.95 338.606 109.156 338.56 108.34C338.52 106.89 339.58 106.28 340.88 107Z" fill="#EBEBEB"/>
</svg>
