<svg width="500" height="500" viewBox="0 0 500 500" fill="none" xmlns="http://www.w3.org/2000/svg">
<path d="M250.26 485.99C384.476 485.99 493.28 421.268 493.28 341.43C493.28 261.592 384.476 196.87 250.26 196.87C116.044 196.87 7.23999 261.592 7.23999 341.43C7.23999 421.268 116.044 485.99 250.26 485.99Z" fill="#FAFAFA"/>
<path d="M392.85 438L430.85 416C432.26 415.19 432.26 413.87 430.85 413.05L392.85 391.05C392.057 390.651 391.182 390.443 390.295 390.443C389.408 390.443 388.533 390.651 387.74 391.05L349.74 413.05C348.33 413.87 348.33 415.19 349.74 416L387.74 438C388.533 438.399 389.408 438.607 390.295 438.607C391.182 438.607 392.057 438.399 392.85 438Z" fill="#E0E0E0"/>
<path d="M132.2 454.4L95.64 433.29L363.74 278.51L400.29 299.61L132.2 454.4Z" fill="#E0E0E0"/>
<path d="M369.39 325.61L408.07 347.94L459.63 318.17L420.96 295.84L369.39 325.61Z" fill="#E0E0E0"/>
<path d="M135.84 430.09C177.416 430.09 211.12 410.632 211.12 386.63C211.12 362.628 177.416 343.17 135.84 343.17C94.264 343.17 60.56 362.628 60.56 386.63C60.56 410.632 94.264 430.09 135.84 430.09Z" fill="#E0E0E0"/>
<path d="M305.36 423.41L343.36 401.41C344.77 400.6 344.77 399.28 343.36 398.46L305.36 376.46C304.569 376.055 303.693 375.844 302.805 375.844C301.917 375.844 301.041 376.055 300.25 376.46L262.25 398.46C260.84 399.28 260.84 400.6 262.25 401.41L300.25 423.41C301.041 423.815 301.917 424.026 302.805 424.026C303.693 424.026 304.569 423.815 305.36 423.41Z" fill="#E0E0E0"/>
<path d="M152.35 353.43L150.42 335.37L171.08 336.73C171.08 336.73 170.77 346.53 170.48 352.08C170.31 355.36 174.73 361.45 174.73 361.45C174.73 361.45 165.02 366.65 159.82 364.83C154.62 363.01 151.87 356.54 151.94 355.13C152.01 353.72 152.35 353.43 152.35 353.43Z" fill="#FFA8A7"/>
<path d="M202.13 381.63C202.46 381.63 203 384.98 201.25 386.44C199.25 388.12 193.25 390.94 185.33 390.11C177.41 389.28 173.06 387.06 169.84 384.63C166.62 382.2 162.13 378.77 158.53 378.09C155.18 377.46 151.53 376.09 150.46 375.17C149.39 374.25 149.46 369.94 149.46 369.94L202.13 381.63Z" fill="#263238"/>
<path d="M152.35 353.39C152.07 353.402 151.802 353.507 151.588 353.688C151.375 353.869 151.228 354.116 151.17 354.39C150.94 355.57 150.73 359.01 150.24 360.96C149.56 363.66 149.16 369.19 149.63 371.38C150.1 373.57 155.56 375 159.05 376.18C163.131 377.758 166.956 379.931 170.4 382.63C174.18 385.44 182.06 388.3 187.23 388.17C193.35 388.03 200.23 386.06 201.74 383.38C203.64 380.06 205 376.22 195.87 372.45C194.14 371.73 188.05 368.45 185.98 367.32C180.37 364.14 176.41 361.2 173.76 355.45C173.529 354.729 173.056 354.111 172.42 353.7C171.857 353.493 171.245 353.454 170.66 353.59C169.15 353.81 163.14 354.69 161.77 355.33C160.56 355.89 158.85 356.55 158.9 358.01C158.935 358.52 159.057 359.021 159.26 359.49C159.38 359.78 159.47 360.18 159.19 360.36C158.91 360.54 158.58 360.36 158.34 360.15C157.441 359.316 156.609 358.413 155.85 357.45C155.418 356.945 154.928 356.492 154.39 356.1C153.851 355.83 153.33 355.526 152.83 355.19C152.27 354.72 152.39 354.08 152.35 353.39Z" fill="#455A64"/>
<path d="M170.4 382.66C168.8 381.47 167.1 380.31 165.4 379.29C165.4 379.29 176.16 385.17 180.4 382.35C183.14 380.53 181.79 378.35 181.71 377.71C181.63 377.07 191.36 371.99 194.05 371.64C194.8 372.02 195.44 372.32 195.84 372.49C204.97 376.26 203.61 380.1 201.71 383.42C200.17 386.1 195.22 388.25 187.31 388.42C182.18 388.47 174.18 385.47 170.4 382.66Z" fill="#37474F"/>
<path d="M181 375.7C186.68 377.7 184.29 378.7 182.71 378.98C181.13 379.26 171.56 374.19 165.71 369.98C159.6 365.61 155.71 360.79 153.45 359.19C152.6 358.59 151.69 357.85 150.88 357.19C151.01 356.02 151.11 354.96 151.22 354.41C151.278 354.136 151.425 353.889 151.639 353.708C151.852 353.527 152.12 353.422 152.4 353.41C152.4 354.1 152.32 354.74 152.88 355.24C153.38 355.576 153.901 355.88 154.44 356.15C154.978 356.542 155.468 356.995 155.9 357.5C156.659 358.463 157.491 359.366 158.39 360.2C163.36 365.94 175.29 373.69 181 375.7Z" fill="#37474F"/>
<path d="M182.26 378.21C182.131 378.214 182.005 378.175 181.9 378.1C181.844 378.06 181.797 378.008 181.761 377.949C181.726 377.889 181.703 377.823 181.695 377.755C181.687 377.686 181.692 377.617 181.712 377.55C181.732 377.484 181.765 377.423 181.81 377.37C183.37 375.51 190.81 371.06 195 371.42C195.079 371.407 195.159 371.413 195.235 371.436C195.312 371.459 195.381 371.5 195.439 371.555C195.498 371.609 195.542 371.676 195.57 371.751C195.598 371.826 195.608 371.906 195.601 371.985C195.593 372.064 195.567 372.141 195.524 372.208C195.482 372.276 195.425 372.333 195.357 372.375C195.29 372.417 195.213 372.443 195.134 372.451C195.055 372.459 194.975 372.448 194.9 372.42C191.02 372.1 183.9 376.52 182.69 377.98C182.64 378.048 182.575 378.104 182.501 378.143C182.427 378.183 182.344 378.206 182.26 378.21Z" fill="#263238"/>
<path d="M177.29 375.46C177.164 375.464 177.041 375.425 176.94 375.35C176.884 375.31 176.837 375.258 176.801 375.199C176.766 375.139 176.743 375.073 176.735 375.005C176.726 374.936 176.732 374.867 176.752 374.8C176.772 374.734 176.805 374.673 176.85 374.62C178.41 372.77 185.85 368.32 190.04 368.67C190.11 368.674 190.178 368.691 190.241 368.722C190.304 368.752 190.36 368.794 190.406 368.846C190.453 368.898 190.488 368.959 190.511 369.025C190.534 369.091 190.544 369.16 190.54 369.23C190.522 369.374 190.448 369.506 190.334 369.596C190.22 369.686 190.074 369.727 189.93 369.71C186.05 369.39 178.93 373.8 177.72 375.26C177.668 375.324 177.603 375.375 177.528 375.41C177.454 375.444 177.372 375.462 177.29 375.46Z" fill="#263238"/>
<path d="M172.33 372.86C172.204 372.868 172.079 372.829 171.98 372.75C171.921 372.712 171.871 372.661 171.834 372.602C171.797 372.542 171.773 372.476 171.765 372.406C171.756 372.336 171.763 372.266 171.785 372.199C171.806 372.132 171.842 372.071 171.89 372.02C173.45 370.17 180.89 365.71 185.07 366.07C185.141 366.074 185.21 366.092 185.275 366.122C185.339 366.153 185.396 366.196 185.443 366.249C185.491 366.302 185.527 366.364 185.551 366.431C185.574 366.498 185.584 366.569 185.58 366.64C185.56 366.783 185.485 366.912 185.371 367C185.257 367.087 185.113 367.127 184.97 367.11C181.09 366.79 173.97 371.2 172.76 372.67C172.705 372.729 172.639 372.777 172.565 372.81C172.491 372.842 172.411 372.859 172.33 372.86Z" fill="#263238"/>
<path d="M167.72 369.88C167.594 369.884 167.471 369.845 167.37 369.77C167.313 369.729 167.266 369.676 167.231 369.616C167.195 369.556 167.173 369.489 167.164 369.42C167.156 369.35 167.162 369.28 167.182 369.213C167.202 369.146 167.235 369.084 167.28 369.03C168.84 367.18 176.33 362.73 180.47 363.09C180.54 363.094 180.608 363.111 180.671 363.142C180.733 363.172 180.79 363.214 180.836 363.266C180.883 363.318 180.918 363.379 180.941 363.445C180.964 363.511 180.974 363.58 180.97 363.65C180.952 363.794 180.878 363.926 180.764 364.016C180.65 364.106 180.504 364.147 180.36 364.13C176.49 363.81 169.36 368.21 168.15 369.68C168.098 369.743 168.032 369.794 167.958 369.829C167.883 369.863 167.802 369.881 167.72 369.88Z" fill="#263238"/>
<path d="M163.21 366.89C163.084 366.894 162.961 366.855 162.86 366.78C162.802 366.742 162.752 366.691 162.715 366.632C162.678 366.573 162.654 366.507 162.645 366.438C162.635 366.369 162.641 366.298 162.66 366.231C162.68 366.164 162.714 366.103 162.76 366.05C164.9 363.43 172.76 359.68 176.9 360.05C176.97 360.054 177.038 360.071 177.101 360.102C177.164 360.132 177.22 360.174 177.266 360.226C177.313 360.278 177.348 360.339 177.371 360.405C177.394 360.471 177.404 360.54 177.4 360.61C177.38 360.753 177.305 360.883 177.192 360.973C177.078 361.062 176.934 361.104 176.79 361.09C173.05 360.77 165.55 364.37 163.64 366.7C163.586 366.76 163.52 366.809 163.445 366.841C163.371 366.874 163.291 366.891 163.21 366.89Z" fill="#263238"/>
<path d="M111.49 363.27L116.21 346.17L95.21 342.91L94.21 359.46C94.21 359.46 91.98 365.37 93.21 367.55C94.44 369.73 108.48 372.19 109.78 370.77C111.08 369.35 111.49 363.27 111.49 363.27Z" fill="#FFA8A7"/>
<path d="M109.33 400.57C108.64 405.87 107.48 409.29 105.15 412.14C102.82 414.99 98.72 415.41 94.69 413.94C90.66 412.47 85.58 409.29 84.69 404.52C83.8 399.75 84.25 396.62 85.49 391.79L109.33 400.57Z" fill="#263238"/>
<path d="M94.22 359.46C92.53 359.35 92.87 366.63 91.45 373.69C89.92 381.25 87.13 384.09 85.8 390.28C84.29 397.35 84.51 400.63 87.09 405.39C89.67 410.15 99.48 415.8 104.85 410.23C109.22 405.69 109.74 400.06 109.85 392.8C109.93 385.3 109.93 380.01 110.63 374.4C111.29 369.04 112.92 364.29 111.5 363.48C111.34 364.26 111.16 365.25 110.99 366.02C110.87 366.6 110.51 369.51 109.57 369.41C109.534 368.741 109.571 368.071 109.68 367.41C109.748 367.1 109.752 366.78 109.692 366.469C109.631 366.158 109.508 365.862 109.33 365.6C108.53 364.956 107.613 364.474 106.63 364.18C104.99 363.66 102.06 363.01 100.38 362.64C99.55 362.46 98.71 362.31 97.87 362.2C97.1568 362.1 96.4332 362.1 95.72 362.2C95.5178 362.219 95.3225 362.283 95.1492 362.389C94.9759 362.495 94.829 362.639 94.72 362.81C94.6235 363.069 94.5761 363.344 94.58 363.62C94.5506 364.119 94.4496 364.61 94.28 365.08C94.2 365.28 94.02 365.52 93.78 365.44C93.6948 365.395 93.6258 365.325 93.5827 365.239C93.5397 365.153 93.5247 365.055 93.54 364.96C93.54 364.09 93.75 363.47 93.86 362.47C93.91 362 94.03 361.37 94.07 360.9C94.11 360.43 94.16 359.92 94.22 359.46Z" fill="#455A64"/>
<path d="M86.31 388.28C86.08 389.28 84.66 396.05 86.69 397.58C88.9 399.24 90.5 394 90.5 394C90.5 394 95.96 393.28 103.59 397.38C103.11 398.44 104.09 402.3 106.28 401.81C108.47 401.32 109.8 393.54 109.82 393.43C109.71 400.43 109.09 405.83 104.82 410.24C99.45 415.81 89.63 410.15 87.06 405.4C84.49 400.65 84.26 397.4 85.77 390.29C86 389.57 86.13 388.91 86.31 388.28Z" fill="#37474F"/>
<path d="M91.08 394.54C90.88 397.14 88.08 395.87 88.14 392.17C88.2 388.47 91.07 380.03 91.45 373.69C92.06 364.99 92.53 359.35 94.22 359.46C94.22 359.55 94.22 359.64 94.22 359.73L93.77 363.35C93.6796 363.863 93.6162 364.38 93.58 364.9C93.2 370.22 92.99 380.55 92.17 385.35C91.6156 388.388 91.2516 391.457 91.08 394.54Z" fill="#37474F"/>
<path d="M102.68 397.17C103.597 394.243 104.325 391.26 104.86 388.24C105.75 383.49 108.72 374.01 110.2 368.91C110.596 367.98 110.865 367.001 111 366C111.16 365.29 111.32 364.38 111.48 363.63C111.475 363.577 111.475 363.523 111.48 363.47C112.48 364.07 112.09 368.18 111.48 370.31C110.87 372.44 110.21 374.72 109.48 377.77C107.65 383.77 107.35 392.84 106.18 396.3C105.01 399.76 102 399.66 102.68 397.17Z" fill="#37474F"/>
<path d="M103.74 397.6C103.66 397.589 103.584 397.558 103.52 397.51C99.6018 395.281 95.1199 394.238 90.62 394.51C90.4587 394.527 90.2964 394.487 90.1626 394.395C90.0287 394.303 89.932 394.167 89.89 394.01C89.8736 393.937 89.8737 393.862 89.8901 393.79C89.9065 393.717 89.9388 393.649 89.9848 393.591C90.0308 393.532 90.0892 393.485 90.1559 393.452C90.2225 393.419 90.2957 393.401 90.37 393.4C95.1797 393.062 99.9809 394.165 104.16 396.57C104.227 396.605 104.286 396.654 104.334 396.713C104.381 396.772 104.416 396.841 104.436 396.914C104.455 396.987 104.46 397.064 104.448 397.139C104.437 397.214 104.41 397.286 104.37 397.35C104.303 397.451 104.207 397.53 104.094 397.574C103.982 397.619 103.858 397.628 103.74 397.6Z" fill="#263238"/>
<path d="M105.5 392.13C105.428 392.118 105.36 392.091 105.3 392.05C100.858 389.706 95.8796 388.565 90.86 388.74C90.698 388.752 90.5369 388.706 90.4052 388.611C90.2735 388.516 90.1796 388.378 90.14 388.22C90.1285 388.146 90.133 388.071 90.1533 387.999C90.1736 387.927 90.2092 387.86 90.2576 387.803C90.306 387.746 90.3661 387.7 90.4338 387.669C90.5015 387.637 90.5753 387.621 90.65 387.62C95.9559 387.404 101.223 388.616 105.9 391.13C105.968 391.164 106.029 391.211 106.079 391.269C106.129 391.327 106.167 391.394 106.19 391.467C106.214 391.54 106.222 391.617 106.215 391.693C106.208 391.769 106.186 391.843 106.15 391.91C106.077 392.009 105.976 392.083 105.86 392.122C105.743 392.161 105.618 392.164 105.5 392.13Z" fill="#263238"/>
<path d="M91.61 383.42C91.4941 383.394 91.3867 383.339 91.2976 383.26C91.2085 383.181 91.1406 383.082 91.1 382.97C91.0791 382.898 91.0743 382.822 91.0859 382.748C91.0976 382.674 91.1254 382.604 91.1674 382.542C91.2094 382.48 91.2646 382.428 91.329 382.389C91.3934 382.351 91.4654 382.327 91.54 382.32C99.23 381.08 106.47 385.51 106.77 385.7C106.839 385.733 106.9 385.781 106.95 385.839C106.999 385.898 107.035 385.967 107.056 386.04C107.077 386.114 107.082 386.191 107.07 386.267C107.059 386.343 107.032 386.416 106.99 386.48C106.885 386.601 106.741 386.679 106.583 386.701C106.424 386.723 106.264 386.687 106.13 386.6C106.06 386.6 99.03 382.27 91.87 383.43C91.7834 383.442 91.6954 383.438 91.61 383.42Z" fill="#263238"/>
<path d="M92.36 378.4C92.2467 378.378 92.1411 378.326 92.0534 378.251C91.9658 378.175 91.8992 378.079 91.86 377.97C91.8355 377.899 91.8274 377.823 91.8362 377.749C91.845 377.674 91.8706 377.602 91.9109 377.539C91.9513 377.475 92.0054 377.422 92.0693 377.382C92.1332 377.343 92.2052 377.318 92.28 377.31C97.699 376.499 103.227 377.701 107.82 380.69C107.886 380.726 107.944 380.777 107.989 380.837C108.034 380.898 108.066 380.967 108.082 381.041C108.098 381.115 108.098 381.192 108.082 381.266C108.067 381.34 108.035 381.409 107.99 381.47C107.88 381.588 107.729 381.66 107.569 381.673C107.408 381.686 107.248 381.638 107.12 381.54C107.05 381.54 100.51 377.01 92.64 378.41C92.547 378.427 92.4516 378.423 92.36 378.4Z" fill="#263238"/>
<path d="M93.23 372.77C93.1178 372.748 93.0129 372.699 92.9254 372.625C92.8379 372.552 92.7706 372.457 92.73 372.35C92.7057 372.279 92.6974 372.204 92.7056 372.129C92.7138 372.054 92.7383 371.983 92.7775 371.919C92.8167 371.855 92.8694 371.8 92.9321 371.759C92.9948 371.718 93.0657 371.691 93.14 371.68C101.08 370.16 108.48 375.02 108.79 375.23C108.857 375.266 108.916 375.315 108.962 375.375C109.008 375.436 109.041 375.505 109.058 375.579C109.075 375.653 109.076 375.73 109.061 375.804C109.046 375.878 109.015 375.949 108.97 376.01C108.863 376.133 108.714 376.21 108.553 376.227C108.391 376.244 108.229 376.198 108.1 376.1C108.03 376.05 100.89 371.36 93.51 372.78C93.417 372.797 93.3215 372.793 93.23 372.77Z" fill="#263238"/>
<path d="M107.09 182.62C103.09 224.57 101.31 282.06 101.31 282.06C100.97 285.25 98.67 290.67 96.9 306.38C95 323 95 346.4 95 346.4C95 346.4 106 352.8 115.26 349.83C115.26 349.83 124.43 313.12 129.47 293.64C134.24 275.21 140.96 247.11 140.96 247.11L145.96 275.05C145.96 275.05 145.12 287.05 145.32 295.4C145.56 305.15 151.01 342.54 151.01 342.54C151.01 342.54 161.88 349.85 171.53 342.54C171.53 342.54 174.4 287.89 174.87 276.17C175.79 253.17 175.62 208.58 175.32 178.88L107.09 182.62Z" fill="#37474F"/>
<path d="M140.93 247.11L146.17 217.31C146.17 217.31 157.31 215.85 163.09 210.71C163.09 210.71 159.3 217.58 148.77 220.1L143.61 247.23L145.91 275.05L140.93 247.11Z" fill="#263238"/>
<path d="M94.71 346.86C96.96 350.02 107.11 353.33 115.37 350.62L116.91 344.18C110.67 346.08 99.91 343.99 94.91 339.83L94.71 346.86Z" fill="#26B600"/>
<path d="M150.89 343.52C153.64 346.24 163.94 347.73 171.62 343.6L172 337C166.19 340 155.57 340 150 336.74L150.89 343.52Z" fill="#26B600"/>
<path d="M232.68 169.31C225.92 164.69 195.37 145.8 195.37 145.8C195.37 145.8 184.47 124.21 180.55 115.92C175.35 104.92 173.13 101.31 161.92 99.1L153.43 125.17C153.43 125.17 170.43 151.22 173.91 157.17C177.39 163.12 178.75 164.63 185.71 167.63C200.38 173.96 218.71 179.89 220.54 182.37L232.68 169.31Z" fill="#FFA8A7"/>
<path d="M161.89 98.65C172.35 101.09 174.2 103 177.7 109C181.2 115 189.94 133.68 189.94 133.68C189.94 133.68 191.08 132.91 193.62 138.94C196.16 144.97 195.37 145.79 195.37 145.79C193.554 145.686 191.735 145.942 190.019 146.544C188.302 147.147 186.722 148.083 185.37 149.3C180.75 153.43 176.69 161.46 176.69 161.46C176.69 161.46 175.6 160.85 172.93 157.04C170.26 153.23 152.65 125.21 152.65 125.21L161.89 98.65Z" fill="#E0E0E0"/>
<path opacity="0.1" d="M178.09 139.57C179.576 138.444 181.17 137.469 182.85 136.66C183.66 136.26 184.5 135.89 185.34 135.57C186.313 135.306 187.265 134.972 188.19 134.57C188.44 134.44 188.19 134.01 187.98 134.02C186.924 134.129 185.89 134.392 184.91 134.8C183.918 135.145 182.947 135.546 182 136C180.122 136.875 178.364 137.987 176.77 139.31C173.89 141.73 171.25 145.31 171.63 149.31C171.63 149.48 171.86 149.68 171.92 149.42C172.356 147.401 173.13 145.47 174.21 143.71C175.258 142.119 176.57 140.719 178.09 139.57ZM189.47 139.36C188.562 139.375 187.661 139.53 186.8 139.82C185.939 140.048 185.091 140.322 184.26 140.64C182.532 141.305 180.89 142.174 179.37 143.23C177.934 144.223 176.665 145.438 175.61 146.83C175.067 147.595 174.642 148.438 174.35 149.33C174.005 150.241 173.777 151.192 173.67 152.16C173.67 152.24 173.77 152.37 173.84 152.26C174.29 151.48 174.53 150.51 174.9 149.68C175.281 148.803 175.765 147.974 176.34 147.21C177.436 145.834 178.742 144.639 180.21 143.67C181.611 142.717 183.118 141.928 184.7 141.32C185.49 141.01 186.29 140.72 187.11 140.47C187.947 140.299 188.764 140.044 189.55 139.71C189.579 139.686 189.601 139.655 189.613 139.62C189.625 139.585 189.627 139.547 189.619 139.51C189.611 139.474 189.592 139.44 189.566 139.414C189.54 139.387 189.506 139.369 189.47 139.36Z" fill="black"/>
<path d="M239.7 169.31L209.77 192.51L229.79 200.69L259.72 177.49L239.7 169.31Z" fill="#26B600"/>
<path opacity="0.25" d="M239.7 169.31L209.77 192.51L229.79 200.69L259.72 177.49L239.7 169.31Z" fill="white"/>
<path d="M229.81 200.69L209.77 192.51L211.26 203.21L231.3 211.39L229.81 200.69Z" fill="#26B600"/>
<path opacity="0.2" d="M229.81 200.69L209.77 192.51L211.26 203.21L231.3 211.39L229.81 200.69Z" fill="black"/>
<path d="M261.23 188.19L259.72 177.49L229.79 200.69L231.3 211.39L261.23 188.19Z" fill="#26B600"/>
<path d="M241.93 185.78C240.93 184.54 239.65 183.43 239.5 183.61C239.35 183.79 239.5 183.81 240.02 184.61C240.589 185.548 241.033 186.557 241.34 187.61C241.545 188.383 241.705 189.168 241.82 189.96L242.11 191.71C242.46 193.82 242.81 195.93 242.95 198.06C242.99 198.447 242.952 198.838 242.84 199.21C242.41 200.13 241.59 200.21 240.52 200C239.541 199.719 238.692 199.103 238.12 198.26C237.558 197.212 237.154 196.086 236.92 194.92C236.64 193.92 236.34 192.92 236 191.92C235.725 191.025 235.346 190.166 234.87 189.36C234.013 188.164 232.933 187.146 231.69 186.36C230.54 185.56 229.35 184.8 228.13 184.1C226.91 183.4 225.04 182.1 223.89 181.6L220.44 184.27C218.44 181.18 212.16 178.76 212.16 178.76C211.94 171.61 216.72 163.26 224.7 161.6C227.7 164.85 229.14 166.04 231.78 167.6C233.521 168.452 235.307 169.21 237.13 169.87C240.46 171.18 244.58 172.49 246.69 173.56C247.897 174.14 249.013 174.895 250 175.8C252.75 178.12 253.53 178.61 254.35 180.21C254.957 181.723 255.389 183.3 255.64 184.91C255.86 186.23 256.27 188.55 255.93 188.83C255.607 189.022 255.228 189.101 254.855 189.054C254.482 189.007 254.135 188.836 253.87 188.57C253.303 187.982 252.882 187.27 252.64 186.49C252.54 186.29 252.23 185.49 252.05 185.13C252.324 186.336 252.485 187.564 252.53 188.8C252.599 189.937 252.301 191.065 251.68 192.02C251.499 192.232 251.268 192.396 251.008 192.497C250.748 192.599 250.467 192.634 250.19 192.6C250.328 193.542 250.328 194.498 250.19 195.44C250.071 195.64 249.901 195.804 249.697 195.915C249.492 196.026 249.262 196.079 249.03 196.07C248.468 196.106 247.906 195.994 247.4 195.745C246.895 195.495 246.464 195.118 246.15 194.65C245.15 193.21 245.15 191.29 244.6 189.65C243.925 188.224 243.024 186.917 241.93 185.78Z" fill="#455A64"/>
<path d="M250.16 192.6C249.92 191.18 249.75 189.75 249.46 188.34C249.387 188 249.29 187.666 249.17 187.34C249.036 187.013 248.879 186.695 248.7 186.39L247.7 184.49C247.36 183.86 247.01 183.23 246.63 182.62C246.188 182.064 245.674 181.569 245.1 181.15C243.98 180.27 242.82 179.4 241.61 178.63C242.868 179.335 244.072 180.134 245.21 181.02C245.809 181.441 246.347 181.942 246.81 182.51C247.21 183.11 247.56 183.74 247.92 184.37C248.28 185 248.63 185.62 248.92 186.27C249.092 186.595 249.245 186.928 249.38 187.27C249.493 187.617 249.584 187.971 249.65 188.33C249.903 189.742 250.073 191.168 250.16 192.6Z" fill="#263238"/>
<path d="M252 185.13C251.713 184.204 251.362 183.298 250.95 182.42C250.604 181.527 250.06 180.724 249.36 180.07C248.62 179.47 247.82 178.91 247.03 178.33L244.68 176.6C246.361 177.592 247.984 178.681 249.54 179.86C249.93 180.176 250.253 180.567 250.49 181.01C250.734 181.436 250.952 181.877 251.14 182.33C251.517 183.233 251.805 184.171 252 185.13Z" fill="#263238"/>
<path d="M235.62 170.79C233.35 170.79 227.62 175.49 227.72 177.3C227.82 178.91 232.23 182.44 233.62 182C235.01 181.56 241.78 174.8 242.62 173.84C243.46 172.88 236.65 170.81 235.62 170.79Z" fill="#37474F"/>
<path d="M126.19 95.86C122 96.73 103.83 104 99 106.69C98.2293 119.06 99.073 131.478 101.51 143.63C102.44 147.91 105.51 159.75 106.09 168.84C106.82 181.09 106.77 184.04 106.42 190.56C106.42 190.56 114.99 201.08 144.87 198.82C168.34 197.06 175.39 187.42 175.39 187.42C175.39 187.42 175.29 155.76 174.68 138.42C173.87 115.69 166.99 102.58 161.93 98.61L146.53 96.04L126.19 95.86Z" fill="#EBEBEB"/>
<path d="M119.09 98.17L112.09 100.9C117.19 105.42 122.42 121.26 124 131.43L131.27 128.98C129.65 118.81 124.19 102.69 119.09 98.17Z" fill="#455A64"/>
<path d="M159.42 98.22L151.27 96.88C156.37 101.4 161.7 117.2 163.27 127.37L170.75 127.76C169.18 117.59 164.53 102.74 159.42 98.22Z" fill="#455A64"/>
<path d="M116 196.35C119.15 197.08 124.52 194.81 124 178.88C123.48 162.95 120.28 132.52 120.28 132.52C120.28 132.52 135.93 126.58 151.28 125.34C166.63 124.1 173.54 125.54 173.54 125.54C175.67 136.31 175.84 173.92 175.47 192.92C155 205.53 122.45 201.12 116 196.35Z" fill="#37474F"/>
<path d="M135.24 138.18C137.571 137.295 139.964 136.583 142.4 136.05C144.837 135.492 147.304 135.078 149.79 134.81C152.273 134.528 154.772 134.411 157.27 134.46C159.764 134.486 162.252 134.713 164.71 135.14C163.46 135.14 162.23 135.04 160.99 135.14H159.13L157.28 135.21C154.81 135.32 152.34 135.48 149.89 135.77C147.44 136.06 144.99 136.39 142.54 136.77C141.32 136.97 140.1 137.19 138.89 137.44C137.68 137.69 136.46 137.91 135.24 138.18Z" fill="#263238"/>
<path d="M164.71 135.14C164.984 137.102 165.027 139.088 164.84 141.06C164.654 143.081 163.929 145.015 162.74 146.66C161.44 148.247 159.701 149.416 157.74 150.02C155.829 150.632 153.852 151.014 151.85 151.16C149.844 151.312 147.827 151.201 145.85 150.83C143.852 150.477 141.952 149.7 140.28 148.55C138.622 147.384 137.301 145.8 136.45 143.96C135.65 142.138 135.235 140.17 135.23 138.18C135.412 140.127 135.966 142.021 136.86 143.76C137.748 145.467 139.065 146.914 140.68 147.96C143.92 150.05 147.94 150.54 151.77 150.23C153.696 150.125 155.603 149.789 157.45 149.23C159.272 148.688 160.906 147.649 162.17 146.23C163.363 144.721 164.127 142.917 164.38 141.01C164.687 139.069 164.797 137.103 164.71 135.14Z" fill="#263238"/>
<path d="M130.61 135.07C130.61 135.489 130.486 135.899 130.253 136.248C130.02 136.596 129.689 136.868 129.301 137.029C128.914 137.189 128.488 137.231 128.076 137.149C127.665 137.067 127.287 136.866 126.991 136.569C126.694 136.273 126.493 135.895 126.411 135.484C126.329 135.072 126.371 134.646 126.531 134.259C126.692 133.871 126.964 133.54 127.312 133.307C127.661 133.074 128.071 132.95 128.49 132.95C128.769 132.949 129.045 133.003 129.303 133.109C129.561 133.215 129.795 133.371 129.992 133.568C130.189 133.765 130.345 133.999 130.451 134.257C130.557 134.515 130.611 134.791 130.61 135.07Z" fill="#263238"/>
<path d="M169.86 129.88C169.86 130.299 169.736 130.709 169.503 131.058C169.27 131.406 168.939 131.678 168.551 131.839C168.164 131.999 167.738 132.041 167.326 131.959C166.915 131.877 166.537 131.676 166.241 131.379C165.944 131.083 165.743 130.705 165.661 130.294C165.579 129.882 165.621 129.456 165.781 129.069C165.942 128.681 166.214 128.35 166.562 128.117C166.911 127.884 167.321 127.76 167.74 127.76C168.302 127.76 168.841 127.983 169.239 128.381C169.637 128.779 169.86 129.318 169.86 129.88Z" fill="#263238"/>
<path d="M103.17 105C95.41 107.52 91.87 110.25 89 117.46C85.65 125.92 75.56 161.06 74.24 165.84C72.92 170.62 72.63 174.6 77.62 177.84C82.61 181.08 115 191.35 122.15 193.64L130.61 178L100.78 163.79L108.78 140.91C108.78 140.91 116.05 110.6 103.17 105Z" fill="#FFA8A7"/>
<path d="M146.25 202C146.356 202.343 146.552 202.651 146.817 202.892C147.083 203.133 147.409 203.298 147.76 203.37L165.43 205.47C165.955 205.532 166.488 205.491 166.997 205.347C167.506 205.204 167.982 204.962 168.398 204.634C168.813 204.307 169.16 203.901 169.419 203.44C169.677 202.978 169.843 202.47 169.905 201.945C169.967 201.42 169.926 200.887 169.782 200.378C169.639 199.869 169.397 199.393 169.069 198.977C168.742 198.562 168.336 198.215 167.875 197.956C167.413 197.698 166.905 197.532 166.38 197.47L148.72 195.38C148.357 195.368 147.998 195.454 147.681 195.631C147.364 195.807 147.101 196.066 146.92 196.38C146.376 197.199 146.032 198.134 145.916 199.11C145.8 200.086 145.914 201.076 146.25 202Z" fill="#26B600"/>
<path opacity="0.15" d="M146.25 202C145.711 200.545 145.729 198.943 146.3 197.5C145.88 199.5 146.3 200.99 150.3 201.5C154.3 202.01 163.08 203.07 164.78 203.26C166.48 203.45 169.47 203.19 169.78 200.17C170.001 200.753 170.076 201.381 170 202C169.929 202.534 169.753 203.048 169.482 203.513C169.212 203.979 168.852 204.386 168.424 204.712C167.995 205.038 167.507 205.277 166.986 205.413C166.466 205.55 165.923 205.583 165.39 205.51L147.72 203.41C147.371 203.328 147.051 203.154 146.792 202.906C146.533 202.658 146.346 202.345 146.25 202Z" fill="black"/>
<path d="M168.47 200.38C168.2 200.777 168.029 201.233 167.971 201.71C167.914 202.187 167.972 202.67 168.14 203.12C168.194 203.284 168.29 203.43 168.418 203.546C168.546 203.662 168.702 203.742 168.87 203.78L170.2 203.93L170.66 200.06L169.34 199.91C169.167 199.906 168.995 199.948 168.843 200.03C168.69 200.112 168.562 200.233 168.47 200.38Z" fill="#F0F0F0"/>
<path d="M169.48 203.27C169.517 203.441 169.608 203.597 169.738 203.714C169.868 203.832 170.031 203.906 170.206 203.925C170.38 203.945 170.556 203.91 170.709 203.825C170.862 203.74 170.985 203.609 171.06 203.45C171.327 203.053 171.495 202.599 171.551 202.124C171.607 201.649 171.548 201.168 171.38 200.72C171.344 200.548 171.255 200.392 171.126 200.273C170.996 200.154 170.833 200.079 170.658 200.058C170.484 200.037 170.307 200.072 170.153 200.156C169.999 200.241 169.876 200.372 169.8 200.53C169.536 200.93 169.369 201.386 169.314 201.862C169.258 202.338 169.315 202.82 169.48 203.27Z" fill="#E0E0E0"/>
<path d="M169.82 202.81C169.717 202.52 169.683 202.211 169.719 201.905C169.756 201.6 169.862 201.307 170.03 201.05C170.089 200.949 170.176 200.867 170.281 200.815C170.386 200.764 170.504 200.744 170.62 200.76L173.87 201.16C175.331 201.343 176.718 201.907 177.892 202.795C179.066 203.683 179.986 204.864 180.56 206.22L181.51 208.47C182.036 209.715 182.88 210.8 183.958 211.617C185.035 212.433 186.309 212.951 187.65 213.12L190.28 213.45L189.97 215.93L187.34 215.6C185.563 215.375 183.876 214.688 182.448 213.607C181.019 212.526 179.9 211.089 179.2 209.44L178.25 207.19C177.848 206.239 177.203 205.411 176.38 204.788C175.557 204.165 174.584 203.769 173.56 203.64L170.29 203.24C170.18 203.219 170.077 203.167 169.994 203.091C169.912 203.015 169.851 202.918 169.82 202.81Z" fill="#E0E0E0"/>
<path d="M180.14 222.26L192.63 205.75C193.044 205.219 193.642 204.862 194.307 204.749C194.971 204.636 195.653 204.775 196.22 205.14L219.07 217.14C219.371 217.315 219.617 217.572 219.78 217.88C219.83 218 220.01 218.47 220.06 218.58C220.27 219.08 219.91 219.5 218.99 219.67L181.39 224.47C180.66 224.6 180.21 224.47 180.07 224.14C180.01 224.02 179.82 223.55 179.77 223.43C179.65 223.19 179.76 222.77 180.14 222.26Z" fill="#E0E0E0"/>
<path opacity="0.15" d="M180.14 222.26L192.63 205.75C193.044 205.219 193.642 204.862 194.307 204.749C194.971 204.636 195.653 204.775 196.22 205.14L219.07 217.14C219.371 217.315 219.617 217.572 219.78 217.88C219.83 218 220.01 218.47 220.06 218.58C220.27 219.08 219.91 219.5 218.99 219.67L181.39 224.47C180.66 224.6 180.21 224.47 180.07 224.14C180.01 224.02 179.82 223.55 179.77 223.43C179.65 223.19 179.76 222.77 180.14 222.26Z" fill="black"/>
<path d="M192.63 205.75L180.14 222.26C179.31 223.37 179.74 224.06 181.14 223.81L218.74 219.01C220.1 218.76 220.27 217.94 219.12 217.18L196.27 205.18C195.704 204.796 195.013 204.642 194.338 204.748C193.662 204.853 193.052 205.212 192.63 205.75Z" fill="#FAFAFA"/>
<path d="M194.77 205C195.247 204.997 195.713 205.136 196.11 205.4L218.93 217.4C219.38 217.7 219.63 218.02 219.58 218.25C219.53 218.48 219.18 218.68 218.66 218.77L181.05 223.57C180.898 223.6 180.744 223.617 180.59 223.62C180.41 223.62 180.09 223.62 180 223.4C179.91 223.18 180 222.84 180.34 222.4L192.83 205.89C193.058 205.592 193.351 205.351 193.688 205.187C194.025 205.022 194.395 204.937 194.77 204.94V205ZM194.77 204.69C194.36 204.681 193.954 204.767 193.583 204.94C193.212 205.114 192.886 205.37 192.63 205.69L180.14 222.2C179.42 223.2 179.64 223.8 180.59 223.8C180.758 223.797 180.925 223.78 181.09 223.75L218.69 218.95C220.05 218.7 220.22 217.88 219.07 217.12L196.22 205.12C195.79 204.837 195.285 204.687 194.77 204.69Z" fill="#E0E0E0"/>
<path d="M121.37 171.34C125.17 173.98 128.37 176.12 131.37 177.16C142.15 180.91 144.45 181.87 148.31 184.7C151 186.7 163.88 203.07 162.91 205.17C161.94 207.27 157.98 206.32 156.03 204.89C154.078 203.273 152.224 201.54 150.48 199.7C150.48 199.7 153.04 204.12 150.95 205.7C148.15 207.83 146.65 205.7 146.65 205.7C146.65 205.7 147.82 207.7 145.21 208.95C144.528 209.328 143.737 209.46 142.969 209.326C142.201 209.191 141.503 208.797 140.99 208.21C140.99 208.21 142.22 210.78 138.48 211.36C135 211.9 129.92 203.79 127.63 198.74C125.34 193.69 114.39 193.14 114.39 193.14C111.45 186.9 113.41 174.72 121.37 171.34Z" fill="#455A64"/>
<path d="M141 208.2C140.087 207.228 139.493 206 139.3 204.68C139.757 205.158 140.132 205.709 140.41 206.31C140.708 206.904 140.907 207.542 141 208.2Z" fill="#263238"/>
<path d="M146.65 205.69C145.593 204.536 144.856 203.126 144.51 201.6C145.044 202.168 145.492 202.812 145.84 203.51C146.213 204.194 146.486 204.928 146.65 205.69Z" fill="#263238"/>
<path d="M133.59 183.19C132.43 183.48 128.14 190.74 128.03 191.66C127.92 192.58 130.15 196.66 130.92 197.89C131.69 199.12 143.04 185.45 141.05 184.52C138.686 183.552 136.143 183.099 133.59 183.19Z" fill="#37474F"/>
<path d="M150.48 199.7C150.007 199.392 149.6 198.995 149.28 198.53C148.949 198.073 148.708 197.557 148.57 197.01C149.043 197.318 149.45 197.715 149.77 198.18C150.101 198.637 150.342 199.153 150.48 199.7Z" fill="#263238"/>
<path d="M144.16 185.63C143.911 185.778 143.694 185.975 143.522 186.209C143.351 186.442 143.227 186.708 143.16 186.99C143.02 187.72 143.08 188.54 142.27 188.84C141.739 188.973 141.231 189.181 140.76 189.46C140.218 189.834 139.809 190.369 139.59 190.99C139.486 191.297 139.423 191.617 139.4 191.94C139.426 192.138 139.392 192.338 139.303 192.516C139.214 192.695 139.073 192.842 138.9 192.94C138.6 193.14 138.26 193.29 137.9 193.46C137.628 193.623 137.364 193.8 137.11 193.99C136.574 194.391 136.162 194.935 135.92 195.56C135.7 196.13 135.84 196.77 135.6 197.3C135.26 198.05 134.24 197.99 133.54 198.17C132.976 198.298 132.449 198.555 132 198.92C131.941 198.96 131.89 199.011 131.85 199.07C131.85 199.12 131.75 199.31 131.85 199.3H131.9C132.205 199.077 132.542 198.902 132.9 198.78C133.163 198.684 133.434 198.614 133.71 198.57C133.973 198.555 134.237 198.555 134.5 198.57C134.755 198.543 135.006 198.489 135.25 198.41C135.487 198.344 135.706 198.224 135.89 198.06C136.216 197.658 136.374 197.146 136.33 196.63C136.426 195.892 136.78 195.212 137.33 194.71C137.85 194.251 138.433 193.867 139.06 193.57C139.308 193.469 139.526 193.304 139.689 193.091C139.853 192.878 139.956 192.626 139.99 192.36C140.012 191.583 140.334 190.844 140.89 190.3C141.137 190.068 141.417 189.872 141.72 189.72C142.07 189.57 142.45 189.51 142.79 189.33C143.37 189.02 143.4 188.44 143.46 187.84C143.449 187.099 143.725 186.382 144.23 185.84C144.23 185.84 144.21 185.6 144.16 185.63Z" fill="#37474F"/>
<path d="M103.84 104.35C94.73 107.51 91.38 109.97 88.07 117.91C83.94 127.81 78.33 149.54 76.92 153.63C73.42 158.63 74.24 165.8 74.24 165.8C74.24 165.8 87.9 156.4 100.78 163.75C100.78 163.75 107.78 145.38 109.34 141.87C110.9 138.36 117.63 112.05 103.84 104.35Z" fill="#E0E0E0"/>
<path opacity="0.1" d="M100.35 157.41C97.7796 154.904 94.4821 153.277 90.93 152.76C87.0333 152.123 83.0379 152.516 79.34 153.9C79.34 153.9 79.34 154.01 79.34 154C81.2632 153.54 83.219 153.229 85.19 153.07C87.2171 152.939 89.2526 153.06 91.25 153.43C92.9368 153.756 94.5785 154.283 96.14 155C97.6016 155.725 98.9797 156.606 100.25 157.63C100.38 157.75 100.42 157.49 100.35 157.41ZM92.69 157C90.2086 156.298 87.5887 156.243 85.08 156.84V156.91C87.6666 156.71 90.2685 156.94 92.78 157.59C94.0119 157.936 95.2049 158.409 96.34 159C97.44 159.57 98.44 160.3 99.5 160.93C99.59 160.99 99.62 160.79 99.58 160.74C97.6654 158.891 95.2836 157.598 92.69 157Z" fill="black"/>
<path d="M112.47 66.3C112.47 67.12 115.73 68.3 115.73 68.3L114.15 63.54L112.47 66.3Z" fill="#26B600"/>
<path opacity="0.3" d="M112.47 66.3C112.47 67.12 115.73 68.3 115.73 68.3L114.15 63.54L112.47 66.3Z" fill="black"/>
<path d="M120.08 47.3C120.08 47.3 116.46 47.57 114.08 52.13C112.89 54.43 112.08 58.61 115.3 70.56C116.545 75.2151 118.48 79.6576 121.04 83.74C121.791 85.0585 123.018 86.0391 124.47 86.48L124.24 77.3L123.89 70.9C123.89 70.9 129.05 66.21 129.5 61.61C130.07 55.69 127.76 52.34 127.76 52.34L120.08 47.3Z" fill="#37474F"/>
<path d="M118.83 47.61C119.72 42.44 126.27 36.28 138.9 35.61C149.25 35.05 155.31 38.61 158.9 44.61C162.49 50.61 160.13 58.46 160.13 58.46L127.61 56.34L118.83 47.61Z" fill="#37474F"/>
<path d="M115.85 80C120.61 82.32 122.78 78.55 122.78 78.55L123.5 97.49C132.63 109.72 157.02 105.3 147.02 96.15V91.82C148.401 91.7905 149.779 91.6568 151.14 91.42C155.35 90.76 158 87.42 159.25 82.85C161.1 76.09 161.83 65.29 159.25 53.85C158.76 51.63 157.8 49.2 155.76 48.2C150.7 45.7 146.03 49.3 138.98 52.05C136.06 53.19 128.98 53.69 127.12 52.81C129.6 55.46 129.58 64 126 67.51C125.546 68.4037 124.929 69.2043 124.18 69.87C122.64 71.21 121.38 67.75 120.09 66.4C119.461 65.87 118.718 65.4935 117.919 65.3003C117.12 65.1071 116.287 65.1024 115.485 65.2867C114.684 65.471 113.937 65.8392 113.302 66.3622C112.668 66.8852 112.164 67.5486 111.83 68.3C111.31 69.3292 111.001 70.4522 110.922 71.6028C110.842 72.7534 110.995 73.9081 111.37 74.9988C111.744 76.0895 112.334 77.094 113.103 77.953C113.873 78.812 114.807 79.508 115.85 80Z" fill="#FFA8A7"/>
<path d="M147 91.8C141.47 91.8 136.56 91.09 133.3 89.71C130.04 88.33 127.14 83.93 126.2 79.55C126.2 83.07 127.74 89.32 132.69 91.91C137.64 94.5 143.39 94.65 147.01 94.73L147 91.8Z" fill="#F28F8F"/>
<path d="M128.06 64C126.77 66.57 128.25 74.67 130.67 75.69C133.09 76.71 135.67 75.05 141.15 74.69C145.277 74.3757 149.428 74.7132 153.45 75.69C155.93 76.37 160.45 77.5 160.61 75C160.46 81.18 159.23 88.2 154.78 90.46C150.33 92.72 138.78 93.25 132.86 90.15C126.94 87.05 125.86 83.5 124.73 78.66C123.926 75.271 122.924 71.932 121.73 68.66L128.06 64Z" fill="#37474F"/>
<path d="M139 59L134.33 61C134.078 60.3622 134.083 59.6517 134.344 59.0177C134.605 58.3837 135.102 57.8755 135.73 57.6C136.036 57.4709 136.365 57.4048 136.697 57.4056C137.029 57.4065 137.357 57.4743 137.663 57.605C137.968 57.7357 138.244 57.9266 138.473 58.1663C138.703 58.4059 138.882 58.6895 139 59Z" fill="#37474F"/>
<path d="M156.51 58.91L151.76 57C151.87 56.6861 152.042 56.3977 152.266 56.1523C152.491 55.9069 152.763 55.7095 153.066 55.5721C153.368 55.4347 153.696 55.3601 154.028 55.3529C154.361 55.3456 154.691 55.4059 155 55.53C155.636 55.793 156.148 56.2901 156.429 56.9189C156.71 57.5478 156.739 58.2604 156.51 58.91Z" fill="#37474F"/>
<path d="M136.18 64.9C136.194 65.3091 136.329 65.7048 136.568 66.0371C136.807 66.3695 137.139 66.6235 137.522 66.7672C137.906 66.9108 138.323 66.9376 138.721 66.8442C139.12 66.7508 139.482 66.5413 139.761 66.2423C140.041 65.9432 140.225 65.568 140.291 65.1641C140.358 64.7602 140.303 64.3457 140.134 63.9731C139.964 63.6004 139.688 63.2862 139.341 63.0703C138.993 62.8544 138.589 62.7464 138.18 62.76C137.908 62.769 137.641 62.8316 137.393 62.944C137.145 63.0565 136.922 63.2167 136.736 63.4154C136.551 63.6142 136.406 63.8476 136.31 64.1023C136.215 64.3571 136.171 64.6281 136.18 64.9Z" fill="#263238"/>
<path d="M152.53 64.05C152.544 64.4591 152.679 64.8548 152.918 65.1871C153.157 65.5195 153.489 65.7735 153.872 65.9172C154.256 66.0608 154.673 66.0876 155.071 65.9942C155.47 65.9008 155.832 65.6913 156.111 65.3923C156.391 65.0932 156.575 64.718 156.641 64.3141C156.708 63.9102 156.653 63.4957 156.484 63.1231C156.314 62.7504 156.038 62.4362 155.691 62.2203C155.343 62.0044 154.939 61.8964 154.53 61.91C154.25 61.8911 153.97 61.9347 153.709 62.0377C153.448 62.1406 153.213 62.3003 153.022 62.5052C152.831 62.7101 152.687 62.955 152.602 63.2222C152.517 63.4894 152.492 63.7721 152.53 64.05Z" fill="#263238"/>
<path d="M144.78 60.31L146.48 73.46L153.48 70.9C151.408 66.7638 148.435 63.145 144.78 60.31Z" fill="#F28F8F"/>
<path d="M141.92 76.8L147.29 78.57C147.189 78.9306 147.017 79.2673 146.783 79.5597C146.55 79.8521 146.259 80.0943 145.93 80.2717C145.6 80.4491 145.238 80.5582 144.865 80.5922C144.492 80.6263 144.116 80.5847 143.76 80.47C143.044 80.2067 142.456 79.6807 142.114 78.999C141.772 78.3173 141.703 77.531 141.92 76.8Z" fill="#B16668"/>
<path d="M142.48 77.77C142.257 77.722 142.029 77.6985 141.8 77.7C141.802 78.3129 141.996 78.9098 142.354 79.4067C142.713 79.9036 143.219 80.2755 143.8 80.47C144.091 80.5621 144.395 80.606 144.7 80.6C144.769 79.9326 144.575 79.2646 144.161 78.7368C143.747 78.2089 143.144 77.8623 142.48 77.77Z" fill="#F28F8F"/>
<path d="M110.35 59.52C110.716 61.8726 111.431 64.1577 112.47 66.3C112.996 65.6055 113.557 64.938 114.15 64.3C117.636 60.6271 121.73 57.5825 126.25 55.3C136.78 49.81 149.89 47.38 160.61 49.53C160.113 47.5462 159.349 45.6388 158.34 43.86C155.749 39.338 151.837 35.7163 147.129 33.4804C142.421 31.2444 137.142 30.5011 132 31.35C118 33.51 108.29 46.12 110.35 59.52Z" fill="#26B600"/>
<path d="M120.12 34.45C121.37 33.78 127.72 31.53 128.23 31.35C131.53 30.17 136.9 29.91 142.65 33.91C147.106 37.0287 150.396 41.5431 152 46.74L145.25 49.22L143.07 49.55C142 44.78 134.8 34.78 125.45 35C125.008 34.9988 124.567 35.0323 124.13 35.1C122.898 35.2291 121.692 35.5391 120.55 36.02C119.331 36.9452 118.172 37.9472 117.08 39.02C117.146 38.0598 117.461 37.1334 117.994 36.3321C118.527 35.5307 119.26 34.882 120.12 34.45Z" fill="#26B600"/>
<path opacity="0.45" d="M120.12 34.45C121.37 33.78 127.72 31.53 128.23 31.35C131.53 30.17 136.9 29.91 142.65 33.91C147.106 37.0287 150.396 41.5431 152 46.74L145.25 49.22L143.07 49.55C142 44.78 134.8 34.78 125.45 35C125.008 34.9988 124.567 35.0323 124.13 35.1C122.898 35.2291 121.692 35.5391 120.55 36.02C119.331 36.9452 118.172 37.9472 117.08 39.02C117.146 38.0598 117.461 37.1334 117.994 36.3321C118.527 35.5307 119.26 34.882 120.12 34.45Z" fill="white"/>
<path d="M143.07 49.56C141.82 44 132.17 31.25 120.56 36C119.335 36.9264 118.17 37.9283 117.07 39C117.148 38.0456 117.469 37.1272 118.003 36.3323C118.537 35.5375 119.266 34.8929 120.12 34.46C123.12 32.86 129.26 31.78 135.91 36.41C140.36 39.5261 143.643 44.0375 145.24 49.23L143.07 49.56Z" fill="#26B600"/>
<path opacity="0.3" d="M143.07 49.56C141.82 44 132.17 31.25 120.56 36C119.335 36.9264 118.17 37.9283 117.07 39C117.148 38.0456 117.469 37.1272 118.003 36.3323C118.537 35.5375 119.266 34.8929 120.12 34.46C123.12 32.86 129.26 31.78 135.91 36.41C140.36 39.5261 143.643 44.0375 145.24 49.23L143.07 49.56Z" fill="black"/>
<path d="M126 53.33C126.47 52.88 128.6 47.81 136.89 42.94C142 39.94 152.76 39.13 157.6 38.94C166.06 38.55 168.17 40.15 168.34 41.34C168.34 41.62 168.57 42.92 168.62 43.22C168.672 43.4872 168.626 43.7641 168.49 44C167.32 45.91 160.65 49.51 160.65 49.51C149.93 47.36 136.82 49.79 126.29 55.28L126 53.33Z" fill="#26B600"/>
<path opacity="0.15" d="M126 53.33C126.47 52.88 128.6 47.81 136.89 42.94C142 39.94 152.76 39.13 157.6 38.94C166.06 38.55 168.17 40.15 168.34 41.34C168.34 41.62 168.57 42.92 168.62 43.22C168.672 43.4872 168.626 43.7641 168.49 44C167.32 45.91 160.65 49.51 160.65 49.51C149.93 47.36 136.82 49.79 126.29 55.28L126 53.33Z" fill="black"/>
<path d="M126.27 55.25C136.8 49.76 149.91 47.33 160.63 49.48C160.63 49.48 167.3 45.88 168.47 43.97C169.09 42.91 168.34 40.35 157.87 40.83C153.04 41.05 142.27 41.83 137.16 44.83C128.87 49.73 126.75 54.8 126.27 55.25Z" fill="#26B600"/>
<path opacity="0.3" d="M126.27 55.25C136.8 49.76 149.91 47.33 160.63 49.48C160.63 49.48 167.3 45.88 168.47 43.97C169.09 42.91 168.34 40.35 157.87 40.83C153.04 41.05 142.27 41.83 137.16 44.83C128.87 49.73 126.75 54.8 126.27 55.25Z" fill="black"/>
<path d="M387.23 298.59V87.5L382.51 84.75L326.3 117.22L323.98 118.59L279.54 198.31L124.95 287.63V442.84L129.66 447.24L387.23 298.59Z" fill="#F0F0F0"/>
<path d="M354.45 295.81L387.25 276.88L389.53 278.2V299.82L356.74 318.75L354.45 317.44V295.81Z" fill="#F4B313"/>
<path opacity="0.1" d="M354.45 295.81L387.25 276.88L389.53 278.2V299.82L356.74 318.75L354.45 317.44V295.81Z" fill="black"/>
<path d="M389.53 299.82L356.74 318.75V297.13L389.53 278.2V299.82Z" fill="#F4B313"/>
<path opacity="0.25" d="M389.53 299.82L356.74 318.75V297.13L389.53 278.2V299.82Z" fill="white"/>
<path opacity="0.1" d="M354.45 295.81L356.74 297.13V318.75L354.45 317.44V295.81Z" fill="black"/>
<path d="M317 317.44L349.79 298.5L352.07 299.82V321.45L319.28 340.38L317 339.06V317.44Z" fill="#F4B313"/>
<path opacity="0.1" d="M317 317.44L349.79 298.5L352.07 299.82V321.45L319.28 340.38L317 339.06V317.44Z" fill="black"/>
<path d="M352.07 321.45L319.28 340.38V318.75L352.07 299.82V321.45Z" fill="#F4B313"/>
<path opacity="0.25" d="M352.07 321.45L319.28 340.38V318.75L352.07 299.82V321.45Z" fill="white"/>
<path opacity="0.1" d="M317 317.44L319.28 318.75V340.38L317 339.06V317.44Z" fill="black"/>
<path d="M279.54 339.06L312.33 320.13L314.62 321.45V343.07L281.83 362.01L279.54 360.69V339.06Z" fill="#F4B313"/>
<path opacity="0.1" d="M279.54 339.06L312.33 320.13L314.62 321.45V343.07L281.83 362.01L279.54 360.69V339.06Z" fill="black"/>
<path d="M314.62 343.07L281.83 362.01V340.38L314.62 321.45V343.07Z" fill="#F4B313"/>
<path opacity="0.25" d="M314.62 343.07L281.83 362.01V340.38L314.62 321.45V343.07Z" fill="white"/>
<path opacity="0.1" d="M279.54 339.06L281.83 340.38V362.01L279.54 360.69V339.06Z" fill="black"/>
<path d="M242.08 360.69L274.87 341.75L277.16 343.07V364.7L244.37 383.63L242.08 382.31V360.69Z" fill="#F4B313"/>
<path opacity="0.1" d="M242.08 360.69L274.87 341.75L277.16 343.07V364.7L244.37 383.63L242.08 382.31V360.69Z" fill="black"/>
<path d="M277.16 364.7L244.37 383.63V362.01L277.16 343.07V364.7Z" fill="#F4B313"/>
<path opacity="0.25" d="M277.16 364.7L244.37 383.63V362.01L277.16 343.07V364.7Z" fill="white"/>
<path opacity="0.1" d="M242.08 360.69L244.37 362.01V383.63L242.08 382.31V360.69Z" fill="black"/>
<path d="M204.63 382.31L237.42 363.38L239.7 364.7V386.32L206.91 405.26L204.63 403.94V382.31Z" fill="#F4B313"/>
<path opacity="0.1" d="M204.63 382.31L237.42 363.38L239.7 364.7V386.32L206.91 405.26L204.63 403.94V382.31Z" fill="black"/>
<path d="M239.7 386.32L206.91 405.26V383.63L239.7 364.7V386.32Z" fill="#F4B313"/>
<path opacity="0.25" d="M239.7 386.32L206.91 405.26V383.63L239.7 364.7V386.32Z" fill="white"/>
<path opacity="0.1" d="M204.63 382.31L206.91 383.63V405.26L204.63 403.94V382.31Z" fill="black"/>
<path d="M167.17 403.94L199.96 385L202.25 386.33V407.95L169.46 426.88L167.17 425.56V403.94Z" fill="#F4B313"/>
<path opacity="0.1" d="M167.17 403.94L199.96 385L202.25 386.33V407.95L169.46 426.88L167.17 425.56V403.94Z" fill="black"/>
<path d="M202.25 407.95L169.46 426.88V405.26L202.25 386.32V407.95Z" fill="#F4B313"/>
<path opacity="0.25" d="M202.25 407.95L169.46 426.88V405.26L202.25 386.32V407.95Z" fill="white"/>
<path opacity="0.1" d="M167.17 403.94L169.46 405.26V426.88L167.17 425.56V403.94Z" fill="black"/>
<path d="M129.71 425.56L162.5 406.63L164.79 407.95V429.58L132 448.51L129.71 447.19V425.56Z" fill="#F4B313"/>
<path opacity="0.1" d="M129.71 425.56L162.5 406.63L164.79 407.95V429.58L132 448.51L129.71 447.19V425.56Z" fill="black"/>
<path d="M164.79 429.58L132 448.51V426.88L164.79 407.95V429.58Z" fill="#F4B313"/>
<path opacity="0.25" d="M164.79 429.58L132 448.51V426.88L164.79 407.95V429.58Z" fill="white"/>
<path opacity="0.1" d="M129.71 425.56L132 426.88V448.51L129.71 447.19V425.56Z" fill="black"/>
<path d="M132 426.87V448.51L122.66 443.09V421.44L132 426.87Z" fill="#F4B313"/>
<path opacity="0.2" d="M132 426.87V448.51L122.66 443.09V421.44L132 426.87Z" fill="black"/>
<path d="M124.95 420.12L134.28 425.56L132 426.88L122.66 421.44L124.95 420.12Z" fill="#F4B313"/>
<path opacity="0.1" d="M124.95 420.12L134.28 425.56L132 426.88L122.66 421.44L124.95 420.12Z" fill="black"/>
<path d="M129.72 398.51L141.4 391.75L143.68 393.07V414.69L132 421.46L129.72 420.14V398.51Z" fill="#F4B313"/>
<path opacity="0.1" d="M129.72 398.51L141.4 391.75L143.68 393.07V414.69L132 421.46L129.72 420.14V398.51Z" fill="black"/>
<path d="M143.68 414.69L132 421.46V399.84L143.68 393.07V414.69Z" fill="#F4B313"/>
<path opacity="0.25" d="M143.68 414.69L132 421.46V399.84L143.68 393.07V414.69Z" fill="white"/>
<path opacity="0.1" d="M129.72 398.51L132 399.84V421.46L129.72 420.14V398.51Z" fill="black"/>
<path d="M333.35 280.98L366.14 262.05L368.43 263.37V285L335.63 303.93L333.35 302.61V280.98Z" fill="#F4B313"/>
<path opacity="0.1" d="M333.35 280.98L366.14 262.05L368.43 263.37V285L335.63 303.93L333.35 302.61V280.98Z" fill="black"/>
<path d="M368.43 285L335.63 303.93V282.3L368.43 263.37V285Z" fill="#F4B313"/>
<path opacity="0.25" d="M368.43 285L335.63 303.93V282.3L368.43 263.37V285Z" fill="white"/>
<path opacity="0.1" d="M333.35 280.98L335.63 282.3V303.93L333.35 302.61V280.98Z" fill="black"/>
<path d="M295.89 302.61L328.68 283.68L330.97 285V306.62L298.18 325.56L295.89 324.23V302.61Z" fill="#F4B313"/>
<path opacity="0.1" d="M295.89 302.61L328.68 283.68L330.97 285V306.62L298.18 325.56L295.89 324.23V302.61Z" fill="black"/>
<path d="M330.97 306.62L298.18 325.56V303.93L330.97 285V306.62Z" fill="#F4B313"/>
<path opacity="0.25" d="M330.97 306.62L298.18 325.56V303.93L330.97 285V306.62Z" fill="white"/>
<path opacity="0.1" d="M295.89 302.61L298.18 303.93V325.56L295.89 324.23V302.61Z" fill="black"/>
<path d="M258.43 324.23L291.23 305.3L293.51 306.62V328.25L260.72 347.18L258.43 345.86V324.23Z" fill="#F4B313"/>
<path opacity="0.1" d="M258.43 324.23L291.23 305.3L293.51 306.62V328.25L260.72 347.18L258.43 345.86V324.23Z" fill="black"/>
<path d="M293.51 328.25L260.72 347.18V325.56L293.51 306.62V328.25Z" fill="#F4B313"/>
<path opacity="0.25" d="M293.51 328.25L260.72 347.18V325.56L293.51 306.62V328.25Z" fill="white"/>
<path opacity="0.1" d="M258.43 324.23L260.72 325.56V347.18L258.43 345.86V324.23Z" fill="black"/>
<path d="M220.97 345.86L253.77 326.93L256.06 328.25V349.87L223.26 368.81L220.97 367.49V345.86Z" fill="#F4B313"/>
<path opacity="0.1" d="M220.97 345.86L253.77 326.93L256.06 328.25V349.87L223.26 368.81L220.97 367.49V345.86Z" fill="black"/>
<path d="M256.06 349.87L223.26 368.81V347.18L256.06 328.25V349.87Z" fill="#F4B313"/>
<path opacity="0.25" d="M256.06 349.87L223.26 368.81V347.18L256.06 328.25V349.87Z" fill="white"/>
<path opacity="0.1" d="M220.97 345.86L223.26 347.18V368.81L220.97 367.49V345.86Z" fill="black"/>
<path d="M183.52 367.49L216.31 348.55L218.6 349.87V371.5L185.81 390.43L183.52 389.11V367.49Z" fill="#F4B313"/>
<path opacity="0.1" d="M183.52 367.49L216.31 348.55L218.6 349.87V371.5L185.81 390.43L183.52 389.11V367.49Z" fill="black"/>
<path d="M218.6 371.5L185.81 390.43V368.81L218.6 349.87V371.5Z" fill="#F4B313"/>
<path opacity="0.25" d="M218.6 371.5L185.81 390.43V368.81L218.6 349.87V371.5Z" fill="white"/>
<path opacity="0.1" d="M183.52 367.49L185.81 368.81V390.43L183.52 389.11V367.49Z" fill="black"/>
<path d="M146.06 389.11L178.85 370.18L181.14 371.5V393.13L148.35 412.06L146.06 410.74V389.11Z" fill="#F4B313"/>
<path opacity="0.1" d="M146.06 389.11L178.85 370.18L181.14 371.5V393.13L148.35 412.06L146.06 410.74V389.11Z" fill="black"/>
<path d="M181.14 393.13L148.35 412.06V390.43L181.14 371.5V393.13Z" fill="#F4B313"/>
<path opacity="0.25" d="M181.14 393.13L148.35 412.06V390.43L181.14 371.5V393.13Z" fill="white"/>
<path opacity="0.1" d="M146.06 389.11L148.35 390.43V412.06L146.06 410.74V389.11Z" fill="black"/>
<path d="M370.8 259.36L387.2 249.89L389.49 251.21V272.84L373.09 282.3L370.8 280.98V259.36Z" fill="#F4B313"/>
<path opacity="0.1" d="M370.8 259.36L387.2 249.89L389.49 251.21V272.84L373.09 282.3L370.8 280.98V259.36Z" fill="black"/>
<path d="M389.49 272.84L373.09 282.3V260.68L389.49 251.21V272.84Z" fill="#F4B313"/>
<path opacity="0.25" d="M389.49 272.84L373.09 282.3V260.68L389.49 251.21V272.84Z" fill="white"/>
<path opacity="0.1" d="M370.8 259.36L373.09 260.68V282.3L370.8 280.98V259.36Z" fill="black"/>
<path d="M132 399.82V421.46L122.67 416.04V394.39L132 399.82Z" fill="#F4B313"/>
<path opacity="0.2" d="M132 399.82V421.46L122.67 416.04V394.39L132 399.82Z" fill="black"/>
<path d="M124.95 393.07L134.29 398.51L132 399.84L122.67 394.39L124.95 393.07Z" fill="#F4B313"/>
<path opacity="0.1" d="M124.95 393.07L134.29 398.51L132 399.84L122.67 394.39L124.95 393.07Z" fill="black"/>
<path d="M354.45 241.74L387.25 222.81L389.53 224.13V245.76L356.74 264.69L354.45 263.37V241.74Z" fill="#F4B313"/>
<path opacity="0.1" d="M354.45 241.74L387.25 222.81L389.53 224.13V245.76L356.74 264.69L354.45 263.37V241.74Z" fill="black"/>
<path d="M389.53 245.76L356.74 264.69V243.06L389.53 224.13V245.76Z" fill="#F4B313"/>
<path opacity="0.25" d="M389.53 245.76L356.74 264.69V243.06L389.53 224.13V245.76Z" fill="white"/>
<path opacity="0.1" d="M354.45 241.74L356.74 243.06V264.69L354.45 263.37V241.74Z" fill="black"/>
<path d="M317 263.37L349.79 244.44L352.07 245.76V267.38L319.28 286.32L317 285V263.37Z" fill="#F4B313"/>
<path opacity="0.1" d="M317 263.37L349.79 244.44L352.07 245.76V267.38L319.28 286.32L317 285V263.37Z" fill="black"/>
<path d="M352.07 267.38L319.28 286.32V264.69L352.07 245.76V267.38Z" fill="#F4B313"/>
<path opacity="0.25" d="M352.07 267.38L319.28 286.32V264.69L352.07 245.76V267.38Z" fill="white"/>
<path opacity="0.1" d="M317 263.37L319.28 264.69V286.32L317 285V263.37Z" fill="black"/>
<path d="M279.54 285L312.33 266.06L314.62 267.38V289.01L281.83 307.94L279.54 306.62V285Z" fill="#F4B313"/>
<path opacity="0.1" d="M279.54 285L312.33 266.06L314.62 267.38V289.01L281.83 307.94L279.54 306.62V285Z" fill="black"/>
<path d="M314.62 289.01L281.83 307.94V286.32L314.62 267.38V289.01Z" fill="#F4B313"/>
<path opacity="0.25" d="M314.62 289.01L281.83 307.94V286.32L314.62 267.38V289.01Z" fill="white"/>
<path opacity="0.1" d="M279.54 285L281.83 286.32V307.94L279.54 306.62V285Z" fill="black"/>
<path d="M242.08 306.62L274.87 287.69L277.16 289.01V310.63L244.37 329.57L242.08 328.25V306.62Z" fill="#F4B313"/>
<path opacity="0.1" d="M242.08 306.62L274.87 287.69L277.16 289.01V310.63L244.37 329.57L242.08 328.25V306.62Z" fill="black"/>
<path d="M277.16 310.63L244.37 329.57V307.94L277.16 289.01V310.63Z" fill="#F4B313"/>
<path opacity="0.25" d="M277.16 310.63L244.37 329.57V307.94L277.16 289.01V310.63Z" fill="white"/>
<path opacity="0.1" d="M242.08 306.62L244.37 307.94V329.57L242.08 328.25V306.62Z" fill="black"/>
<path d="M204.63 328.25L237.42 309.31L239.7 310.63V332.26L206.91 351.19L204.63 349.87V328.25Z" fill="#F4B313"/>
<path opacity="0.1" d="M204.63 328.25L237.42 309.31L239.7 310.63V332.26L206.91 351.19L204.63 349.87V328.25Z" fill="black"/>
<path d="M239.7 332.26L206.91 351.19V329.57L239.7 310.63V332.26Z" fill="#F4B313"/>
<path opacity="0.25" d="M239.7 332.26L206.91 351.19V329.57L239.7 310.63V332.26Z" fill="white"/>
<path opacity="0.1" d="M204.63 328.25L206.91 329.57V351.19L204.63 349.87V328.25Z" fill="black"/>
<path d="M167.17 349.87L199.96 330.94L202.25 332.26V353.89L169.46 372.82L167.17 371.5V349.87Z" fill="#F4B313"/>
<path opacity="0.1" d="M167.17 349.87L199.96 330.94L202.25 332.26V353.89L169.46 372.82L167.17 371.5V349.87Z" fill="black"/>
<path d="M202.25 353.89L169.46 372.82V351.19L202.25 332.26V353.89Z" fill="#F4B313"/>
<path opacity="0.25" d="M202.25 353.89L169.46 372.82V351.19L202.25 332.26V353.89Z" fill="white"/>
<path opacity="0.1" d="M167.17 349.87L169.46 351.19V372.82L167.17 371.5V349.87Z" fill="black"/>
<path d="M129.71 371.5L162.5 352.56L164.79 353.89V375.51L132 394.44L129.71 393.12V371.5Z" fill="#F4B313"/>
<path opacity="0.1" d="M129.71 371.5L162.5 352.56L164.79 353.89V375.51L132 394.44L129.71 393.12V371.5Z" fill="black"/>
<path d="M164.79 375.51L132 394.44V372.82L164.79 353.89V375.51Z" fill="#F4B313"/>
<path opacity="0.25" d="M164.79 375.51L132 394.44V372.82L164.79 353.89V375.51Z" fill="white"/>
<path opacity="0.1" d="M129.71 371.5L132 372.82V394.44L129.71 393.12V371.5Z" fill="black"/>
<path d="M132 372.8V394.44L122.66 389.02V367.38L132 372.8Z" fill="#F4B313"/>
<path opacity="0.2" d="M132 372.8V394.44L122.66 389.02V367.38L132 372.8Z" fill="black"/>
<path d="M124.95 366.06L134.29 371.5L132 372.82L122.66 367.38L124.95 366.06Z" fill="#F4B313"/>
<path opacity="0.1" d="M124.95 366.06L134.29 371.5L132 372.82L122.66 367.38L124.95 366.06Z" fill="black"/>
<path d="M129.72 344.38L141.4 337.61L143.68 338.94V360.56L132 367.33L129.72 366.01V344.38Z" fill="#F4B313"/>
<path opacity="0.1" d="M129.72 344.38L141.4 337.61L143.68 338.94V360.56L132 367.33L129.72 366.01V344.38Z" fill="black"/>
<path d="M143.68 360.56L132 367.33V345.7L143.68 338.94V360.56Z" fill="#F4B313"/>
<path opacity="0.25" d="M143.68 360.56L132 367.33V345.7L143.68 338.94V360.56Z" fill="white"/>
<path opacity="0.1" d="M129.72 344.38L132 345.7V367.33L129.72 366.01V344.38Z" fill="black"/>
<path d="M333.35 226.85L366.14 207.92L368.43 209.24V230.87L335.63 249.8L333.35 248.48V226.85Z" fill="#F4B313"/>
<path opacity="0.1" d="M333.35 226.85L366.14 207.92L368.43 209.24V230.87L335.63 249.8L333.35 248.48V226.85Z" fill="black"/>
<path d="M368.43 230.87L335.63 249.8V228.17L368.43 209.24V230.87Z" fill="#F4B313"/>
<path opacity="0.25" d="M368.43 230.87L335.63 249.8V228.17L368.43 209.24V230.87Z" fill="white"/>
<path opacity="0.1" d="M333.35 226.85L335.63 228.17V249.8L333.35 248.48V226.85Z" fill="black"/>
<path d="M295.89 248.48L328.68 229.54L330.97 230.87V252.49L298.18 271.42L295.89 270.1V248.48Z" fill="#F4B313"/>
<path opacity="0.1" d="M295.89 248.48L328.68 229.54L330.97 230.87V252.49L298.18 271.42L295.89 270.1V248.48Z" fill="black"/>
<path d="M330.97 252.49L298.18 271.42V249.8L330.97 230.87V252.49Z" fill="#F4B313"/>
<path opacity="0.25" d="M330.97 252.49L298.18 271.42V249.8L330.97 230.87V252.49Z" fill="white"/>
<path opacity="0.1" d="M295.89 248.48L298.18 249.8V271.42L295.89 270.1V248.48Z" fill="black"/>
<path d="M258.43 270.1L291.23 251.17L293.51 252.49V274.12L260.72 293.05L258.43 291.73V270.1Z" fill="#F4B313"/>
<path opacity="0.1" d="M258.43 270.1L291.23 251.17L293.51 252.49V274.12L260.72 293.05L258.43 291.73V270.1Z" fill="black"/>
<path d="M293.51 274.12L260.72 293.05V271.42L293.51 252.49V274.12Z" fill="#F4B313"/>
<path opacity="0.25" d="M293.51 274.12L260.72 293.05V271.42L293.51 252.49V274.12Z" fill="white"/>
<path opacity="0.1" d="M258.43 270.1L260.72 271.42V293.05L258.43 291.73V270.1Z" fill="black"/>
<path d="M220.97 291.73L253.77 272.8L256.06 274.12V295.74L223.26 314.68L220.97 313.36V291.73Z" fill="#F4B313"/>
<path opacity="0.1" d="M220.97 291.73L253.77 272.8L256.06 274.12V295.74L223.26 314.68L220.97 313.36V291.73Z" fill="black"/>
<path d="M256.06 295.74L223.26 314.68V293.05L256.06 274.12V295.74Z" fill="#F4B313"/>
<path opacity="0.25" d="M256.06 295.74L223.26 314.68V293.05L256.06 274.12V295.74Z" fill="white"/>
<path opacity="0.1" d="M220.97 291.73L223.26 293.05V314.68L220.97 313.36V291.73Z" fill="black"/>
<path d="M183.52 313.36L216.31 294.42L218.6 295.74V317.37L185.81 336.3L183.52 334.98V313.36Z" fill="#F4B313"/>
<path opacity="0.1" d="M183.52 313.36L216.31 294.42L218.6 295.74V317.37L185.81 336.3L183.52 334.98V313.36Z" fill="black"/>
<path d="M218.6 317.37L185.81 336.3V314.68L218.6 295.74V317.37Z" fill="#F4B313"/>
<path opacity="0.25" d="M218.6 317.37L185.81 336.3V314.68L218.6 295.74V317.37Z" fill="white"/>
<path opacity="0.1" d="M183.52 313.36L185.81 314.68V336.3L183.52 334.98V313.36Z" fill="black"/>
<path d="M146.06 334.98L178.85 316.05L181.14 317.37V338.99L148.35 357.93L146.06 356.61V334.98Z" fill="#F4B313"/>
<path opacity="0.1" d="M146.06 334.98L178.85 316.05L181.14 317.37V338.99L148.35 357.93L146.06 356.61V334.98Z" fill="black"/>
<path d="M181.14 338.99L148.35 357.93V336.3L181.14 317.37V338.99Z" fill="#F4B313"/>
<path opacity="0.25" d="M181.14 338.99L148.35 357.93V336.3L181.14 317.37V338.99Z" fill="white"/>
<path opacity="0.1" d="M146.06 334.98L148.35 336.3V357.93L146.06 356.61V334.98Z" fill="black"/>
<path d="M370.8 205.23L387.2 195.76L389.49 197.08V218.71L373.09 228.17L370.8 226.85V205.23Z" fill="#F4B313"/>
<path opacity="0.1" d="M370.8 205.23L387.2 195.76L389.49 197.08V218.71L373.09 228.17L370.8 226.85V205.23Z" fill="black"/>
<path d="M389.49 218.71L373.09 228.17V206.55L389.49 197.08V218.71Z" fill="#F4B313"/>
<path opacity="0.25" d="M389.49 218.71L373.09 228.17V206.55L389.49 197.08V218.71Z" fill="white"/>
<path opacity="0.1" d="M370.8 205.23L373.09 206.55V228.17L370.8 226.85V205.23Z" fill="black"/>
<path d="M132 345.69V367.33L122.67 361.91V340.26L132 345.69Z" fill="#F4B313"/>
<path opacity="0.2" d="M132 345.69V367.33L122.67 361.91V340.26L132 345.69Z" fill="black"/>
<path d="M124.95 338.94L134.29 344.38L132 345.7L122.67 340.26L124.95 338.94Z" fill="#F4B313"/>
<path opacity="0.1" d="M124.95 338.94L134.29 344.38L132 345.7L122.67 340.26L124.95 338.94Z" fill="black"/>
<path d="M354.45 187.68L387.25 168.75L389.53 170.07V191.7L356.74 210.63L354.45 209.31V187.68Z" fill="#F4B313"/>
<path opacity="0.1" d="M354.45 187.68L387.25 168.75L389.53 170.07V191.7L356.74 210.63L354.45 209.31V187.68Z" fill="black"/>
<path d="M389.53 191.7L356.74 210.63V189L389.53 170.07V191.7Z" fill="#F4B313"/>
<path opacity="0.25" d="M389.53 191.7L356.74 210.63V189L389.53 170.07V191.7Z" fill="white"/>
<path opacity="0.1" d="M354.45 187.68L356.74 189V210.63L354.45 209.31V187.68Z" fill="black"/>
<path d="M317 209.31L349.79 190.38L352.07 191.7V213.32L319.28 232.25L317 230.93V209.31Z" fill="#F4B313"/>
<path opacity="0.1" d="M317 209.31L349.79 190.38L352.07 191.7V213.32L319.28 232.25L317 230.93V209.31Z" fill="black"/>
<path d="M352.07 213.32L319.28 232.25V210.63L352.07 191.7V213.32Z" fill="#F4B313"/>
<path opacity="0.25" d="M352.07 213.32L319.28 232.25V210.63L352.07 191.7V213.32Z" fill="white"/>
<path opacity="0.1" d="M317 209.31L319.28 210.63V232.25L317 230.93V209.31Z" fill="black"/>
<path d="M279.54 230.93L312.33 212L314.62 213.32V234.95L281.83 253.88L279.54 252.56V230.93Z" fill="#F4B313"/>
<path opacity="0.1" d="M279.54 230.93L312.33 212L314.62 213.32V234.95L281.83 253.88L279.54 252.56V230.93Z" fill="black"/>
<path d="M314.62 234.95L281.83 253.88V232.25L314.62 213.32V234.95Z" fill="#F4B313"/>
<path opacity="0.25" d="M314.62 234.95L281.83 253.88V232.25L314.62 213.32V234.95Z" fill="white"/>
<path opacity="0.1" d="M279.54 230.93L281.83 232.25V253.88L279.54 252.56V230.93Z" fill="black"/>
<path d="M242.08 252.56L274.87 233.63L277.16 234.95V256.57L244.37 275.51L242.08 274.19V252.56Z" fill="#F4B313"/>
<path opacity="0.1" d="M242.08 252.56L274.87 233.63L277.16 234.95V256.57L244.37 275.51L242.08 274.19V252.56Z" fill="black"/>
<path d="M277.16 256.57L244.37 275.51V253.88L277.16 234.95V256.57Z" fill="#F4B313"/>
<path opacity="0.25" d="M277.16 256.57L244.37 275.51V253.88L277.16 234.95V256.57Z" fill="white"/>
<path opacity="0.1" d="M242.08 252.56L244.37 253.88V275.51L242.08 274.19V252.56Z" fill="black"/>
<path d="M204.63 274.19L237.42 255.25L239.7 256.57V278.2L206.91 297.13L204.63 295.81V274.19Z" fill="#F4B313"/>
<path opacity="0.1" d="M204.63 274.19L237.42 255.25L239.7 256.57V278.2L206.91 297.13L204.63 295.81V274.19Z" fill="black"/>
<path d="M239.7 278.2L206.91 297.13V275.51L239.7 256.57V278.2Z" fill="#F4B313"/>
<path opacity="0.25" d="M239.7 278.2L206.91 297.13V275.51L239.7 256.57V278.2Z" fill="white"/>
<path opacity="0.1" d="M204.63 274.19L206.91 275.51V297.13L204.63 295.81V274.19Z" fill="black"/>
<path d="M167.17 295.81L199.96 276.88L202.25 278.2V299.82L169.46 318.76L167.17 317.44V295.81Z" fill="#F4B313"/>
<path opacity="0.1" d="M167.17 295.81L199.96 276.88L202.25 278.2V299.82L169.46 318.76L167.17 317.44V295.81Z" fill="black"/>
<path d="M202.25 299.82L169.46 318.76V297.13L202.25 278.2V299.82Z" fill="#F4B313"/>
<path opacity="0.25" d="M202.25 299.85L169.46 318.78V297.16L202.25 278.23V299.85Z" fill="white"/>
<path opacity="0.1" d="M167.17 295.81L169.46 297.13V318.76L167.17 317.44V295.81Z" fill="black"/>
<path d="M129.71 317.44L162.5 298.5L164.79 299.83V321.45L132 340.38L129.71 339.06V317.44Z" fill="#F4B313"/>
<path opacity="0.1" d="M129.71 317.44L162.5 298.5L164.79 299.83V321.45L132 340.38L129.71 339.06V317.44Z" fill="black"/>
<path d="M164.79 321.45L132 340.38V318.76L164.79 299.82V321.45Z" fill="#F4B313"/>
<path opacity="0.25" d="M164.79 321.45L132 340.38V318.76L164.79 299.82V321.45Z" fill="white"/>
<path opacity="0.1" d="M129.71 317.44L132 318.76V340.38L129.71 339.06V317.44Z" fill="black"/>
<path d="M132 318.74V340.38L122.66 334.96V313.32L132 318.74Z" fill="#F4B313"/>
<path opacity="0.2" d="M132 318.74V340.38L122.66 334.96V313.32L132 318.74Z" fill="black"/>
<path d="M124.95 312L134.29 317.44L132 318.76L122.66 313.32L124.95 312Z" fill="#F4B313"/>
<path opacity="0.1" d="M124.95 312L134.29 317.44L132 318.76L122.66 313.32L124.95 312Z" fill="black"/>
<path d="M370.8 151.09L387.2 141.63L389.49 142.95V164.57L373.09 174.04L370.8 172.72V151.09Z" fill="#F4B313"/>
<path opacity="0.1" d="M370.8 151.09L387.2 141.63L389.49 142.95V164.57L373.09 174.04L370.8 172.72V151.09Z" fill="black"/>
<path d="M389.49 164.58L373.09 174.04V152.42L389.49 142.95V164.58Z" fill="#F4B313"/>
<path opacity="0.25" d="M389.49 164.58L373.09 174.04V152.42L389.49 142.95V164.58Z" fill="white"/>
<path opacity="0.1" d="M370.8 151.09L373.09 152.42V174.04L370.8 172.72V151.09Z" fill="black"/>
<path d="M333.35 172.72L366.14 153.79L368.43 155.11V176.74L335.63 195.67L333.35 194.35V172.72Z" fill="#F4B313"/>
<path opacity="0.1" d="M333.35 172.72L366.14 153.79L368.43 155.11V176.74L335.63 195.67L333.35 194.35V172.72Z" fill="black"/>
<path d="M368.43 176.74L335.63 195.67V174.04L368.43 155.11V176.74Z" fill="#F4B313"/>
<path opacity="0.25" d="M368.43 176.74L335.63 195.67V174.04L368.43 155.11V176.74Z" fill="white"/>
<path opacity="0.1" d="M333.35 172.72L335.63 174.04V195.67L333.35 194.35V172.72Z" fill="black"/>
<path d="M295.89 194.35L328.68 175.41L330.97 176.74V198.36L298.18 217.29L295.89 215.97V194.35Z" fill="#F4B313"/>
<path opacity="0.1" d="M295.89 194.35L328.68 175.41L330.97 176.74V198.36L298.18 217.29L295.89 215.97V194.35Z" fill="black"/>
<path d="M330.97 198.36L298.18 217.29V195.67L330.97 176.74V198.36Z" fill="#F4B313"/>
<path opacity="0.25" d="M330.97 198.36L298.18 217.29V195.67L330.97 176.74V198.36Z" fill="white"/>
<path opacity="0.1" d="M295.89 194.35L298.18 195.67V217.29L295.89 215.97V194.35Z" fill="black"/>
<path d="M258.43 215.97L291.23 197.04L293.51 198.36V219.99L260.72 238.92L258.43 237.6V215.97Z" fill="#F4B313"/>
<path opacity="0.1" d="M258.43 215.97L291.23 197.04L293.51 198.36V219.99L260.72 238.92L258.43 237.6V215.97Z" fill="black"/>
<path d="M293.51 219.99L260.72 238.92V217.29L293.51 198.36V219.99Z" fill="#F4B313"/>
<path opacity="0.25" d="M293.51 219.99L260.72 238.92V217.29L293.51 198.36V219.99Z" fill="white"/>
<path opacity="0.1" d="M258.43 215.97L260.72 217.29V238.92L258.43 237.6V215.97Z" fill="black"/>
<path d="M284.18 192.92L293.51 198.36L260.72 217.29L251.38 211.85L284.18 192.92Z" fill="#F4B313"/>
<path d="M260.72 217.29V220L251.38 214.58V211.85L260.72 217.29Z" fill="#F4B313"/>
<path opacity="0.2" d="M260.72 217.29V220L251.38 214.58V211.85L260.72 217.29Z" fill="black"/>
<path d="M129.72 290.29L141.4 283.51L143.68 284.83V306.46L132 313.23L129.72 311.91V290.29Z" fill="#F4B313"/>
<path d="M134.35 279.39L143.68 284.83L132 291.61L122.67 286.17L134.35 279.39Z" fill="#F4B313"/>
<path d="M143.68 306.46L132 313.23V291.61L143.68 284.83V306.46Z" fill="#F4B313"/>
<path opacity="0.25" d="M143.68 306.46L132 313.23V291.61L143.68 284.83V306.46Z" fill="white"/>
<path opacity="0.1" d="M129.72 290.29L132 291.61V313.23L129.72 311.91V290.29Z" fill="black"/>
<path d="M220.97 237.63L253.77 218.7L256.06 220.02V241.64L223.26 260.58L220.97 259.25V237.63Z" fill="#F4B313"/>
<path d="M246.72 214.58L256.06 220.02L223.26 238.95L213.93 233.51L246.72 214.58Z" fill="#F4B313"/>
<path d="M256.06 241.64L223.26 260.58V238.95L256.06 220.02V241.64Z" fill="#F4B313"/>
<path opacity="0.25" d="M256.06 241.64L223.26 260.58V238.95L256.06 220.02V241.64Z" fill="white"/>
<path opacity="0.1" d="M220.97 237.63L223.26 238.95V260.58L220.97 259.25V237.63Z" fill="black"/>
<path opacity="0.1" d="M220.97 237.63L223.26 238.95V260.58L220.97 259.25V237.63Z" fill="black"/>
<path d="M223.26 238.95V241.66L213.93 236.24V233.51L223.26 238.95Z" fill="#F4B313"/>
<path opacity="0.2" d="M223.26 238.95V241.66L213.93 236.24V233.51L223.26 238.95Z" fill="black"/>
<path d="M132 291.59V313.23L122.67 307.81V286.17L132 291.59Z" fill="#F4B313"/>
<path opacity="0.2" d="M132 291.59V313.23L122.67 307.81V286.17L132 291.59Z" fill="black"/>
<path d="M124.95 284.84L134.29 290.29L132 291.61L122.67 286.17L124.95 284.84Z" fill="#F4B313"/>
<path d="M183.52 259.25L216.31 240.32L218.6 241.64V263.27L185.81 282.2L183.52 280.88V259.25Z" fill="#F4B313"/>
<path d="M209.26 236.2L218.6 241.64L185.81 260.58L176.47 255.13L209.26 236.2Z" fill="#F4B313"/>
<path d="M218.6 263.27L185.81 282.2V260.58L218.6 241.64V263.27Z" fill="#F4B313"/>
<path opacity="0.25" d="M218.6 263.27L185.81 282.2V260.58L218.6 241.64V263.27Z" fill="white"/>
<path opacity="0.1" d="M183.52 259.25L185.81 260.58V282.2L183.52 280.88V259.25Z" fill="black"/>
<path opacity="0.1" d="M183.52 259.25L185.81 260.58V282.2L183.52 280.88V259.25Z" fill="black"/>
<path d="M185.81 260.58V263.29L176.47 257.87V255.13L185.81 260.58Z" fill="#F4B313"/>
<path opacity="0.2" d="M185.81 260.58V263.29L176.47 257.87V255.13L185.81 260.58Z" fill="black"/>
<path d="M146.06 280.88L178.85 261.95L181.14 263.27V284.89L148.35 303.83L146.06 302.51V280.88Z" fill="#F4B313"/>
<path d="M171.8 257.83L181.14 263.27L148.35 282.2L139.01 276.76L171.8 257.83Z" fill="#F4B313"/>
<path d="M181.14 284.89L148.35 303.83V282.2L181.14 263.27V284.89Z" fill="#F4B313"/>
<path opacity="0.25" d="M181.14 284.89L148.35 303.83V282.2L181.14 263.27V284.89Z" fill="white"/>
<path opacity="0.1" d="M146.06 280.88L148.35 282.2V303.83L146.06 302.51V280.88Z" fill="black"/>
<path opacity="0.1" d="M146.06 280.88L148.35 282.2V303.83L146.06 302.51V280.88Z" fill="black"/>
<path d="M148.35 282.2V284.91L139.01 279.49V276.76L148.35 282.2Z" fill="#F4B313"/>
<path opacity="0.2" d="M148.35 282.2V284.91L139.01 279.49V276.76L148.35 282.2Z" fill="black"/>
<path d="M354.45 133.42L387.25 114.48L389.53 115.81V137.43L356.74 156.36L354.45 155.04V133.42Z" fill="#F4B313"/>
<path opacity="0.1" d="M354.45 133.42L387.25 114.48L389.53 115.81V137.43L356.74 156.36L354.45 155.04V133.42Z" fill="black"/>
<path d="M389.53 137.43L356.74 156.36V134.74L389.53 115.81V137.43Z" fill="#F4B313"/>
<path opacity="0.25" d="M389.53 137.43L356.74 156.36V134.74L389.53 115.81V137.43Z" fill="white"/>
<path opacity="0.1" d="M354.45 133.42L356.74 134.74V156.36L354.45 155.04V133.42Z" fill="black"/>
<path d="M317 155.04L349.79 136.11L352.07 137.43V159.06L319.28 177.99L317 176.67V155.04Z" fill="#F4B313"/>
<path opacity="0.1" d="M317 155.04L349.79 136.11L352.07 137.43V159.06L319.28 177.99L317 176.67V155.04Z" fill="black"/>
<path d="M352.07 159.06L319.28 177.99V156.36L352.07 137.43V159.06Z" fill="#F4B313"/>
<path opacity="0.25" d="M352.07 159.06L319.28 177.99V156.36L352.07 137.43V159.06Z" fill="white"/>
<path opacity="0.1" d="M317 155.04L319.28 156.36V177.99L317 176.67V155.04Z" fill="black"/>
<path d="M279.54 176.67L312.33 157.74L314.62 159.06V180.68L281.83 199.62L279.54 198.29V176.67Z" fill="#F4B313"/>
<path opacity="0.1" d="M279.54 176.67L312.33 157.74L314.62 159.06V180.68L281.83 199.62L279.54 198.29V176.67Z" fill="black"/>
<path d="M314.62 180.68L281.83 199.62V177.99L314.62 159.06V180.68Z" fill="#F4B313"/>
<path opacity="0.25" d="M314.62 180.68L281.83 199.62V177.99L314.62 159.06V180.68Z" fill="white"/>
<path opacity="0.1" d="M279.54 176.67L281.83 177.99V199.62L279.54 198.29V176.67Z" fill="black"/>
<path d="M279.54 176.67L312.33 157.74L314.62 159.06V180.68L281.83 199.62L279.54 198.29V176.67Z" fill="#F4B313"/>
<path opacity="0.1" d="M279.54 176.67L312.33 157.74L314.62 159.06V180.68L281.83 199.62L279.54 198.29V176.67Z" fill="black"/>
<path d="M314.62 180.68L281.83 199.62V177.99L314.62 159.06V180.68Z" fill="#F4B313"/>
<path opacity="0.25" d="M314.62 180.68L281.83 199.62V177.99L314.62 159.06V180.68Z" fill="white"/>
<path opacity="0.1" d="M279.54 176.67L281.83 177.99V199.62L279.54 198.29V176.67Z" fill="black"/>
<path d="M281.83 177.97V199.62L272.49 194.19V172.55L281.83 177.97Z" fill="#F4B313"/>
<path opacity="0.2" d="M281.83 177.97V199.62L272.49 194.19V172.55L281.83 177.97Z" fill="black"/>
<path d="M274.78 171.23L284.11 176.67L281.83 177.99L272.49 172.55L274.78 171.23Z" fill="#F4B313"/>
<path opacity="0.1" d="M274.78 171.23L284.11 176.67L281.83 177.99L272.49 172.55L274.78 171.23Z" fill="black"/>
<path d="M305.28 153.62L314.62 159.06L281.83 177.99L272.49 172.55L305.28 153.62Z" fill="#F4B313"/>
<path d="M281.83 199.62L272.49 194.19V197.06L281.8 202.48L300.64 191.6V188.75L281.83 199.62Z" fill="#F0F0F0"/>
<path d="M317 155.18L298.18 166.04L288.84 160.61V157.74L298.18 163.16L317 152.3V155.18Z" fill="#F0F0F0"/>
<path d="M333.35 118.59L366.14 99.66L368.43 100.98V122.6L335.63 141.54L333.35 140.22V118.59Z" fill="#F4B313"/>
<path opacity="0.1" d="M333.35 118.59L366.14 99.66L368.43 100.98V122.6L335.63 141.54L333.35 140.22V118.59Z" fill="black"/>
<path d="M368.43 122.6L335.63 141.54V119.91L368.43 100.98V122.6Z" fill="#F4B313"/>
<path opacity="0.25" d="M368.43 122.6L335.63 141.54V119.91L368.43 100.98V122.6Z" fill="white"/>
<path opacity="0.1" d="M333.35 118.59L335.63 119.91V141.54L333.35 140.22V118.59Z" fill="black"/>
<path d="M328.58 113.15L337.92 118.59L335.63 119.91L326.3 114.47L328.58 113.15Z" fill="#F4B313"/>
<path opacity="0.1" d="M328.58 113.15L337.92 118.59L335.63 119.91L326.3 114.47L328.58 113.15Z" fill="black"/>
<path d="M359.09 95.54L368.43 100.98L335.63 119.91L326.3 114.47L359.09 95.54Z" fill="#F4B313"/>
<path d="M335.63 119.91V122.64L326.3 117.22V114.49L335.63 119.91Z" fill="#F4B313"/>
<path opacity="0.2" d="M335.63 119.91V122.64L326.3 117.22V114.49L335.63 119.91Z" fill="black"/>
<path d="M295.89 140.22L328.68 121.28L330.97 122.6V144.23L298.18 163.16L295.89 161.84V140.22Z" fill="#F4B313"/>
<path opacity="0.1" d="M295.89 140.22L328.68 121.28L330.97 122.6V144.23L298.18 163.16L295.89 161.84V140.22Z" fill="black"/>
<path d="M330.97 144.23L298.18 163.16V141.54L330.97 122.6V144.23Z" fill="#F4B313"/>
<path opacity="0.25" d="M330.97 144.23L298.18 163.16V141.54L330.97 122.6V144.23Z" fill="white"/>
<path opacity="0.1" d="M295.89 140.22L298.18 141.54V163.16L295.89 161.84V140.22Z" fill="black"/>
<path d="M298.18 141.52V163.16L288.84 157.74V136.1L298.18 141.52Z" fill="#F4B313"/>
<path opacity="0.2" d="M298.18 141.52V163.16L288.84 157.74V136.1L298.18 141.52Z" fill="black"/>
<path d="M291.13 134.78L300.46 140.22L298.18 141.54L288.84 136.1L291.13 134.78Z" fill="#F4B313"/>
<path opacity="0.1" d="M291.13 134.78L300.46 140.22L298.18 141.54L288.84 136.1L291.13 134.78Z" fill="black"/>
<path d="M321.63 117.16L330.97 122.6L298.18 141.54L288.84 136.1L321.63 117.16Z" fill="#F4B313"/>
<path d="M370.8 96.97L387.2 87.5L389.49 88.82V110.44L373.09 119.91L370.8 118.59V96.97Z" fill="#F4B313"/>
<path opacity="0.1" d="M370.8 96.97L387.2 87.5L389.49 88.82V110.44L373.09 119.91L370.8 118.59V96.97Z" fill="black"/>
<path d="M389.49 110.44L373.09 119.91V98.29L389.49 88.82V110.44Z" fill="#F4B313"/>
<path opacity="0.25" d="M389.49 110.44L373.09 119.91V98.29L389.49 88.82V110.44Z" fill="white"/>
<path opacity="0.1" d="M370.8 96.97L373.09 98.29V119.91L370.8 118.59V96.97Z" fill="black"/>
<path d="M373.09 98.27V101L363.75 95.57V92.84L373.09 98.27Z" fill="#F4B313"/>
<path opacity="0.2" d="M373.09 98.27V101L363.75 95.57V92.84L373.09 98.27Z" fill="black"/>
<path d="M366.04 91.52L375.38 96.97L373.09 98.28L363.75 92.84L366.04 91.52Z" fill="#F4B313"/>
<path opacity="0.1" d="M366.04 91.52L375.38 96.97L373.09 98.28L363.75 92.84L366.04 91.52Z" fill="black"/>
<path d="M380.15 83.38L389.49 88.82L373.09 98.29L363.75 92.84L380.15 83.38Z" fill="#F4B313"/>
<path d="M235 224.83C235.225 224.995 235.492 225.095 235.77 225.12C236.702 225.226 237.642 225.026 238.45 224.55C239.096 224.009 239.865 223.635 240.69 223.46C241.083 223.462 241.473 223.519 241.85 223.63C243.726 224.128 245.707 224.069 247.55 223.46C248.464 223.146 249.283 222.605 249.93 221.888C250.577 221.171 251.031 220.301 251.25 219.36C252.85 219.652 254.502 219.377 255.922 218.583C257.342 217.79 258.441 216.526 259.03 215.01C260.735 215.091 262.438 214.815 264.03 214.2C264.831 213.88 265.539 213.363 266.087 212.697C266.636 212.031 267.008 211.238 267.17 210.39C268.716 210.557 270.279 210.455 271.79 210.09C272.543 209.903 273.238 209.53 273.811 209.006C274.384 208.482 274.816 207.824 275.07 207.09C275.18 206.67 275.25 206.17 275.62 205.96C275.842 205.858 276.088 205.82 276.33 205.85C277.555 205.958 278.789 205.805 279.95 205.4C280.527 205.186 281.033 204.814 281.408 204.325C281.783 203.837 282.012 203.253 282.07 202.64C282.07 201.17 280.78 200 279.42 199.43C277.946 198.819 276.323 198.662 274.76 198.98C274.535 198.236 274.122 197.564 273.56 197.027C272.999 196.491 272.308 196.109 271.555 195.919C270.802 195.728 270.012 195.736 269.263 195.942C268.514 196.147 267.831 196.542 267.28 197.09C266.403 195.506 264.941 194.328 263.208 193.807C261.474 193.286 259.605 193.463 258 194.3C256.647 194.873 255.5 195.842 254.71 197.08C254.131 198.244 253.813 199.52 253.78 200.82C253.798 200.989 253.78 201.16 253.728 201.321C253.677 201.483 253.592 201.633 253.48 201.76C253.324 201.875 253.142 201.951 252.95 201.98C251.319 202.364 249.75 202.977 248.29 203.8C247.425 204.224 246.682 204.861 246.13 205.65C245.32 206.97 245.51 208.65 245.63 210.2C245.665 210.328 245.665 210.462 245.63 210.59C245.53 210.81 245.26 210.88 245.02 210.95C243.231 211.426 241.698 212.582 240.75 214.172C239.801 215.762 239.51 217.659 239.94 219.46C238.811 219.883 237.742 220.451 236.76 221.15C235.9 221.8 234 224 235 224.83Z" fill="#E0E0E0"/>
<path opacity="0.1" d="M282.14 202.61C282.14 201.14 280.85 199.97 279.49 199.4C278.016 198.789 276.394 198.632 274.83 198.95C274.596 198.211 274.179 197.543 273.618 197.008C273.057 196.473 272.37 196.088 271.62 195.89C271.419 195.843 271.215 195.806 271.01 195.78C271.532 196.182 271.913 196.739 272.1 197.37C272.41 198.23 272.41 199.17 272.1 200.03C273.397 199.834 274.723 199.975 275.95 200.44C276.302 200.532 276.627 200.708 276.895 200.954C277.164 201.199 277.368 201.507 277.49 201.85C277.533 202.167 277.494 202.49 277.377 202.787C277.26 203.085 277.068 203.348 276.82 203.55C275.57 204.72 273.67 204.74 271.97 204.68C272.18 205.98 272.28 207.57 271.2 208.32C270.561 208.677 269.827 208.824 269.1 208.74H265.86C265.733 210.107 265.228 211.413 264.401 212.509C263.575 213.606 262.46 214.451 261.18 214.95C262.168 214.867 263.137 214.627 264.05 214.24C264.851 213.92 265.559 213.403 266.107 212.737C266.656 212.071 267.029 211.278 267.19 210.43C268.736 210.597 270.299 210.495 271.81 210.13C272.563 209.943 273.258 209.57 273.831 209.046C274.404 208.522 274.836 207.864 275.09 207.13C275.2 206.71 275.27 206.21 275.64 206C275.862 205.898 276.108 205.86 276.35 205.89C277.575 205.998 278.809 205.845 279.97 205.44C280.567 205.229 281.09 204.849 281.475 204.347C281.86 203.844 282.091 203.241 282.14 202.61Z" fill="black"/>
<path d="M406.27 263.32C405.03 261.885 404.119 260.196 403.601 258.372C403.082 256.548 402.97 254.632 403.27 252.76C403.87 247.24 403.88 242.28 404.68 241.3C405.48 240.32 408.86 246.87 409.68 252.73C410.5 258.59 408.46 261.12 406.27 263.32Z" fill="#455A64"/>
<path d="M408.69 269.13C409.3 269.99 413.32 267.02 415.36 262.93C417.4 258.84 417.53 254.93 417.21 254.43C416.89 253.93 411.56 258.68 410.15 261.94C408.74 265.2 408.3 268.57 408.69 269.13Z" fill="#455A64"/>
<path d="M407.63 279.76C408.1 280.86 413.21 278.48 416.4 274.41C419.59 270.34 420.62 266.01 420.4 265.41C420.18 264.81 413.21 268.84 410.9 272.14C408.59 275.44 407.32 279.05 407.63 279.76Z" fill="#455A64"/>
<path d="M404.2 275.29C405.37 275.05 404.04 269.56 400.68 265.64C397.32 261.72 393.29 259.84 392.62 259.95C391.95 260.06 393.34 266.21 397.34 270.58C400.06 273.55 403.45 275.45 404.2 275.29Z" fill="#455A64"/>
<path d="M405 277.69C405.21 278.44 405.41 279.2 405.55 279.97C405.45 281.22 405.21 283.16 404.93 285.19C404.71 286.77 404.41 288.34 404.07 289.89H405.29C405.62 288.1 406.02 285.83 406.18 284.76L406.36 283.98C406.62 283.182 406.938 282.403 407.31 281.65C407.68 280.93 408.12 280.26 408.55 279.58C409.06 278.96 409.506 278.29 409.88 277.58C409.88 277.47 409.88 277.16 409.72 277.23C409.378 277.394 409.079 277.638 408.85 277.94C408.53 278.27 408.23 278.6 407.94 278.94C407.418 279.577 406.966 280.267 406.59 281C406.69 279.7 406.77 278.4 406.81 277.1C407.18 275.7 407.52 274.3 408 272.94C408.34 271.94 408.7 270.94 409.11 270.02C409.672 268.957 410.137 267.846 410.5 266.7C410.5 266.6 410.5 266.35 410.32 266.45C409.496 267.209 408.85 268.141 408.43 269.18C407.914 270.192 407.466 271.238 407.09 272.31C407.02 272.52 406.96 272.74 406.89 272.95C406.998 268.315 406.664 263.681 405.89 259.11C405.84 258.89 405.64 258.94 405.63 259.11C405.4 264.11 405.91 269.17 405.83 274.2C405.83 275.2 405.76 276.12 405.71 277.07C405.434 276.22 405.076 275.4 404.64 274.62C404.214 273.749 403.615 272.973 402.88 272.34C402.66 272.17 402.59 272.6 402.65 272.73C403.09 273.59 403.65 274.39 404.06 275.26C404.439 276.043 404.754 276.856 405 277.69Z" fill="#37474F"/>
<path d="M418.82 288.98L451.61 307.91L432.88 318.72L400.09 299.79L418.82 288.98Z" fill="#F4B313"/>
<path opacity="0.25" d="M418.82 288.98L451.61 307.91L432.88 318.72L400.09 299.79L418.82 288.98Z" fill="white"/>
<path d="M432.87 318.73L451.61 307.91L451.59 318.71L432.84 329.53L432.87 318.73Z" fill="#F4B313"/>
<path opacity="0.2" d="M432.87 318.73L451.61 307.91L451.59 318.71L432.84 329.53L432.87 318.73Z" fill="black"/>
<path d="M400.05 310.6L400.09 299.79L432.88 318.72L432.84 329.53L400.05 310.6Z" fill="#F4B313"/>
<path d="M394.37 302.51L427.16 321.44L408.43 332.25L375.64 313.32L394.37 302.51Z" fill="#F4B313"/>
<path opacity="0.25" d="M394.37 302.51L427.16 321.44L408.43 332.25L375.64 313.32L394.37 302.51Z" fill="white"/>
<path d="M408.42 332.26L427.16 321.44L427.14 332.24L408.39 343.06L408.42 332.26Z" fill="#F4B313"/>
<path opacity="0.2" d="M408.42 332.26L427.16 321.44L427.14 332.24L408.39 343.06L408.42 332.26Z" fill="black"/>
<path d="M375.6 324.13L375.64 313.32L408.43 332.25L408.39 343.06L375.6 324.13Z" fill="#F4B313"/>
<path d="M402.48 283.57L435.27 302.51L416.55 313.32L383.75 294.39L402.48 283.57Z" fill="#F4B313"/>
<path opacity="0.25" d="M402.48 283.57L435.27 302.51L416.55 313.32L383.75 294.39L402.48 283.57Z" fill="white"/>
<path d="M416.53 313.33L435.27 302.51L435.25 313.31L416.5 324.13L416.53 313.33Z" fill="#F4B313"/>
<path opacity="0.2" d="M416.53 313.33L435.27 302.51L435.25 313.31L416.5 324.13L416.53 313.33Z" fill="black"/>
<path d="M383.71 305.19L383.75 294.39L416.55 313.32L416.5 324.13L383.71 305.19Z" fill="#F4B313"/>
<path d="M354.36 409.24L388 389.8C388.692 389.431 389.466 389.245 390.25 389.26C391.04 389.245 391.821 389.431 392.52 389.8L426.18 409.24C426.437 409.356 426.659 409.539 426.823 409.769C426.986 409.999 427.085 410.269 427.11 410.55V413C427.087 413.28 426.988 413.549 426.824 413.778C426.66 414.007 426.438 414.187 426.18 414.3L392.52 433.73C391.824 434.107 391.042 434.296 390.25 434.28C389.465 434.297 388.689 434.107 388 433.73L354.32 414.3C354.063 414.186 353.842 414.005 353.678 413.776C353.515 413.548 353.415 413.28 353.39 413V410.54C353.422 410.257 353.529 409.987 353.699 409.759C353.87 409.531 354.098 409.351 354.36 409.24Z" fill="#26B600"/>
<path opacity="0.1" d="M353.43 410.55V413C353.455 413.28 353.555 413.548 353.718 413.776C353.882 414.005 354.103 414.186 354.36 414.3L388 433.74C388.689 434.117 389.465 434.307 390.25 434.29V389.29C389.466 389.275 388.692 389.461 388 389.83L354.32 409.27C354.075 409.391 353.865 409.571 353.71 409.795C353.554 410.019 353.458 410.279 353.43 410.55Z" fill="black"/>
<path opacity="0.3" d="M390.29 389.26V434.26C391.082 434.276 391.864 434.087 392.56 433.71L426.22 414.28C426.478 414.167 426.7 413.987 426.864 413.758C427.028 413.529 427.127 413.26 427.15 412.98V410.52C427.125 410.239 427.026 409.969 426.863 409.739C426.699 409.509 426.477 409.326 426.22 409.21L392.56 389.8C391.861 389.431 391.08 389.245 390.29 389.26Z" fill="black"/>
<path d="M392.55 431.3L426.23 411.86C426.502 411.767 426.738 411.591 426.905 411.357C427.071 411.123 427.161 410.842 427.161 410.555C427.161 410.268 427.071 409.987 426.905 409.753C426.738 409.519 426.502 409.343 426.23 409.25L392.55 389.81C391.851 389.45 391.076 389.263 390.29 389.263C389.504 389.263 388.729 389.45 388.03 389.81L354.36 409.25C354.088 409.343 353.852 409.519 353.685 409.753C353.518 409.987 353.429 410.268 353.429 410.555C353.429 410.842 353.518 411.123 353.685 411.357C353.852 411.591 354.088 411.767 354.36 411.86L388 431.3C388.704 431.66 389.484 431.848 390.275 431.848C391.066 431.848 391.846 431.66 392.55 431.3Z" fill="#26B600"/>
<path opacity="0.5" d="M392.55 431.3L426.23 411.86C426.502 411.767 426.738 411.591 426.905 411.357C427.071 411.123 427.161 410.842 427.161 410.555C427.161 410.268 427.071 409.987 426.905 409.753C426.738 409.519 426.502 409.343 426.23 409.25L392.55 389.81C391.851 389.45 391.076 389.263 390.29 389.263C389.504 389.263 388.729 389.45 388.03 389.81L354.36 409.25C354.088 409.343 353.852 409.519 353.685 409.753C353.518 409.987 353.429 410.268 353.429 410.555C353.429 410.842 353.518 411.123 353.685 411.357C353.852 411.591 354.088 411.767 354.36 411.86L388 431.3C388.704 431.66 389.484 431.848 390.275 431.848C391.066 431.848 391.846 431.66 392.55 431.3Z" fill="white"/>
<path opacity="0.05" d="M390.29 389.26C391.079 389.242 391.858 389.432 392.55 389.81L426.23 409.25C426.502 409.343 426.738 409.519 426.905 409.753C427.072 409.987 427.161 410.268 427.161 410.555C427.161 410.842 427.072 411.123 426.905 411.357C426.738 411.591 426.502 411.767 426.23 411.86L392.55 431.3C391.855 431.67 391.077 431.856 390.29 431.84V389.26Z" fill="black"/>
<path d="M368.55 407.61L384.14 356.81V356.73C384.452 355.886 385.05 355.178 385.83 354.73C387.189 353.977 388.717 353.582 390.27 353.582C391.823 353.582 393.351 353.977 394.71 354.73C395.49 355.182 396.09 355.888 396.41 356.73V356.79L412 407.61C413.44 412.02 411.43 416.79 406 420.22C397.33 425.65 383.28 425.65 374.61 420.22C369.13 416.79 367.12 412 368.55 407.61Z" fill="#26B600"/>
<path d="M379.66 371.38V371.32L381.87 364.1C381.697 364.739 381.698 365.413 381.874 366.052C382.05 366.69 382.394 367.27 382.87 367.73C383.278 368.176 383.745 368.563 384.26 368.88C386.107 369.913 388.189 370.455 390.305 370.455C392.421 370.455 394.503 369.913 396.35 368.88C396.863 368.56 397.33 368.174 397.74 367.73C398.219 367.27 398.565 366.688 398.741 366.048C398.917 365.407 398.916 364.731 398.74 364.09L400.96 371.33C401.141 371.935 401.191 372.571 401.109 373.196C401.026 373.822 400.812 374.423 400.48 374.96C399.854 375.959 399.001 376.795 397.99 377.4C397.144 377.902 396.241 378.302 395.3 378.59C392.069 379.61 388.601 379.61 385.37 378.59C384.428 378.304 383.525 377.904 382.68 377.4C381.669 376.795 380.816 375.959 380.19 374.96C379.853 374.435 379.632 373.844 379.541 373.227C379.449 372.61 379.49 371.98 379.66 371.38Z" fill="#FAFAFA"/>
<path d="M370.73 400.48V400.43L373 393.2C372.646 394.379 372.605 395.63 372.88 396.83C373.197 398.186 373.843 399.442 374.76 400.49C375.653 401.513 376.695 402.396 377.85 403.11C384.75 407.43 395.92 407.43 402.85 403.11C404.01 402.399 405.055 401.515 405.95 400.49C406.863 399.44 407.508 398.184 407.83 396.83C408.105 395.633 408.06 394.384 407.7 393.21L409.92 400.42V400.49C410.279 401.669 410.361 402.914 410.16 404.13C409.71 406.88 407.8 409.55 404.44 411.66C396.66 416.54 384.05 416.54 376.27 411.66C372.9 409.55 371 406.88 370.54 404.13C370.318 402.915 370.383 401.665 370.73 400.48Z" fill="#FAFAFA"/>
<path d="M375.2 385.93V385.88L377.42 378.65C377.054 379.846 377.128 381.134 377.63 382.28C378.334 383.8 379.481 385.072 380.92 385.93L381.02 385.99C386.14 389.2 394.43 389.2 399.54 385.99L399.65 385.93C401.089 385.072 402.236 383.8 402.94 382.28C403.437 381.133 403.511 379.847 403.15 378.65L405.36 385.87V385.93C405.735 387.118 405.735 388.392 405.36 389.58C404.891 390.986 404.047 392.238 402.92 393.2C402.369 393.704 401.773 394.155 401.14 394.55C399.322 395.653 397.325 396.431 395.24 396.85C391.965 397.53 388.585 397.53 385.31 396.85C383.221 396.433 381.221 395.655 379.4 394.55C378.768 394.153 378.173 393.701 377.62 393.2C376.499 392.232 375.657 390.982 375.18 389.58C374.817 388.389 374.824 387.117 375.2 385.93Z" fill="#FAFAFA"/>
<path opacity="0.1" d="M390.29 353.61C391.847 353.582 393.382 353.98 394.73 354.76C395.51 355.212 396.11 355.918 396.43 356.76V356.82L412 407.61C413.44 412.02 411.43 416.79 406 420.22C401.236 422.985 395.807 424.392 390.3 424.29H390.44C397.44 423.07 402.2 415.79 401.22 408.13L394.74 357.57L390.29 353.61Z" fill="black"/>
<path d="M394.73 360.33C397.18 358.79 397.18 356.33 394.73 354.76C393.371 354.007 391.843 353.612 390.29 353.612C388.737 353.612 387.209 354.007 385.85 354.76C383.4 356.3 383.4 358.76 385.85 360.33C387.209 361.083 388.737 361.478 390.29 361.478C391.843 361.478 393.371 361.083 394.73 360.33Z" fill="#26B600"/>
<path opacity="0.5" d="M394.73 360.33C397.18 358.79 397.18 356.33 394.73 354.76C393.371 354.007 391.843 353.612 390.29 353.612C388.737 353.612 387.209 354.007 385.85 354.76C383.4 356.3 383.4 358.76 385.85 360.33C387.209 361.083 388.737 361.478 390.29 361.478C391.843 361.478 393.371 361.083 394.73 360.33Z" fill="white"/>
<path d="M266.88 394.69L300.55 375.25C301.25 374.895 302.025 374.71 302.81 374.71C303.595 374.71 304.37 374.895 305.07 375.25L338.73 394.69C338.987 394.806 339.209 394.989 339.373 395.219C339.536 395.449 339.635 395.719 339.66 396V398.45C339.635 398.731 339.536 399.001 339.373 399.231C339.209 399.461 338.987 399.644 338.73 399.76L305.07 419.19C304.371 419.551 303.596 419.74 302.81 419.74C302.024 419.74 301.249 419.551 300.55 419.19L266.88 399.76C266.623 399.644 266.401 399.461 266.237 399.231C266.074 399.001 265.975 398.731 265.95 398.45V396C265.975 395.719 266.074 395.449 266.237 395.219C266.401 394.989 266.623 394.806 266.88 394.69Z" fill="#26B600"/>
<path opacity="0.1" d="M266 396V398.45C266.025 398.731 266.124 399.001 266.287 399.231C266.451 399.461 266.673 399.644 266.93 399.76L300.6 419.19C301.293 419.567 302.072 419.756 302.86 419.74V374.74C302.073 374.72 301.294 374.907 300.6 375.28L266.93 394.72C266.677 394.834 266.458 395.012 266.294 395.236C266.131 395.461 266.03 395.724 266 396Z" fill="black"/>
<path opacity="0.3" d="M302.81 374.71V419.71C303.598 419.726 304.377 419.537 305.07 419.16L338.73 399.73C338.987 399.614 339.209 399.431 339.373 399.201C339.536 398.971 339.635 398.701 339.66 398.42V396C339.635 395.719 339.536 395.449 339.373 395.219C339.209 394.989 338.987 394.806 338.73 394.69L305.07 375.25C304.376 374.877 303.597 374.69 302.81 374.71Z" fill="black"/>
<path d="M305.07 416.75L338.74 397.31C339.99 396.58 339.99 395.41 338.74 394.69L305.07 375.25C304.368 374.893 303.592 374.708 302.805 374.708C302.018 374.708 301.242 374.893 300.54 375.25L266.87 394.69C265.62 395.41 265.62 396.58 266.87 397.31L300.54 416.75C301.242 417.107 302.018 417.292 302.805 417.292C303.592 417.292 304.368 417.107 305.07 416.75Z" fill="#26B600"/>
<path opacity="0.5" d="M305.07 416.75L338.74 397.31C339.99 396.58 339.99 395.41 338.74 394.69L305.07 375.25C304.368 374.893 303.592 374.708 302.805 374.708C302.018 374.708 301.242 374.893 300.54 375.25L266.87 394.69C265.62 395.41 265.62 396.58 266.87 397.31L300.54 416.75C301.242 417.107 302.018 417.292 302.805 417.292C303.592 417.292 304.368 417.107 305.07 416.75Z" fill="white"/>
<path opacity="0.05" d="M302.81 374.71C303.597 374.696 304.374 374.882 305.07 375.25L338.74 394.69C339.99 395.41 339.99 396.58 338.74 397.31L305.07 416.74C304.377 417.116 303.598 417.305 302.81 417.29V374.71Z" fill="black"/>
<path d="M281.07 393.05L296.65 342.26V342.18C296.963 341.333 297.565 340.625 298.35 340.18C299.709 339.427 301.237 339.032 302.79 339.032C304.343 339.032 305.871 339.427 307.23 340.18C308.01 340.628 308.608 341.336 308.92 342.18V342.24L324.5 393.04C325.93 397.46 323.92 402.23 318.45 405.66C309.78 411.09 295.73 411.09 287.06 405.66C281.64 402.24 279.63 397.47 281.07 393.05Z" fill="#26B600"/>
<path d="M292.17 356.82V356.77L294.38 349.55C294.209 350.189 294.211 350.863 294.387 351.501C294.563 352.139 294.905 352.719 295.38 353.18C295.788 353.626 296.255 354.013 296.77 354.33C298.619 355.358 300.7 355.897 302.815 355.897C304.931 355.897 307.011 355.358 308.86 354.33C309.375 354.013 309.842 353.626 310.25 353.18C310.726 352.718 311.07 352.136 311.246 351.496C311.422 350.856 311.423 350.181 311.25 349.54L313.47 356.78C313.651 357.385 313.701 358.022 313.617 358.648C313.532 359.274 313.315 359.875 312.98 360.41C312.354 361.409 311.501 362.245 310.49 362.85C309.644 363.353 308.741 363.752 307.8 364.04C304.569 365.06 301.101 365.06 297.87 364.04C296.929 363.752 296.026 363.353 295.18 362.85C294.169 362.245 293.316 361.409 292.69 360.41C292.36 359.88 292.143 359.288 292.053 358.67C291.964 358.052 292.003 357.422 292.17 356.82Z" fill="#FAFAFA"/>
<path d="M283.24 385.93V385.88L285.46 378.65C285.098 379.827 285.053 381.08 285.33 382.28C285.652 383.631 286.297 384.883 287.21 385.93C288.101 386.961 289.147 387.849 290.31 388.56C297.2 392.87 308.37 392.87 315.26 388.56C316.423 387.849 317.469 386.961 318.36 385.93C319.277 384.886 319.922 383.632 320.24 382.28C320.515 381.083 320.474 379.836 320.12 378.66L322.33 385.87V385.94C322.693 387.115 322.775 388.358 322.57 389.57C322.12 392.33 320.22 395 316.85 397.11C309.07 401.99 296.46 401.99 288.68 397.11C285.31 395 283.41 392.33 282.96 389.57C282.772 388.351 282.867 387.106 283.24 385.93Z" fill="#FAFAFA"/>
<path d="M287.71 371.37V371.32L289.93 364.1C289.569 365.297 289.643 366.583 290.14 367.73C290.842 369.249 291.99 370.518 293.43 371.37L293.53 371.44C298.65 374.65 306.94 374.65 312.06 371.44L312.16 371.37C313.6 370.518 314.748 369.249 315.45 367.73C315.952 366.584 316.026 365.296 315.66 364.1L317.88 371.32V371.38C318.25 372.569 318.25 373.841 317.88 375.03C317.401 376.431 316.559 377.68 315.44 378.65C314.887 379.151 314.292 379.603 313.66 380C311.838 381.101 309.838 381.876 307.75 382.29C304.476 382.98 301.094 382.98 297.82 382.29C295.735 381.876 293.738 381.101 291.92 380C291.285 379.603 290.686 379.151 290.13 378.65C289.011 377.68 288.169 376.431 287.69 375.03C287.326 373.836 287.333 372.56 287.71 371.37Z" fill="#FAFAFA"/>
<path opacity="0.1" d="M302.81 339.06C304.367 339.03 305.903 339.428 307.25 340.21C308.03 340.658 308.628 341.366 308.94 342.21V342.27L324.52 393.07C325.95 397.49 323.94 402.26 318.47 405.69C313.711 408.456 308.284 409.864 302.78 409.76H302.91C309.91 408.53 314.68 401.25 313.7 393.6L307.25 343L302.81 339.06Z" fill="black"/>
<path d="M307.25 345.77C309.7 344.24 309.7 341.77 307.25 340.21C305.891 339.457 304.363 339.062 302.81 339.062C301.257 339.062 299.729 339.457 298.37 340.21C295.92 341.75 295.92 344.21 298.37 345.77C299.727 346.528 301.256 346.925 302.81 346.925C304.364 346.925 305.893 346.528 307.25 345.77Z" fill="#26B600"/>
<path opacity="0.5" d="M307.25 345.77C309.7 344.24 309.7 341.77 307.25 340.21C305.891 339.457 304.363 339.062 302.81 339.062C301.257 339.062 299.729 339.457 298.37 340.21C295.92 341.75 295.92 344.21 298.37 345.77C299.727 346.528 301.256 346.925 302.81 346.925C304.364 346.925 305.893 346.528 307.25 345.77Z" fill="white"/>
</svg>
