<svg width="692" height="452" viewBox="0 0 692 452" fill="none" xmlns="http://www.w3.org/2000/svg">
<g clip-path="url(#clip0_806_2)">
<path d="M225.84 399.26C223.07 402.72 225.03 408.26 228.68 410.76C232.33 413.26 237 413.61 241.43 413.86L300.86 417.25C295.2 419.62 289.37 422.1 285.07 426.48C280.77 430.86 278.34 437.69 280.83 443.3C284.39 451.3 295.03 452.6 303.76 452.2C367.19 449.26 426.76 416.65 490.28 416.12C516.69 415.91 542.8 421.28 569.11 423.59C595.42 425.9 623.04 424.91 646.55 412.88C649.55 411.36 652.69 409.31 653.39 406.05C654.09 402.79 650.61 398.82 645.73 399.26" fill="#EBEBEB"/>
<path d="M33.9095 399.56C30.0495 403.23 33.5195 408.01 35.1795 409.72C36.9334 411.33 38.9995 412.562 41.2495 413.34C56.7795 419.73 73.5995 422.34 90.3395 423.76C100.34 424.59 110.66 425.03 120.09 428.58C128.24 431.65 135.5 436.94 143.92 439.18C152.34 441.42 163.02 439.36 166.63 431.44C169.22 425.76 167.789 418.07 172.549 414.03C174.649 412.24 177.5 411.68 180.1 410.76C182.7 409.84 185.41 408.2 186.1 405.52C186.83 402.52 185.799 400.52 182.999 399.26" fill="#EBEBEB"/>
<path d="M335.249 22.2702C335.829 18.0002 329.799 14.4802 325.249 14.1102C323.089 13.9402 320.839 14.2702 318.789 13.5502C314.349 12.0102 312.579 6.27019 308.249 4.44019C305.009 3.08019 301.249 4.29019 298.139 5.87019C295.029 7.45019 291.889 9.44019 288.389 9.67019C285.329 9.86019 282.019 8.73019 279.389 10.2202C277.389 11.3302 276.389 13.6202 274.529 14.9802C272.669 16.3402 270.389 16.5802 268.169 16.7002C265.949 16.8202 263.639 16.8402 261.609 17.7702C259.579 18.7002 257.899 20.8402 258.329 23.0302L335.249 22.2702Z" fill="#E0E0E0"/>
<path d="M259.929 72.7304C260.779 66.5904 252.099 61.5303 245.589 61.0003C242.479 60.7503 239.249 61.2303 236.299 60.2003C229.919 57.9803 227.379 49.7403 221.149 47.1103C216.499 45.1103 211.149 46.8903 206.629 49.1703C202.109 51.4503 197.629 54.2903 192.629 54.6203C188.249 54.9003 183.489 53.2703 179.629 55.4103C176.769 57.0103 175.269 60.3003 172.629 62.2503C169.989 64.2003 166.689 64.5503 163.489 64.7203C160.289 64.8903 156.979 64.9303 154.069 66.2603C151.159 67.5903 148.749 70.6803 149.349 73.8203L259.929 72.7304Z" fill="#EBEBEB"/>
<path d="M676.83 90.2897C677.67 84.1497 669 79.0897 662.48 78.5597C659.37 78.3097 656.14 78.7897 653.2 77.7597C646.82 75.5397 644.27 67.2997 638.05 64.6697C633.39 62.6697 628.05 64.4497 623.52 66.6697C618.99 68.8897 614.52 71.7997 609.52 72.1297C605.13 72.4097 600.37 70.7797 596.52 72.9197C593.66 74.5197 592.16 77.8097 589.52 79.7597C586.88 81.7097 583.58 82.0597 580.39 82.2297C577.2 82.3997 573.88 82.4397 570.96 83.7697C568.04 85.0997 565.64 88.1897 566.25 91.3297L676.83 90.2897Z" fill="#EBEBEB"/>
<path d="M81.2896 47.4102C81.6896 44.5002 77.5796 42.1002 74.4996 41.8502C73.0196 41.7302 71.4996 41.9602 70.0996 41.4702C67.0996 40.4702 65.8696 36.4702 62.9196 35.2702C60.7196 34.3402 58.1796 35.1702 56.0496 36.2702C53.9196 37.3702 51.7996 38.7002 49.4096 38.8502C47.3296 38.9802 45.0796 38.2102 43.2596 39.2302C41.9096 40.0002 41.1996 41.5202 39.9996 42.4402C38.6984 43.2387 37.196 43.6481 35.6696 43.6202C34.151 43.5798 32.6383 43.824 31.2096 44.3402C30.5011 44.6161 29.901 45.1139 29.499 45.7593C29.0971 46.4046 28.9148 47.1627 28.9796 47.9202L81.2896 47.4102Z" fill="#EBEBEB"/>
<path d="M607.359 32.7401C607.759 29.8301 603.649 27.4401 600.559 27.1901C599.089 27.0701 597.559 27.3001 596.169 26.8101C593.169 25.7601 591.939 21.8101 588.989 20.6101C586.789 19.6801 584.249 20.5101 582.109 21.6101C579.969 22.7101 577.859 24.0401 575.479 24.1901C573.399 24.3301 571.149 23.5601 569.329 24.5701C567.979 25.3301 567.269 26.8901 566.019 27.8101C564.722 28.6188 563.217 29.0323 561.689 29.0001C560.17 28.9631 558.657 29.2106 557.229 29.7301C556.529 30.0035 555.936 30.4936 555.534 31.1287C555.133 31.7639 554.946 32.5107 554.999 33.2601L607.359 32.7401Z" fill="#EBEBEB"/>
<path d="M503.119 0.809928C502.745 0.748886 502.375 0.668782 502.009 0.569928C501.002 0.363814 499.967 0.333366 498.949 0.479928C497.275 0.712006 495.71 1.44576 494.46 2.5846C493.211 3.72343 492.335 5.21395 491.949 6.85993V6.85993L491.779 7.53993L491.519 6.89993C490.813 5.18739 489.607 3.7273 488.059 2.70993C486.797 1.88236 485.345 1.3902 483.839 1.27993C482.438 1.20008 481.035 1.37977 479.699 1.80993C480.005 1.60251 480.343 1.44708 480.699 1.34993C481.705 1.03635 482.758 0.904284 483.809 0.959928C485.383 1.03084 486.911 1.5136 488.239 2.35993C489.93 3.3972 491.246 4.94511 491.999 6.77993H491.569V6.72993C492.033 4.8634 493.097 3.20124 494.599 1.99993C495.838 1.00766 497.332 0.386974 498.909 0.209928C499.961 0.0853121 501.027 0.163388 502.049 0.439929C502.423 0.505727 502.784 0.630621 503.119 0.809928V0.809928Z" fill="#E0E0E0"/>
<path d="M405.86 14.79C405.86 14.79 405.5 15.21 404.86 15.96C403.942 17.0135 403.112 18.1406 402.38 19.33C399.94 23.2619 398.661 27.803 398.69 32.43V32.59H398.23C397.528 28.0629 395.43 23.8678 392.23 20.59C390.864 19.2507 389.37 18.0483 387.77 17C387.77 17 387.91 17 388.14 17.16C388.37 17.32 388.71 17.46 389.14 17.73C390.327 18.4789 391.43 19.354 392.43 20.34C395.778 23.6194 397.971 27.8971 398.68 32.53H398.23V32.37C398.191 27.6585 399.541 23.0399 402.11 19.09C402.876 17.8999 403.753 16.7849 404.73 15.76C405.07 15.4 405.37 15.15 405.56 14.97C405.651 14.8966 405.752 14.836 405.86 14.79V14.79Z" fill="#E0E0E0"/>
<path d="M452.049 87.7104C452.049 87.7604 451.259 87.4404 449.789 87.1104C447.72 86.6604 445.587 86.5791 443.489 86.8704C440.378 87.2804 437.442 88.5476 435.009 90.5304C432.021 92.9611 429.913 96.3057 429.009 100.05V100.15L428.829 100.83L428.569 100.19C427.109 96.6428 424.61 93.6203 421.399 91.5204C418.772 89.8167 415.754 88.8116 412.629 88.6004C410.525 88.4523 408.411 88.6482 406.369 89.1804C404.929 89.5604 404.159 89.8904 404.149 89.8504C404.322 89.7487 404.502 89.6617 404.689 89.5904C405.224 89.3607 405.771 89.1637 406.329 89.0004C408.886 88.2537 411.572 88.061 414.209 88.4352C416.845 88.8094 419.372 89.7419 421.619 91.1704C424.927 93.2865 427.504 96.3694 428.999 100H428.569V99.8904C429.497 96.0527 431.666 92.6287 434.739 90.1504C436.838 88.4864 439.292 87.3271 441.91 86.7618C444.528 86.1966 447.241 86.2406 449.839 86.8904C450.403 87.0321 450.958 87.2091 451.499 87.4204C451.693 87.496 451.878 87.5933 452.049 87.7104V87.7104Z" fill="#E0E0E0"/>
<path d="M535.76 51.2395C535.76 51.2395 535.32 51.1095 534.51 50.9495C533.378 50.7135 532.213 50.6796 531.07 50.8495C529.374 51.0762 527.775 51.7685 526.45 52.8495C524.83 54.1807 523.685 56.002 523.19 58.0395V58.0395L523.01 58.7195L522.75 58.0795C521.954 56.1468 520.595 54.4985 518.85 53.3495C517.422 52.4176 515.78 51.8636 514.08 51.7395C512.929 51.6523 511.771 51.7468 510.65 52.0195C509.86 52.2195 509.43 52.3895 509.42 52.3495C509.41 52.3095 509.51 52.2795 509.71 52.1895C509.997 52.0538 510.295 51.9401 510.6 51.8495C512.013 51.4208 513.502 51.3017 514.965 51.5001C516.428 51.6986 517.832 52.21 519.08 52.9995C520.919 54.1754 522.351 55.89 523.18 57.9095H522.74V57.8495C523.253 55.7162 524.459 53.8134 526.17 52.4395C527.336 51.5225 528.697 50.8868 530.149 50.5815C531.601 50.2763 533.103 50.3098 534.54 50.6795C534.853 50.7609 535.161 50.8645 535.46 50.9895C535.67 51.1695 535.77 51.2195 535.76 51.2395Z" fill="#E0E0E0"/>
<path d="M473.86 39C473.86 39 473.43 39.49 472.65 40.37C471.542 41.6189 470.539 42.9568 469.65 44.37C466.768 49.0346 465.261 54.4173 465.3 59.9V60.09H464.84C464.389 57.1557 463.428 54.323 462 51.72C460.842 49.58 459.387 47.614 457.68 45.88C456.532 44.7049 455.277 43.6402 453.93 42.7C452.93 42.04 452.42 41.7 452.44 41.7C452.46 41.7 452.59 41.7 452.86 41.9C453.13 42.1 453.54 42.25 454.03 42.58C455.428 43.4752 456.728 44.5142 457.91 45.68C461.859 49.5679 464.45 54.6242 465.3 60.1H464.84V59.9C464.802 54.3288 466.394 48.8681 469.42 44.19C470.324 42.7802 471.363 41.4607 472.52 40.25C472.91 39.82 473.27 39.52 473.52 39.25C473.623 39.1536 473.737 39.0696 473.86 39V39Z" fill="#E0E0E0"/>
<path d="M333.86 114.549C333.75 114.639 322.311 101.299 308.321 84.7491C294.331 68.1991 283.07 54.7491 283.18 54.6191C283.29 54.4891 294.72 67.8691 308.72 84.4191C322.72 100.969 334 114.449 333.86 114.549Z" fill="#F4B313"/>
<path d="M363.74 101.13C363.6 101.13 360.53 85.19 356.88 65.49C353.23 45.79 350.39 29.77 350.53 29.75C350.67 29.73 353.74 45.68 357.39 65.39C361.04 85.1 363.89 101.1 363.74 101.13Z" fill="#F4B313"/>
<path d="M415.821 28.4796C415.961 28.5296 410.821 45.3896 404.371 66.1496C397.921 86.9096 392.561 103.71 392.421 103.66C392.281 103.61 397.421 86.7596 403.871 65.9896C410.321 45.2196 415.691 28.4396 415.821 28.4796Z" fill="#F4B313"/>
<path d="M482.07 49.4595C482.18 49.5495 469.07 65.0195 452.72 84.0095C436.37 102.999 423.08 118.319 423 118.219C422.92 118.119 436 102.659 452.35 83.6695C468.7 64.6795 482 49.3595 482.07 49.4595Z" fill="#F4B313"/>
<path d="M498.11 117.299C498.17 117.439 488.7 121.459 476.97 126.299C465.24 131.139 455.69 134.949 455.63 134.819C455.57 134.689 465.04 130.659 476.78 125.819C488.52 120.979 498.06 117.169 498.11 117.299Z" fill="#F4B313"/>
<path d="M329.44 135.76C340.83 117.86 363.66 108.06 384.44 112.12C405.22 116.18 423.31 129.83 428.07 151.7L387.07 191.91L329.44 135.76Z" fill="#F4B313"/>
<path d="M405.31 124.999C405.068 124.885 404.837 124.747 404.62 124.589C404.18 124.309 403.56 123.839 402.7 123.339C400.318 121.845 397.82 120.544 395.23 119.449C391.381 117.819 387.353 116.647 383.23 115.959C376.143 114.786 368.888 115.1 361.928 116.88C354.968 118.66 348.454 121.867 342.8 126.299C340.577 128.019 338.5 129.918 336.59 131.979C335.89 132.689 335.41 133.299 335.05 133.679C334.883 133.89 334.695 134.085 334.49 134.259C334.631 134.029 334.792 133.812 334.97 133.609C335.3 133.209 335.76 132.609 336.44 131.839C338.307 129.718 340.358 127.767 342.57 126.009C349.899 120.129 358.69 116.355 368 115.089C377.321 113.92 386.784 115.302 395.38 119.089C397.971 120.199 400.457 121.538 402.81 123.089C403.65 123.619 404.26 124.089 404.68 124.419C404.906 124.595 405.116 124.789 405.31 124.999V124.999Z" fill="white"/>
<path d="M412.831 132.269C412.691 132.329 412.101 131.139 411.081 129.879C410.061 128.619 409.031 127.779 409.081 127.659C410 128.107 410.81 128.753 411.451 129.55C412.092 130.346 412.55 131.275 412.791 132.269H412.831Z" fill="white"/>
<path d="M541.58 213.54L444.64 136.58L387.42 192.69L282.36 90.8799L178.94 192.69L62.6504 398.54H630.43L541.58 213.54Z" fill="#26B600"/>
<g opacity="0.8">
<path d="M541.58 213.54L444.64 136.58L387.42 192.69L282.36 90.8799L178.94 192.69L62.6504 398.54H630.43L541.58 213.54Z" fill="white"/>
</g>
<path d="M223.221 149.1L273.031 115.12L260.711 140.8L289.071 113.45L324.041 131.28L282.361 90.8799L223.221 149.1Z" fill="#FAFAFA"/>
<path d="M387.42 192.69L365.91 221.96L439.72 157.73L445.47 170.66L454.31 154.28L474.22 160.06L444.64 136.58L387.42 192.69Z" fill="#FAFAFA"/>
<path d="M382.4 194.301C382.184 194.154 381.98 193.991 381.79 193.811L380.14 192.331C378.7 191.051 376.66 189.151 374.14 186.771C369.14 182.031 362.43 175.291 355.08 167.771C347.73 160.251 341.08 153.491 336.08 148.681L330.31 143.001L328.72 141.451C328.527 141.28 328.35 141.093 328.19 140.891C328.405 141.035 328.606 141.199 328.79 141.381L330.45 142.851C331.88 144.131 333.92 146.041 336.45 148.411C341.45 153.161 348.17 159.891 355.52 167.411C362.87 174.931 369.52 181.681 374.47 186.501L380.32 192.171L381.91 193.721C382.092 193.898 382.256 194.092 382.4 194.301V194.301Z" fill="#26B600"/>
<path d="M628.841 395.14L624.131 385.26L606.131 347.72L541.781 213.44V213.39C512.411 190.06 479.781 164.13 444.871 136.39L444.701 136.25L444.541 136.4L387.491 192.34L372.781 178.08L282.531 90.7003L282.361 90.5303L282.181 90.7003L178.801 192.55L124.801 295.41C121.467 301.79 118.524 307.41 115.971 312.27C116.391 311.57 116.821 310.88 117.261 310.19C119.547 305.85 122.131 300.96 125.011 295.52L179.151 192.77C208.811 163.59 244.001 129 282.361 91.2303L372.361 178.45L387.251 192.88L387.431 193.06L387.621 192.88L444.671 136.88L541.411 213.64C568.151 269.24 590.411 315.46 605.941 347.79L624.001 385.31C626.091 389.63 627.691 392.94 628.781 395.17C629.871 397.4 630.431 398.54 630.431 398.54C630.431 398.54 629.901 397.38 628.841 395.14Z" fill="#263238"/>
<path d="M211 298.12L204.2 261.29L193.87 295.57L196.93 294.37L189.43 314.85L193.75 312.93L188.55 320.76L211.99 320.67L209.98 313.82L211.98 317.38L207.56 295.82L211 298.12Z" fill="#26B600"/>
<path opacity="0.6" d="M211 298.12L204.2 261.29L193.87 295.57L196.93 294.37L189.43 314.85L193.75 312.93L188.55 320.76L211.99 320.67L209.98 313.82L211.98 317.38L207.56 295.82L211 298.12Z" fill="white"/>
<path d="M233.41 283.13L224.47 233.69L210.44 279.62L214.55 278.02L204.39 305.45L210.2 302.9L203.18 320.76H234.62L231.96 304.18L234.62 308.96L228.81 280.03L233.41 283.13Z" fill="#26B600"/>
<path opacity="0.4" d="M233.41 283.13L224.47 233.69L210.44 279.62L214.55 278.02L204.39 305.45L210.2 302.9L203.18 320.76H234.62L231.96 304.18L234.62 308.96L228.81 280.03L233.41 283.13Z" fill="white"/>
<path d="M461.369 287.58L454.699 250.7L444.229 284.97L447.299 283.78L439.719 304.24L444.049 302.33L438.819 315.66H462.269L460.289 303.29L462.269 306.86L457.939 285.27L461.369 287.58Z" fill="#26B600"/>
<path opacity="0.6" d="M461.369 287.58L454.699 250.7L444.229 284.97L447.299 283.78L439.719 304.24L444.049 302.33L438.819 315.66H462.269L460.289 303.29L462.269 306.86L457.939 285.27L461.369 287.58Z" fill="white"/>
<path d="M188.08 305.741L184.51 286.021L178.91 304.341L180.55 303.711L176.5 314.651L178.81 313.631L176.02 320.761H188.56L187.5 314.141L188.56 316.051L186.24 304.511L188.08 305.741Z" fill="#26B600"/>
<path opacity="0.4" d="M188.08 305.741L184.51 286.021L178.91 304.341L180.55 303.711L176.5 314.651L178.81 313.631L176.02 320.761H188.56L187.5 314.141L188.56 316.051L186.24 304.511L188.08 305.741Z" fill="white"/>
<path d="M445.129 292.221L439.529 261.261L430.749 290.021L433.319 289.021L426.959 306.201L430.599 304.601L426.199 315.781H445.889L444.229 305.401L445.889 308.391L442.249 290.281L445.129 292.221Z" fill="#26B600"/>
<path opacity="0.4" d="M445.129 292.221L439.529 261.261L430.749 290.021L433.319 289.021L426.959 306.201L430.599 304.601L426.199 315.781H445.889L444.229 305.401L445.889 308.391L442.249 290.281L445.129 292.221Z" fill="white"/>
<path d="M467.389 315.91H421.659C421.559 315.91 421.479 315.85 421.479 315.78C421.479 315.71 421.559 315.66 421.659 315.66H467.389C467.489 315.66 467.569 315.66 467.569 315.78C467.569 315.9 467.489 315.91 467.389 315.91Z" fill="#263238"/>
<path d="M248.999 320.881H168.259C168.079 320.881 167.939 320.831 167.939 320.761C167.939 320.691 168.079 320.631 168.259 320.631H248.999C249.179 320.631 249.319 320.691 249.319 320.761C249.319 320.831 249.149 320.881 248.999 320.881Z" fill="#263238"/>
<path d="M570.44 262.65L538.05 83.75L487.29 249.95L502.17 244.18L465.41 343.44L486.42 334.2L461.04 398.84H574.81L565.18 338.82L574.81 356.13L553.77 251.43L570.44 262.65Z" fill="#263238"/>
<path d="M149.71 268.8L116.22 41.4004L69.8897 256.62L84.1697 251.07L48.8797 346.37L69.0497 337.51L44.6797 399.56H153.91L144.67 341.94L153.91 358.56L133.7 258.03L149.71 268.8Z" fill="#263238"/>
<path d="M170.859 341.79H160.979V399.26H170.859V341.79Z" fill="#263238"/>
<path d="M163.23 97.0508C163.23 98.4008 136.71 181.991 136.71 181.991L150 168.511L130.9 226.931L143.48 209.401L128.65 282.661L135.84 275.021L123.23 326.701L134 313.211L123.22 351.861L208.61 345.571L188.38 272.771L200.6 286.251L184.79 233.251L192.88 237.741L174.46 169.401L183 175.251L163.23 97.0508Z" fill="#455A64"/>
<path d="M656.299 312.01L635.43 196.7L602.71 303.83L612.299 300.11L588.609 364.09L602.14 358.14L586.52 399.19L659.039 399.26L652.919 361.12L659.12 372.28L645.56 304.78L656.299 312.01Z" fill="#455A64"/>
<path d="M582.909 310.76L570.319 303.53L566.139 281.83L562.619 282.8L565.669 303.3L553.599 295.13L550.949 298.16L566.929 308.33L582.909 315.82V310.76Z" fill="#263238"/>
<path d="M590.4 279.11H581.17V398.86H590.4V279.11Z" fill="#263238"/>
<path d="M583.26 50.3809C583.26 51.6409 558.48 129.761 558.48 129.761L570.87 117.161L553 171.761L564.76 155.381L550.9 223.841L557.62 216.701L545.88 265.001L556 252.401L545.92 288.521L625.72 282.641L606.82 214.641L618.24 227.241L603.46 177.681L611.02 181.881L593.76 118.001L601.76 123.461L583.26 50.3809Z" fill="#26B600"/>
<path d="M585.939 189.82C585.846 190.22 585.712 190.608 585.539 190.98C585.229 191.79 584.809 192.85 584.299 194.15L579.829 205.08L579.629 205.57L579.389 205.11C578.132 202.777 577.043 200.358 576.129 197.87C575.769 196.87 575.449 195.93 575.129 195H575.609C573.409 200.61 571.259 205.5 569.609 209C568.799 210.74 568.129 212.12 567.609 213.07C567.389 213.5 567.199 213.85 567.039 214.15C566.982 214.279 566.908 214.4 566.819 214.51C566.985 213.988 567.193 213.48 567.439 212.99L569.259 208.86C570.799 205.35 572.889 200.45 575.069 194.86L575.339 194.17L575.559 194.88C575.839 195.8 576.169 196.75 576.559 197.72C577.462 200.184 578.531 202.582 579.759 204.9H579.319C581.179 200.55 582.779 196.79 583.959 194.04L585.329 190.93C585.494 190.54 585.698 190.168 585.939 189.82V189.82Z" fill="#263238"/>
<path d="M594.44 160.661C594.265 160.395 594.114 160.114 593.99 159.821C593.69 159.181 593.3 158.381 592.85 157.431C591.85 155.431 590.41 152.571 588.53 149.431L588.98 149.371C588.58 150.911 588.16 152.561 587.71 154.281C587.43 155.351 587.15 156.391 586.89 157.401L586.7 158.101L586.41 157.441C584.71 153.661 583.23 150.321 582.2 147.921L581 145.101C580.841 144.781 580.717 144.446 580.63 144.101C580.85 144.411 581.031 144.747 581.17 145.101C581.52 145.841 581.97 146.761 582.5 147.871C583.62 150.221 585.15 153.531 586.87 157.311H586.39C586.65 156.311 586.93 155.261 587.21 154.191C587.66 152.471 588.1 150.821 588.5 149.281L588.65 148.701L588.96 149.221C590.498 151.859 591.89 154.58 593.13 157.371C593.59 158.371 593.93 159.241 594.13 159.821C594.268 160.087 594.372 160.369 594.44 160.661V160.661Z" fill="#263238"/>
<path d="M583.14 100.811C582.735 101.769 582.264 102.698 581.73 103.591C580.8 105.291 579.47 107.651 577.94 110.331L577.59 110.941L577.46 110.251C577.32 109.471 577.18 108.671 577.03 107.851C576.78 106.421 576.55 105.061 576.32 103.791L576.78 103.881C575.35 106.141 574.11 108.061 573.22 109.421C572.778 110.166 572.276 110.875 571.72 111.541C572.063 110.744 572.478 109.981 572.96 109.261C573.78 107.861 574.96 105.891 576.36 103.621L576.7 103.071L576.81 103.701L577.55 107.761C577.69 108.581 577.83 109.381 577.97 110.161L577.49 110.081C579.05 107.411 580.43 105.081 581.49 103.421C581.972 102.509 582.524 101.637 583.14 100.811Z" fill="#263238"/>
<path d="M64.6498 324.25H51.7598V399.25H64.6498V324.25Z" fill="#455A64"/>
<path d="M55.4597 77.6006C55.4597 78.9806 28.4597 164.201 28.4597 164.201L41.9797 150.461L22.4697 210.001L35.2997 192.151L20.1797 266.841L27.5097 259.051L14.6797 311.741L25.6797 298.001L14.6797 337.401L101.74 331.001L81.1197 256.771L93.5697 270.521L77.4497 216.451L85.6997 221.001L66.9097 151.371L75.6197 157.371L55.4597 77.6006Z" fill="#26B600"/>
<path d="M68.4196 215.361C68.4196 215.361 68.3096 215.291 68.1296 215.121L67.3396 214.361C66.6196 213.641 65.6396 212.661 64.4196 211.461L54.3596 201.241L54.7696 201.111C54.1996 204.451 53.5796 208.111 52.9296 211.931L51.8396 218.171L51.6896 219.061L51.3596 218.231C49.1671 212.787 47.493 207.149 46.3596 201.391C45.9396 199.231 45.6796 197.491 45.5196 196.301C45.4396 195.701 45.3996 195.231 45.3696 194.921C45.3455 194.758 45.3455 194.593 45.3696 194.431C45.4202 194.584 45.457 194.741 45.4796 194.901L45.7196 196.271C45.9296 197.461 46.2396 199.181 46.7196 201.271C47.9372 206.984 49.6469 212.582 51.8296 218.001L51.3396 218.061C51.6896 216.061 52.0396 213.951 52.4096 211.811C53.0796 207.991 53.7096 204.331 54.2896 201.001L54.3696 200.521L54.7096 200.871L64.6296 211.221L67.4496 214.221L68.1896 215.031C68.2814 215.129 68.3588 215.24 68.4196 215.361V215.361Z" fill="#263238"/>
<path d="M36.75 283C37.0757 279.115 37.745 275.267 38.75 271.5C38.681 273.447 38.44 275.385 38.03 277.29C37.7782 279.228 37.3498 281.14 36.75 283V283Z" fill="#263238"/>
<path d="M66.4992 253.79C66.449 254.015 66.3718 254.233 66.2692 254.44L65.5092 256.26L62.6292 262.94L52.8692 285.13L52.5492 285.86L52.3792 285.08L51.9392 283.08C50.6492 277.2 49.4292 271.66 48.3792 266.85L48.7892 266.93L40.7892 278.65L38.5492 282L37.9392 282.85C37.8693 282.955 37.7889 283.052 37.6992 283.14C37.7418 283.023 37.7989 282.912 37.8692 282.81L38.4292 281.92L40.5992 278.56L48.4092 266.73L48.7092 266.28L48.8292 266.81C49.8992 271.61 51.1392 277.15 52.4492 283.03L52.8892 285.03L52.3992 284.98C56.2792 276.3 59.7692 268.53 62.2992 262.86C63.5692 260.1 64.5892 257.86 65.2992 256.24L66.1392 254.46C66.2297 254.222 66.3507 253.997 66.4992 253.79Z" fill="#263238"/>
<path d="M73.3495 320.82C71.1713 318.452 69.1217 315.968 67.2095 313.38C65.1607 310.896 63.2479 308.302 61.4795 305.61C63.6561 307.984 65.7056 310.471 67.6195 313.06C69.6667 315.543 71.5795 318.133 73.3495 320.82V320.82Z" fill="#263238"/>
<path d="M65.0696 144.411C64.8298 144.135 64.6124 143.841 64.4196 143.531L62.7096 141.001L56.8596 132.001L57.2896 131.921C56.6996 134.921 56.1496 138.221 55.7496 141.741C55.4296 144.531 55.2196 147.231 55.1096 149.741V150.68L54.6896 149.84C52.8805 146.211 51.4625 142.4 50.4596 138.471C50.0996 137.021 49.8596 135.851 49.7196 135.051C49.6297 134.643 49.5762 134.228 49.5596 133.811C49.7037 134.203 49.8108 134.608 49.8796 135.021C50.0696 135.811 50.3496 136.961 50.7596 138.391C51.8492 142.263 53.3127 146.021 55.1296 149.611L54.6596 149.711C54.7596 147.231 54.9596 144.521 55.2796 141.711C55.6896 138.171 56.2796 134.831 56.8696 131.851L56.9996 131.271L57.3096 131.771L63.0096 140.87L64.5996 143.491C64.7834 143.783 64.9407 144.09 65.0696 144.411V144.411Z" fill="#263238"/>
<path d="M428.6 399.19L439 362.24L504.83 325.86H542.21L548.16 338.1L557.42 337.1L573.3 365.22L586.53 363.23L621.52 399.42L428.6 399.19Z" fill="#E0E0E0"/>
<path d="M439 362.24H495.46L542.21 325.86H504.83L439 362.24Z" fill="#F5F5F5"/>
<path d="M540.84 366.561C540.17 366.561 508.75 384.041 508.75 384.041L498.14 398.751L505.43 398.701L514 384.541L547 367.441L540.84 366.561Z" fill="#F5F5F5"/>
<path d="M570.6 397.45C570.48 397.53 565.36 390.77 559.17 382.34C552.98 373.91 548 367 548.15 366.93C548.3 366.86 553.39 373.6 559.59 382.03C565.79 390.46 570.71 397.36 570.6 397.45Z" fill="#F5F5F5"/>
<path d="M428.6 399.2H429.6H432.46H443.46L484.25 399.1L622 398.78L621.82 399.22L594.82 372.05L586.26 363.42L586.48 363.49L573.25 365.49H573.07L572.98 365.34L557.2 337.23L557.45 337.35L548.19 338.35H548.01L547.94 338.19L542 326L542.22 326.14H504.84H504.95L439.08 362.46L439.15 362.37C432.5 385.65 428.9 398.27 428.61 399.29C428.61 399.29 428.61 399.08 428.77 398.67C428.93 398.26 429.05 397.67 429.27 396.83C429.73 395.19 430.4 392.77 431.27 389.62C433.03 383.29 435.61 374.03 438.87 362.29V362.24H438.92L504.71 325.78H504.77H542.15H542.3L542.37 325.92L548.37 338.16L548.12 338.02L557.38 337.02H557.55L557.63 337.17L573.51 365.28L573.25 365.15L586.48 363.15H586.61L586.7 363.24C589.54 366.1 592.396 368.977 595.27 371.87L622.21 399.05L622.64 399.49H622H484H443.28H432.35H428.6V399.2Z" fill="#263238"/>
<path d="M189.63 313.79C188.821 313.457 187.935 313.354 187.071 313.493C186.207 313.632 185.398 314.008 184.734 314.578C184.07 315.149 183.577 315.892 183.31 316.725C183.043 317.559 183.012 318.45 183.22 319.3C180.13 317.94 176.3 319.76 174.63 322.69C172.96 325.62 173.1 329.28 174.06 332.51C172.964 332.544 171.904 332.913 171.025 333.569C170.146 334.225 169.49 335.135 169.145 336.176C168.8 337.217 168.783 338.339 169.097 339.389C169.411 340.44 170.041 341.369 170.9 342.05C169.619 341.974 168.354 342.361 167.335 343.142C166.316 343.922 165.613 345.043 165.353 346.3C165.093 347.556 165.294 348.864 165.92 349.985C166.546 351.105 167.554 351.962 168.76 352.4C167.42 353.354 166.455 354.747 166.031 356.337C165.608 357.926 165.754 359.614 166.443 361.108C167.132 362.602 168.321 363.809 169.805 364.52C171.289 365.23 172.974 365.4 174.57 365C174.597 366.292 174.961 367.554 175.624 368.662C176.287 369.771 177.228 370.688 178.353 371.322C179.478 371.957 180.749 372.288 182.041 372.282C183.332 372.277 184.6 371.935 185.72 371.29C186.687 372.649 187.94 373.779 189.39 374.601C190.841 375.424 192.454 375.919 194.116 376.051C195.778 376.184 197.449 375.95 199.012 375.368C200.574 374.786 201.99 373.868 203.16 372.68C205.41 374.07 207.91 375.39 210.57 375.24C213.23 375.09 215.93 372.92 215.69 370.24C218.09 371.06 220.75 371.75 223.1 370.81C225.45 369.87 226.95 366.6 225.27 364.71C226.337 364.844 227.42 364.751 228.449 364.437C229.477 364.123 230.428 363.595 231.238 362.888C232.048 362.18 232.7 361.31 233.15 360.333C233.6 359.357 233.839 358.296 233.85 357.22C234.968 357.71 236.21 357.842 237.406 357.599C238.602 357.355 239.694 356.748 240.531 355.86C241.369 354.972 241.912 353.847 242.085 352.638C242.258 351.43 242.054 350.198 241.5 349.11C244.39 348 245.33 344.11 244.16 341.19C242.99 338.27 240.36 336.33 237.74 334.67C238.641 333.361 239.15 331.822 239.209 330.233C239.267 328.645 238.872 327.073 238.069 325.701C237.267 324.329 236.09 323.213 234.677 322.485C233.264 321.758 231.673 321.447 230.09 321.59C230.436 320.272 230.342 318.877 229.822 317.617C229.301 316.357 228.383 315.302 227.208 314.612C226.032 313.922 224.663 313.636 223.31 313.796C221.956 313.956 220.692 314.555 219.71 315.5C219.86 311.24 215.05 307.61 211 308.95C209.75 309.36 208.57 310.15 207.26 310.1C205.46 310.05 204.1 308.49 202.41 307.9C201.749 307.705 201.055 307.652 200.372 307.744C199.689 307.836 199.033 308.07 198.447 308.433C197.861 308.795 197.358 309.277 196.971 309.847C196.583 310.417 196.321 311.062 196.2 311.74C196.169 311.429 196.074 311.127 195.921 310.855C195.767 310.582 195.559 310.344 195.309 310.156C195.059 309.968 194.773 309.834 194.468 309.763C194.164 309.691 193.848 309.683 193.54 309.74C192.923 309.894 192.358 310.206 191.9 310.647C191.442 311.087 191.107 311.64 190.93 312.25C190.583 313.468 190.454 314.738 190.55 316" fill="#26B600"/>
<path d="M188.74 350.42C188.89 350.42 190.21 361.42 191.74 374.96C193.27 388.5 194.32 399.54 194.18 399.56C194.04 399.58 192.71 388.56 191.18 375.02C189.65 361.48 188.6 350.44 188.74 350.42Z" fill="#263238"/>
<path d="M190.71 366.4C189.154 364.809 187.726 363.097 186.44 361.28C185.014 359.569 183.724 357.751 182.58 355.84C184.13 357.436 185.558 359.148 186.85 360.96C188.276 362.67 189.566 364.489 190.71 366.4V366.4Z" fill="#263238"/>
<path d="M198.6 335.49C198.75 335.49 199.38 349.8 200.01 367.49C200.64 385.18 201.01 399.49 200.89 399.49C200.77 399.49 200.12 385.18 199.49 367.49C198.86 349.8 198.46 335.49 198.6 335.49Z" fill="#263238"/>
<path d="M206.45 336.15C206.476 336.366 206.476 336.585 206.45 336.8C206.45 337.27 206.45 337.88 206.45 338.63C206.4 340.3 206.34 342.63 206.26 345.4C206.1 351.1 205.93 358.99 205.9 367.7C205.87 376.41 205.97 384.3 206.09 390.01C206.15 392.82 206.19 395.11 206.23 396.77C206.23 397.53 206.23 398.14 206.23 398.61C206.245 398.827 206.245 399.044 206.23 399.26C206.176 399.051 206.149 398.836 206.15 398.62C206.15 398.14 206.08 397.54 206.03 396.78C205.93 395.19 205.82 392.88 205.72 390.02C205.51 384.31 205.34 376.42 205.38 367.7C205.42 358.98 205.63 351.09 205.89 345.38C206.01 342.53 206.14 340.22 206.25 338.63L206.38 336.79C206.389 336.576 206.412 336.362 206.45 336.15Z" fill="#263238"/>
<path d="M209.76 357.191C209.062 359.936 207.587 362.423 205.51 364.351C205.4 364.251 206.51 362.781 207.71 360.811C208.91 358.841 209.62 357.141 209.76 357.191Z" fill="#263238"/>
<path d="M221 345.33C220.999 345.52 220.972 345.708 220.92 345.89C220.84 346.3 220.73 346.82 220.6 347.45C220.28 348.87 219.86 350.81 219.34 353.17C218.28 358 216.87 364.68 215.47 372.09C214.07 379.5 212.96 386.24 212.18 391.09C211.81 393.47 211.5 395.43 211.27 396.87C211.16 397.51 211.08 398.03 211.01 398.44C210.989 398.628 210.945 398.812 210.88 398.99C210.856 398.804 210.856 398.616 210.88 398.43C210.93 398.01 210.98 397.43 211.05 396.84C211.2 395.47 211.46 393.48 211.8 391.03C212.48 386.13 213.54 379.38 214.94 371.95C216.34 364.52 217.81 357.86 218.94 353.04C219.52 350.64 220 348.7 220.36 347.36L220.78 345.82C220.833 345.648 220.907 345.484 221 345.33V345.33Z" fill="#263238"/>
<path d="M225.43 356.53C224.152 358.041 222.743 359.436 221.22 360.7C219.809 362.092 218.28 363.36 216.65 364.49C217.929 362.973 219.341 361.574 220.87 360.31C222.278 358.921 223.804 357.656 225.43 356.53V356.53Z" fill="#263238"/>
<path d="M218.81 354.431C217.304 352.306 216.084 349.993 215.18 347.551C216.695 349.669 217.916 351.984 218.81 354.431V354.431Z" fill="#263238"/>
<path d="M241.49 325.651C241.333 324.019 241.76 322.384 242.696 321.038C243.632 319.692 245.015 318.722 246.6 318.301C246.795 319.939 246.383 321.592 245.441 322.947C244.499 324.301 243.094 325.263 241.49 325.651Z" fill="#26B600"/>
<path d="M243.12 329.001C244.65 331.441 249.45 332.001 252.32 330.451C251.263 329.078 249.721 328.162 248.009 327.892C246.298 327.622 244.548 328.019 243.12 329.001" fill="#26B600"/>
<g opacity="0.3">
<path d="M210.38 325.84C210.031 326.931 209.905 328.081 210.009 329.222C210.114 330.363 210.448 331.471 210.99 332.48C212.08 334.48 214.28 335.54 216.49 336.12C216.603 333.994 216.082 331.883 214.995 330.053C213.907 328.223 212.301 326.757 210.38 325.84V325.84Z" fill="black"/>
</g>
<path d="M92.6504 356.5C92.9259 357.021 93.16 357.562 93.3504 358.12C93.7704 359.17 94.3504 360.71 95.0004 362.63C96.3404 366.45 98.0004 371.8 99.5204 377.79C101.04 383.78 102.07 389.3 102.7 393.3C103.01 395.3 103.24 396.92 103.36 398.05C103.458 398.628 103.508 399.214 103.51 399.8C103.351 399.236 103.234 398.661 103.16 398.08L102.33 393.36C101.61 389.36 100.51 383.9 99.0104 377.92C97.5104 371.94 95.9004 366.59 94.6504 362.74L93.1604 358.19C92.9474 357.641 92.7769 357.076 92.6504 356.5V356.5Z" fill="#FAFAFA"/>
<path d="M102.46 365.101C102.657 365.525 102.814 365.967 102.93 366.421C103.21 367.281 103.59 368.541 104.03 370.091C104.93 373.201 106.1 377.511 107.27 382.311C108.44 387.111 109.41 391.461 110.06 394.631C110.38 396.221 110.63 397.501 110.78 398.391C110.894 398.849 110.957 399.318 110.97 399.791C110.802 399.353 110.671 398.901 110.58 398.441C110.35 397.441 110.05 396.211 109.7 394.711C108.96 391.571 107.94 387.221 106.77 382.431C105.6 377.641 104.48 373.321 103.68 370.191C103.3 368.701 102.99 367.451 102.74 366.481C102.595 366.033 102.501 365.57 102.46 365.101Z" fill="#FAFAFA"/>
<path d="M117.93 354.761C117.881 355.341 117.784 355.917 117.64 356.481C117.42 357.581 117.12 359.171 116.78 361.141C115.891 366.273 115.29 371.451 114.98 376.651C114.685 381.853 114.685 387.068 114.98 392.271C115.09 394.271 115.21 395.881 115.3 397.001C115.383 397.577 115.413 398.159 115.39 398.741C115.257 398.174 115.16 397.6 115.1 397.021C114.94 395.911 114.77 394.291 114.61 392.291C113.784 381.851 114.386 371.348 116.4 361.071C116.79 359.071 117.14 357.521 117.4 356.441C117.537 355.869 117.714 355.308 117.93 354.761V354.761Z" fill="#FAFAFA"/>
<path d="M123.28 380.67C123.155 381.61 122.975 382.542 122.74 383.46C121.804 387.909 121.407 392.456 121.56 397C121.627 397.945 121.627 398.894 121.56 399.84C121.313 398.919 121.175 397.973 121.15 397.02C120.955 394.727 120.955 392.422 121.15 390.13C121.344 387.839 121.728 385.567 122.3 383.34C122.522 382.415 122.85 381.519 123.28 380.67Z" fill="#FAFAFA"/>
<path d="M414.33 349.051V349.181C414.33 349.281 414.39 349.401 414.44 349.551C414.53 349.881 414.69 350.361 414.86 350.981C415.22 352.221 415.69 354.041 416.15 356.311C417.284 362.241 417.783 368.275 417.64 374.311C417.52 381.381 416.82 387.751 416.31 392.311C416.04 394.591 415.83 396.451 415.67 397.761C415.61 398.391 415.55 398.881 415.51 399.241V399.631C415.51 399.721 415.51 399.761 415.51 399.761C415.51 399.761 415.51 399.761 415.51 399.631L415.58 399.251C415.58 398.891 415.7 398.401 415.8 397.771C415.98 396.491 416.23 394.631 416.52 392.331C417.332 386.348 417.826 380.326 418 374.291C418.142 368.251 417.612 362.214 416.42 356.291C415.93 354.021 415.42 352.201 415.03 350.971C414.85 350.351 414.67 349.881 414.56 349.551C414.56 349.411 414.46 349.291 414.43 349.191C414.4 349.091 414.34 349.051 414.33 349.051Z" fill="#26B600"/>
<path d="M417.4 363.521C417.68 363.811 419.45 362.521 421.06 360.371C422.67 358.221 423.43 356.171 423.06 355.981C422.69 355.791 421.43 357.461 419.88 359.501C418.33 361.541 417.12 363.241 417.4 363.521Z" fill="#26B600"/>
<path d="M412 357.61C411.75 357.93 412.77 359.14 414.19 360.43C415.61 361.72 416.92 362.6 417.19 362.32C417.46 362.04 416.6 360.67 415.14 359.32C413.68 357.97 412.22 357.3 412 357.61Z" fill="#26B600"/>
<path d="M416.67 357.771C417.01 357.951 418.48 355.821 419.43 352.771C420.38 349.721 420.43 347.181 420.03 347.131C419.63 347.081 418.97 349.461 418.03 352.341C417.09 355.221 416.31 357.581 416.67 357.771Z" fill="#26B600"/>
<path d="M409.34 349.12C409.05 349.38 410.34 351.34 412.34 353.48C414.34 355.62 416.1 357.15 416.39 356.88C416.68 356.61 415.39 354.66 413.39 352.51C411.39 350.36 409.64 348.85 409.34 349.12Z" fill="#26B600"/>
<path d="M417.73 370.54C418 370.83 420.05 369.36 422.09 367.04C424.13 364.72 425.32 362.5 425 362.27C424.68 362.04 423 363.83 421 366.08C419 368.33 417.46 370.25 417.73 370.54Z" fill="#26B600"/>
<path d="M413.22 363.38C412.9 363.62 413.63 365.11 414.85 366.7C416.07 368.29 417.31 369.39 417.63 369.15C417.95 368.91 417.22 367.42 416 365.82C414.78 364.22 413.54 363.14 413.22 363.38Z" fill="#26B600"/>
<path d="M417.74 377.77C418.01 378.05 419.96 376.56 421.68 374.12C423.4 371.68 424.16 369.35 423.8 369.19C423.44 369.03 422.15 370.97 420.5 373.29C418.85 375.61 417.45 377.49 417.74 377.77Z" fill="#26B600"/>
<path d="M413.4 371.321C413.11 371.601 413.88 372.891 415.03 374.321C416.18 375.751 417.29 376.731 417.62 376.491C417.95 376.251 417.33 374.841 416.15 373.401C414.97 371.961 413.69 371.051 413.4 371.321Z" fill="#26B600"/>
<path d="M417.23 383.9C417.53 384.17 419.37 382.57 421.34 380.34C423.31 378.11 424.66 376.08 424.34 375.81C424.02 375.54 422.2 377.15 420.23 379.38C418.26 381.61 416.93 383.64 417.23 383.9Z" fill="#26B600"/>
<path d="M411.821 378.31C411.511 378.57 412.551 380.31 414.011 382.24C415.471 384.17 416.851 385.65 417.191 385.42C417.531 385.19 416.671 383.35 415.191 381.36C413.711 379.37 412.121 378.05 411.821 378.31Z" fill="#26B600"/>
<path d="M416.53 391.74C416.81 392.02 419.04 390.34 421.53 387.97C424.02 385.6 425.78 383.46 425.53 383.17C425.28 382.88 423.02 384.56 420.53 386.93C418.04 389.3 416.26 391.45 416.53 391.74Z" fill="#26B600"/>
<path d="M411.81 384.841C411.46 385.011 412 386.841 413.33 388.601C414.66 390.361 416.19 391.471 416.46 391.181C416.73 390.891 415.74 389.461 414.46 387.751C413.18 386.041 412.17 384.651 411.81 384.841Z" fill="#26B600"/>
<path d="M12.5898 359.551C12.9556 360.004 13.2897 360.482 13.5898 360.981C14.1898 361.921 15.0298 363.301 16.0298 364.981C18.0298 368.431 20.6198 373.301 23.1298 378.841C25.6398 384.381 27.5698 389.561 28.8398 393.341C29.4698 395.231 29.9498 396.771 30.2498 397.841C30.4349 398.389 30.5786 398.951 30.6798 399.521C30.4362 398.996 30.229 398.454 30.0598 397.901L28.4898 393.461C27.1398 389.721 25.1498 384.591 22.6598 379.061C20.1698 373.531 17.6598 368.651 15.6598 365.161L13.3598 361.051C13.0666 360.57 12.8092 360.069 12.5898 359.551V359.551Z" fill="#263238"/>
<path d="M32.6402 343.46C32.6684 343.652 32.6684 343.848 32.6402 344.04C32.6402 344.47 32.5702 345.04 32.5102 345.69C32.3802 347.12 32.2202 349.18 32.0402 351.74C31.6702 356.85 31.3502 363.93 31.4402 371.74C31.5302 379.55 32.0402 386.63 32.5402 391.74C32.7802 394.29 33.0002 396.36 33.1702 397.74C33.2402 398.41 33.2902 398.95 33.3402 399.38C33.3645 399.573 33.3645 399.767 33.3402 399.96C33.2809 399.777 33.2374 399.59 33.2102 399.4C33.1402 398.97 33.0602 398.4 32.9502 397.77C32.7202 396.35 32.4402 394.29 32.1502 391.77C31.5602 386.67 31.0102 379.59 30.9002 371.77C30.7902 363.95 31.1902 356.84 31.6502 351.72C31.8802 349.16 32.1002 347.1 32.2902 345.72C32.3802 345.05 32.4602 344.51 32.5202 344.08C32.5425 343.87 32.5827 343.663 32.6402 343.46V343.46Z" fill="#263238"/>
<path d="M44.83 365.34C44.7162 365.792 44.5553 366.231 44.35 366.65C44.01 367.47 43.53 368.65 42.96 370.16C39.973 377.929 37.9577 386.037 36.96 394.3C36.77 395.88 36.63 397.17 36.54 398.06C36.5297 398.522 36.4659 398.982 36.35 399.43C36.313 398.967 36.313 398.502 36.35 398.04C36.35 397.15 36.46 395.85 36.61 394.26C37.3976 385.927 39.4197 377.758 42.61 370.02C43.23 368.55 43.77 367.36 44.17 366.56C44.3523 366.134 44.5732 365.726 44.83 365.34V365.34Z" fill="#263238"/>
<path d="M26.9998 399.56C25.957 397.024 24.6463 394.607 23.0898 392.35C21.3893 390.199 19.4615 388.237 17.3398 386.5C18.0906 386.827 18.7857 387.269 19.3998 387.81C20.9374 389.019 22.3062 390.428 23.4698 392C24.6482 393.586 25.6037 395.325 26.3098 397.17C26.6631 397.926 26.8959 398.732 26.9998 399.56Z" fill="#263238"/>
<path d="M395.13 344.551C395.22 344.715 395.291 344.89 395.34 345.071L395.86 346.601C396.3 347.921 396.86 349.851 397.58 352.251C398.97 357.041 400.67 363.731 402.14 371.251C403.61 378.771 404.53 385.571 405.05 390.531C405.31 393.011 405.49 395.021 405.58 396.421C405.58 397.071 405.65 397.601 405.68 398.021C405.704 398.207 405.704 398.395 405.68 398.581C405.631 398.401 405.597 398.217 405.58 398.031C405.53 397.611 405.47 397.081 405.39 396.441C405.22 394.981 404.98 392.991 404.7 390.571C404.08 385.631 403.09 378.811 401.64 371.351C400.19 363.891 398.53 357.201 397.24 352.351L395.67 346.661L395.25 345.111C395.184 344.931 395.144 344.742 395.13 344.551V344.551Z" fill="#263238"/>
<path d="M393.391 373.38C393.606 373.691 393.784 374.027 393.921 374.38C394.231 375.01 394.661 375.94 395.161 377.08C396.161 379.38 397.501 382.59 398.821 386.19C400.141 389.79 401.201 393.1 401.911 395.51C402.271 396.71 402.541 397.69 402.711 398.38C402.822 398.728 402.896 399.086 402.931 399.45C402.749 399.137 402.611 398.8 402.521 398.45C402.251 397.68 401.941 396.74 401.521 395.64C400.721 393.26 399.611 389.98 398.291 386.39C396.971 382.8 395.711 379.58 394.781 377.25C394.361 376.16 393.991 375.25 393.691 374.48C393.544 374.128 393.443 373.758 393.391 373.38Z" fill="#263238"/>
<path d="M399.81 397.07C398.615 394.725 397.279 392.454 395.81 390.27C394.192 388.186 392.445 386.206 390.58 384.34C391.269 384.716 391.899 385.191 392.45 385.75C395.262 388.297 397.516 391.399 399.07 394.86C399.423 395.556 399.673 396.301 399.81 397.07V397.07Z" fill="#263238"/>
<path d="M459 399.9C458.895 399.74 458.801 399.573 458.72 399.4C458.54 399.01 458.31 398.52 458.02 397.93C457.73 397.34 457.36 396.5 457.02 395.57C456.68 394.64 456.17 393.57 455.74 392.41C454.83 390.05 453.87 387.19 452.94 383.97C452.01 380.75 451.18 377.17 450.5 373.36C449.82 369.55 449.43 365.89 449.19 362.55C448.95 359.21 448.9 356.19 448.97 353.66C448.97 352.4 449.05 351.26 449.09 350.25C449.13 349.24 449.2 348.39 449.27 347.68C449.34 346.97 449.39 346.49 449.43 346.06C449.441 345.87 449.474 345.682 449.53 345.5C449.548 345.69 449.548 345.88 449.53 346.07C449.53 346.5 449.53 347.07 449.46 347.69C449.39 348.31 449.38 349.26 449.37 350.26C449.36 351.26 449.3 352.41 449.37 353.67C449.37 356.19 449.47 359.19 449.71 362.52C449.95 365.85 450.4 369.52 451.05 373.27C451.7 377.02 452.57 380.63 453.44 383.84C454.31 387.05 455.26 389.91 456.13 392.28C456.53 393.47 456.97 394.53 457.33 395.46C457.69 396.39 458.01 397.2 458.33 397.85L458.94 399.36C458.983 399.537 459.003 399.718 459 399.9Z" fill="#26B600"/>
<path d="M453.09 383.791C454.33 376.271 456.82 359.181 464.32 349.021C460.483 351.384 457.37 354.757 455.32 358.771C453.288 362.76 451.663 366.945 450.47 371.261C450.47 371.261 453 384.151 453.09 383.791Z" fill="#26B600"/>
<path d="M454.291 387.62C453.872 384.499 454.508 381.327 456.099 378.609C457.69 375.891 460.144 373.783 463.071 372.62C460.361 375.96 457.511 379.62 457.321 383.93C457.151 387.63 456.991 391.32 456.821 395.02C455.931 392.63 455.181 390.02 454.291 387.64" fill="#26B600"/>
<path d="M452.491 381.17C450.673 378.631 448.667 376.231 446.491 373.99C444.543 371.74 442.079 369.993 439.311 368.9C445.409 374.931 450.593 381.821 454.701 389.35" fill="#26B600"/>
<path d="M449 357.44C447.731 352.741 444.912 348.607 441 345.71C441.325 346.581 441.726 347.421 442.2 348.22C444.68 352.73 446.82 357.22 449.31 361.75" fill="#26B600"/>
<path d="M449.33 348.21C450.107 344.606 451.574 341.187 453.65 338.14C455.747 335.081 458.784 332.789 462.3 331.61C456.091 337.229 451.531 344.434 449.11 352.45" fill="#26B600"/>
<path d="M449.9 347C449.83 343.09 448.53 339 445.52 336.51C444.952 335.967 444.228 335.617 443.45 335.51C443.061 335.467 442.669 335.559 442.34 335.77C442.011 335.981 441.764 336.299 441.64 336.67C441.592 336.969 441.62 337.275 441.721 337.56C441.823 337.844 441.994 338.099 442.22 338.3C442.677 338.69 443.176 339.025 443.71 339.3C445.256 340.277 446.557 341.597 447.511 343.158C448.464 344.719 449.046 346.479 449.21 348.3" fill="#26B600"/>
<path d="M15.3698 399.601C15.2835 399.478 15.2098 399.348 15.1498 399.211C15.0098 398.901 14.8298 398.521 14.5998 398.051C14.3698 397.581 14.0798 396.931 13.7798 396.201C13.4798 395.471 13.1198 394.651 12.7798 393.711C12.0598 391.861 11.3098 389.611 10.5698 387.081C9.82977 384.551 9.18977 381.731 8.65977 378.741C8.12977 375.751 7.81977 372.871 7.65977 370.251C7.49977 367.631 7.42977 365.251 7.47977 363.251C7.47977 362.251 7.54978 361.361 7.57978 360.571C7.60978 359.781 7.66978 359.101 7.71978 358.571C7.76978 358.041 7.81977 357.631 7.84977 357.301C7.85718 357.149 7.88065 356.998 7.91977 356.851C7.94287 357 7.94287 357.151 7.91977 357.301C7.91977 357.641 7.91977 358.061 7.91977 358.581C7.91977 359.101 7.85977 359.811 7.84977 360.581C7.83977 361.351 7.78977 362.261 7.84977 363.251C7.84977 365.251 7.91978 367.601 8.10978 370.251C8.29978 372.901 8.65977 375.721 9.16977 378.701C9.67977 381.681 10.3598 384.481 11.0498 387.011C11.7398 389.541 12.4798 391.781 13.1598 393.641C13.4798 394.581 13.8198 395.411 14.0998 396.141C14.3798 396.871 14.6398 397.511 14.8598 398.021C15.0798 398.531 15.2098 398.891 15.3398 399.201C15.4698 399.511 15.3898 399.591 15.3698 399.601Z" fill="#26B600"/>
<path d="M10.7202 386.94C11.7202 381.03 13.6602 367.59 19.5502 359.61C16.5653 361.481 14.1456 364.129 12.5502 367.27C10.9597 370.41 9.68345 373.699 8.74023 377.09C8.74023 377.09 10.6802 387.22 10.7202 386.94Z" fill="#26B600"/>
<path d="M11.6705 390C11.3403 387.545 11.8399 385.049 13.0899 382.909C14.34 380.769 16.2689 379.109 18.5705 378.19C16.4405 380.82 14.2005 383.7 14.0505 387.08L13.6605 395.8C12.9605 393.92 12.3705 391.88 11.6605 390" fill="#26B600"/>
<path d="M10.2501 384.88C8.81156 382.883 7.22723 380.994 5.51011 379.23C3.97334 377.469 2.04031 376.098 -0.129883 375.23C4.67229 379.973 8.75846 385.39 12.0001 391.31" fill="#26B600"/>
<path d="M7.53043 366.23C6.5201 362.526 4.28548 359.272 1.19043 357C1.44638 357.694 1.76433 358.363 2.14043 359C4.14043 362.55 5.77043 366.09 7.72043 369.63" fill="#26B600"/>
<path d="M7.77059 359.001C8.38176 356.166 9.53636 353.476 11.1706 351.081C12.824 348.664 15.2228 346.856 18.0006 345.931C13.1045 350.34 9.50797 356.004 7.60059 362.311" fill="#26B600"/>
<path d="M8.22059 358.001C8.22059 354.931 7.14059 351.721 4.78059 349.751C4.33033 349.329 3.76117 349.057 3.15059 348.971C2.84442 348.938 2.53625 349.01 2.27649 349.176C2.01672 349.341 1.82074 349.589 1.72059 349.881C1.68851 350.117 1.71355 350.357 1.79359 350.582C1.87363 350.806 2.00634 351.008 2.18059 351.171C2.54105 351.481 2.93321 351.752 3.35059 351.981C4.56055 352.742 5.57993 353.771 6.33052 354.988C7.0811 356.205 7.54294 357.577 7.68059 359.001" fill="#26B600"/>
<path d="M369.351 345.62C367.714 347.125 366.417 348.961 365.544 351.006C364.672 353.05 364.245 355.257 364.291 357.48C364.291 365.08 364.981 399.37 364.981 399.37H360.731L354.921 363.18L357.531 350.31L369.351 345.62Z" fill="#F4B313"/>
<path opacity="0.3" d="M369.351 345.62C367.714 347.125 366.417 348.961 365.544 351.006C364.672 353.05 364.245 355.257 364.291 357.48C364.291 365.08 364.981 399.37 364.981 399.37H360.731L354.921 363.18L357.531 350.31L369.351 345.62Z" fill="black"/>
<path d="M288.83 342.45C288.83 342.45 299.12 353.37 290.1 377.45L300.77 399.45L307.05 399.24L299.75 377.33C299.75 377.33 303.23 373.06 307.34 353.76L308.77 341.58L288.83 342.45Z" fill="#F4B313"/>
<path opacity="0.3" d="M288.83 342.45C288.83 342.45 299.12 353.37 290.1 377.45L300.77 399.45L307.05 399.24L299.75 377.33C299.75 377.33 303.23 373.06 307.34 353.76L308.77 341.58L288.83 342.45Z" fill="black"/>
<path d="M386.871 293.35L382.461 288.58L376.381 279.87C376.381 279.87 375.541 290.56 373.461 295.6C371.381 300.64 363.061 303.6 361.271 303.75C359.481 303.9 339.431 306.58 339.431 306.58C339.431 306.58 296.521 306.41 291.121 307.32C288.232 307.909 285.589 309.359 283.541 311.48C283.541 311.48 276.701 316.48 278.041 328.72C279.381 340.96 285.921 352.21 285.321 355.92C284.721 359.63 271.801 369.6 271.801 369.6V399.37H277.801C277.801 399.37 277.931 380 279.861 377.77C281.791 375.54 293.861 367.52 298.861 362.17C302.509 358.035 305.744 353.554 308.521 348.79C312.316 351.103 316.71 352.241 321.151 352.06C328.591 351.76 347.761 349.53 347.761 349.53C347.761 349.53 351.761 353.1 351.031 358.3C350.554 362.794 350.353 367.312 350.431 371.83L355.641 399.17L362.031 399.32C362.031 399.32 360.101 357.71 362.621 352.5C365.141 347.29 372.021 347.22 376.831 337.76C380.831 329.86 387.961 318.17 389.781 314.01C391.601 309.85 393.781 293.61 393.781 293.61L386.871 293.35Z" fill="#F4B313"/>
<g opacity="0.3">
<path d="M377.73 283C378.88 285.72 379.65 288.21 380.8 290.92C381.41 292.36 382.13 293.92 383.53 294.6C384.67 295.16 386.15 295.09 387.01 296.02C385.579 296.399 384.067 296.34 382.67 295.85C381.302 295.29 380.083 294.419 379.109 293.307C378.135 292.194 377.434 290.871 377.06 289.44C376.332 286.569 376.227 283.575 376.75 280.66L377.75 283" fill="black"/>
</g>
<path d="M380.201 331.47C378.431 320.62 381.751 310.09 384.901 299.56C385.114 298.463 385.659 297.458 386.461 296.68C388.381 295.2 391.831 295.42 393.701 293.87C393.077 300.338 391.889 306.739 390.151 313C389.201 316 387.081 319.29 385.531 322L380.201 331.44" fill="white"/>
<path d="M413.061 244.76C413.205 244.468 413.229 244.131 413.129 243.821C413.028 243.51 412.81 243.252 412.521 243.1C412.364 243.008 412.181 242.972 412.001 243C411.281 243.16 409.411 247.65 409.411 247.65C409.521 247.85 407.041 243.65 405.921 241.4C405.711 240.97 403.841 241.64 404.561 243.16C405.281 244.68 408.241 251.79 407.921 253.87C407.821 254.869 407.55 255.843 407.121 256.75C407.121 256.75 405.701 251.05 404.481 250.44C403.581 249.98 402.761 249.96 403.601 253.15C404.841 257.88 404.741 260.02 403.121 261.79C401.311 263.79 397.451 264.74 396.731 263.7C396.011 262.66 394.491 260.27 394.971 258.27C395.451 256.27 394.731 254.83 393.291 255.95C392.309 257.638 391.932 259.61 392.221 261.54C392.414 263.214 392.828 264.855 393.451 266.42L391.841 270.09L395.991 273.44L399.841 268.28C399.841 268.28 406.291 265.22 409.081 260.42C411.871 255.62 410.561 250 410.561 250L413.061 244.76Z" fill="#455A64"/>
<path d="M362.001 246.54C361.856 246.25 361.83 245.915 361.93 245.607C362.029 245.299 362.244 245.041 362.531 244.89C362.691 244.797 362.879 244.765 363.061 244.8C363.781 244.96 365.651 249.45 365.651 249.45C365.541 249.65 368.011 245.45 369.141 243.21C369.351 242.77 371.211 243.45 370.501 244.96C369.791 246.47 366.821 253.6 367.141 255.67C367.241 256.669 367.511 257.643 367.941 258.55C367.941 258.55 369.361 252.86 370.571 252.24C371.471 251.78 372.301 251.77 371.461 254.96C370.221 259.69 370.321 261.82 371.931 263.59C373.751 265.59 377.611 266.59 378.331 265.51C379.051 264.43 380.571 262.07 380.091 260.07C379.611 258.07 380.331 256.63 381.761 257.75C382.746 259.436 383.124 261.409 382.831 263.34C382.636 265.013 382.226 266.653 381.611 268.22L383.221 271.89L379.071 275.25L375.221 270.09C375.221 270.09 368.771 267.02 365.971 262.22C363.171 257.42 364.501 251.76 364.501 251.76L362.001 246.54Z" fill="#455A64"/>
<g opacity="0.3">
<path d="M388.17 293.371C385.59 292.841 383.9 290.371 382.36 288.171C380.548 285.585 378.577 283.113 376.46 280.771" fill="black"/>
</g>
<path d="M377.73 274C377.73 274 375.17 263.19 365.12 267.21C364.71 267.37 363.64 276.87 370.61 278.43C370.61 278.43 374.7 277.94 375.85 279.43C377 280.92 378.47 285.33 378.47 285.33C378.47 285.33 381.67 293.52 383.22 294.5C385.169 295.718 387.422 296.359 389.72 296.35C391.313 296.075 392.742 295.207 393.72 293.92C394.477 293.093 394.938 292.038 395.03 290.92C394.95 289.92 395.44 283.8 396.03 282.73C396.62 281.66 398.24 278.48 398.24 278.48C399.569 278.827 400.975 278.727 402.241 278.193C403.506 277.66 404.561 276.724 405.24 275.53C406.983 272.714 408.206 269.608 408.85 266.36C408.85 266.36 402.71 263.98 399.85 267.75C396.99 271.52 396 272.91 396 272.91L391.85 269.55C388.975 270.725 385.763 270.778 382.85 269.7L377.73 274Z" fill="#F4B313"/>
<path d="M379.23 279.21C379.3 280.069 379.681 280.872 380.3 281.47C380.494 281.632 380.72 281.75 380.964 281.815C381.207 281.881 381.462 281.893 381.71 281.85C382.21 281.763 382.681 281.553 383.08 281.24C382.972 280.848 382.785 280.481 382.531 280.163C382.276 279.845 381.96 279.582 381.6 279.39C381.239 279.2 380.842 279.086 380.434 279.055C380.027 279.025 379.617 279.077 379.23 279.21" fill="#263238"/>
<path d="M378.76 278.661C378.63 278.661 378.39 277.661 379.16 276.611C379.93 275.561 381.05 275.541 381.04 275.681C381.03 275.821 380.2 276.091 379.57 276.921C378.94 277.751 378.91 278.661 378.76 278.661Z" fill="#263238"/>
<path d="M380.241 283.83C380.241 283.97 379.241 283.66 378.781 282.61C378.321 281.56 378.691 280.61 378.781 280.7C378.871 280.79 378.781 281.55 379.211 282.39C379.641 283.23 380.311 283.71 380.241 283.83Z" fill="#F4B313"/>
<path d="M392.91 281.381L392.97 281.491C392.868 281.108 392.86 280.706 392.947 280.319C393.034 279.932 393.213 279.573 393.47 279.271C393.733 278.972 394.064 278.741 394.434 278.597C394.805 278.452 395.204 278.399 395.6 278.441C395.693 278.45 395.78 278.488 395.85 278.551C395.896 278.625 395.917 278.713 395.91 278.801C395.944 279.244 395.906 279.689 395.8 280.121C395.649 280.668 395.29 281.134 394.8 281.421C394.29 281.692 393.696 281.757 393.14 281.601" fill="#263238"/>
<path d="M396.821 278.4C396.821 278.48 396.431 278.47 395.821 278.54C395.095 278.589 394.4 278.85 393.821 279.29C393.342 279.842 393.101 280.561 393.151 281.29C393.151 281.9 393.071 282.29 393.001 282.29C392.931 282.29 392.851 281.93 392.781 281.29C392.727 280.922 392.727 280.548 392.781 280.18C392.85 279.691 393.082 279.24 393.441 278.9C394.113 278.363 394.963 278.099 395.821 278.16C396.461 278.2 396.831 278.34 396.821 278.4Z" fill="#263238"/>
<g opacity="0.3">
<path d="M406.86 266.771C405.278 267.167 403.743 267.73 402.28 268.451C400.804 269.179 399.599 270.36 398.84 271.821C398.476 272.553 398.308 273.368 398.354 274.185C398.4 275.002 398.657 275.793 399.1 276.481L399.33 276.681C399.444 276.868 399.617 277.012 399.821 277.091C400.025 277.171 400.25 277.181 400.46 277.121C400.88 277.005 401.267 276.792 401.59 276.501C403.16 275.346 404.514 273.924 405.59 272.301C406.636 270.658 407.085 268.705 406.86 266.771Z" fill="black"/>
</g>
<g opacity="0.3">
<path d="M373.711 276.351C374.235 276.237 374.71 275.961 375.068 275.563C375.427 275.165 375.652 274.664 375.711 274.131C375.803 273.056 375.489 271.986 374.831 271.131C373.92 269.89 372.67 268.939 371.231 268.391C369.796 267.854 368.273 267.586 366.741 267.601C366.615 267.592 366.49 267.609 366.371 267.651C366.041 267.811 366.051 268.281 366.111 268.651C366.329 270.036 366.743 271.383 367.341 272.651C367.941 273.926 368.891 275.005 370.081 275.761C370.679 276.133 371.349 276.374 372.047 276.469C372.745 276.563 373.455 276.51 374.131 276.311" fill="black"/>
</g>
<path d="M283.13 312.3C278.65 310.35 273.66 308.35 269.02 309.88C266.65 310.65 264.67 312.26 262.6 313.65C260.53 315.04 258.18 316.27 255.69 316.1C258.096 318.115 261.087 319.3 264.22 319.48C267.352 319.66 270.46 318.826 273.08 317.1C272.947 317.782 272.637 318.418 272.183 318.944C271.729 319.47 271.146 319.869 270.49 320.1C272.92 320.62 275.18 318.83 277.03 317.16C278.88 315.49 281.16 313.73 283.58 314.28" fill="#F4B313"/>
<path d="M283.58 314.311C281.16 313.761 278.88 315.531 277.03 317.191C275.18 318.851 272.92 320.651 270.49 320.131C271.146 319.899 271.729 319.5 272.183 318.974C272.637 318.448 272.947 317.813 273.08 317.131C270.46 318.856 267.352 319.691 264.22 319.511C261.087 319.331 258.096 318.145 255.69 316.131C255.69 316.131 260.01 317.371 262.91 316.031C265.81 314.691 265.77 312.541 271.62 311.961C277.47 311.381 283.58 314.311 283.58 314.311Z" fill="white"/>
<path d="M310.92 323.87C311.094 324.184 311.222 324.52 311.3 324.87C311.594 325.781 311.832 326.71 312.01 327.65C313.205 333.93 312.433 340.425 309.8 346.25C309.412 347.129 308.964 347.981 308.46 348.8C308.292 349.11 308.09 349.402 307.86 349.67C307.78 349.62 308.54 348.33 309.46 346.11C311.865 340.298 312.62 333.934 311.64 327.72C311.27 325.33 310.83 323.9 310.92 323.87Z" fill="#263238"/>
<path d="M347.28 349.81C347.22 349.76 347.88 348.98 348.75 347.6C350.971 343.965 352.548 339.973 353.41 335.8C353.529 334.923 353.693 334.052 353.9 333.19C353.991 334.081 353.951 334.981 353.78 335.86C353.453 337.995 352.883 340.086 352.08 342.09C351.312 344.107 350.305 346.024 349.08 347.8C348.601 348.57 347.992 349.25 347.28 349.81V349.81Z" fill="#263238"/>
<path d="M369.561 332.29C369.318 331.204 369.131 330.106 369.001 329C368.582 326.373 367.998 323.774 367.251 321.22C366.496 318.667 365.577 316.166 364.501 313.73C364.006 312.755 363.565 311.754 363.181 310.73C363.381 310.953 363.549 311.202 363.681 311.47C363.981 311.96 364.381 312.7 364.841 313.62C366.019 316.031 366.992 318.537 367.751 321.11C368.51 323.687 369.049 326.323 369.361 328.99C369.481 329.99 369.541 330.84 369.551 331.42C369.599 331.708 369.602 332.002 369.561 332.29V332.29Z" fill="#263238"/>
<path d="M373.711 325.221C373.459 324.16 373.275 323.085 373.161 322.001C372.822 319.411 372.236 316.859 371.411 314.381C370.562 311.915 369.199 309.658 367.411 307.761C366.011 306.321 364.901 305.761 364.951 305.641C365.236 305.728 365.506 305.86 365.751 306.031C366.439 306.445 367.08 306.935 367.661 307.491C369.568 309.369 371.009 311.667 371.871 314.201C372.711 316.712 373.254 319.313 373.491 321.951C373.668 323.031 373.741 324.126 373.711 325.221V325.221Z" fill="#263238"/>
<path d="M348.831 313.74C348.778 313.564 348.683 313.403 348.554 313.272C348.426 313.14 348.267 313.042 348.092 312.985C347.918 312.928 347.732 312.914 347.55 312.945C347.369 312.975 347.198 313.049 347.051 313.16C345.804 314.438 344.788 315.924 344.051 317.55C343.954 317.75 343.904 317.968 343.904 318.19C343.904 318.412 343.954 318.63 344.051 318.83C344.521 319.75 345.661 319.46 346.381 318.95C348.001 317.81 349.451 315.77 348.831 313.74Z" fill="white"/>
<path d="M336.75 314.841C335.679 315.136 334.701 315.7 333.91 316.481C333.529 316.837 333.302 317.328 333.278 317.849C333.253 318.371 333.434 318.881 333.78 319.271C334.062 319.487 334.399 319.62 334.753 319.654C335.107 319.687 335.463 319.62 335.78 319.461C336.401 319.15 336.933 318.69 337.33 318.121C337.824 317.592 338.123 316.912 338.18 316.191C338.176 316.008 338.136 315.827 338.062 315.66C337.988 315.493 337.881 315.342 337.748 315.216C337.615 315.091 337.458 314.993 337.287 314.928C337.116 314.864 336.933 314.834 336.75 314.841V314.841Z" fill="white"/>
<path d="M326 317.351C325.699 317.121 325.34 316.981 324.963 316.947C324.586 316.914 324.207 316.988 323.87 317.161C323.774 317.202 323.68 317.248 323.59 317.301C322.543 317.842 321.656 318.649 321.02 319.641C320.857 319.856 320.739 320.101 320.674 320.362C320.608 320.624 320.596 320.896 320.638 321.162C320.68 321.428 320.775 321.683 320.918 321.911C321.061 322.14 321.249 322.337 321.47 322.491C322.47 322.981 323.57 322.301 324.47 321.641C325.209 321.163 325.834 320.528 326.3 319.781C326.515 319.397 326.602 318.954 326.548 318.517C326.494 318.08 326.302 317.671 326 317.351Z" fill="white"/>
<path d="M340.001 322.791C339.563 322.655 339.097 322.643 338.653 322.758C338.21 322.873 337.807 323.109 337.491 323.441C337.399 323.529 337.312 323.623 337.231 323.721C336.248 324.763 335.558 326.046 335.231 327.441C334.921 328.721 335.611 330.341 336.921 330.501C338.231 330.661 339.221 329.421 339.921 328.321C340.564 327.473 341.012 326.493 341.231 325.451C341.337 324.934 341.274 324.397 341.053 323.919C340.832 323.44 340.463 323.045 340.001 322.791V322.791Z" fill="white"/>
<path d="M357.37 308.61C357.341 308.186 357.2 307.778 356.961 307.426C356.722 307.075 356.394 306.793 356.01 306.61C355.21 306.28 353.65 306.56 353.34 307.37C352.8 308.284 352.481 309.311 352.41 310.37C352.393 310.907 352.56 311.433 352.884 311.861C353.208 312.289 353.669 312.592 354.19 312.72C354.722 312.712 355.241 312.552 355.685 312.26C356.13 311.968 356.482 311.555 356.7 311.07C357.173 310.339 357.407 309.48 357.37 308.61V308.61Z" fill="white"/>
<path d="M320.34 310.181C320.06 310.025 319.761 309.907 319.45 309.831V309.831C318.435 309.526 317.36 309.475 316.32 309.681C315.887 309.687 315.47 309.846 315.143 310.13C314.816 310.413 314.599 310.803 314.531 311.231C314.463 311.659 314.548 312.097 314.771 312.468C314.994 312.839 315.34 313.12 315.75 313.261C316.365 313.51 317.017 313.655 317.68 313.691C318.42 313.836 319.181 313.836 319.92 313.691C320.317 313.636 320.685 313.451 320.966 313.165C321.247 312.879 321.424 312.507 321.471 312.109C321.518 311.711 321.432 311.308 321.225 310.965C321.019 310.621 320.704 310.356 320.33 310.211L320.34 310.181Z" fill="white"/>
<path d="M333.13 309.881C332.85 309.503 332.437 309.247 331.974 309.163C331.512 309.08 331.035 309.175 330.64 309.431L330.92 309.321C329.97 309.521 329.75 310.931 330.17 311.811C330.288 312.022 330.448 312.208 330.639 312.356C330.831 312.505 331.051 312.613 331.285 312.675C331.519 312.737 331.764 312.75 332.004 312.715C332.243 312.68 332.474 312.597 332.68 312.471C333.075 312.18 333.342 311.749 333.426 311.266C333.51 310.783 333.404 310.287 333.13 309.881V309.881Z" fill="white"/>
<path d="M355.41 320.371C355.132 319.994 354.72 319.738 354.259 319.655C353.798 319.571 353.323 319.666 352.93 319.921L353.21 319.811C352.26 320.021 352.03 321.421 352.46 322.301C352.577 322.512 352.736 322.698 352.926 322.846C353.117 322.995 353.336 323.103 353.569 323.165C353.803 323.226 354.046 323.24 354.285 323.205C354.524 323.17 354.754 323.087 354.96 322.961C355.357 322.672 355.625 322.24 355.709 321.757C355.793 321.274 355.686 320.777 355.41 320.371Z" fill="white"/>
<path d="M343.93 308.681C343.634 308.7 343.345 308.786 343.085 308.931C342.826 309.077 342.602 309.278 342.43 309.521C341.95 310.111 342.1 311.231 342.85 311.401C343.048 311.425 343.249 311.404 343.437 311.34C343.626 311.276 343.798 311.17 343.94 311.031C344.358 310.62 344.617 310.074 344.67 309.491C344.82 308.661 343.93 308.681 343.93 308.681Z" fill="white"/>
<path d="M383.191 282.001C383.111 282.001 383.091 281.661 382.901 281.181C382.675 280.566 382.257 280.041 381.711 279.681C381.111 279.386 380.448 279.241 379.781 279.261C379.251 279.261 378.911 279.261 378.891 279.211C378.871 279.161 379.191 278.981 379.751 278.891C380.505 278.759 381.281 278.879 381.961 279.231C382.292 279.433 382.577 279.702 382.799 280.021C383.021 280.339 383.175 280.7 383.251 281.081C383.371 281.691 383.251 282.051 383.191 282.001Z" fill="#263238"/>
<path d="M380 283.891C379.95 284.021 379.07 283.581 378.8 282.471C378.53 281.361 379.16 280.581 379.26 280.681C379.36 280.781 379.1 281.48 379.31 282.36C379.52 283.24 380.09 283.771 380 283.891Z" fill="#263238"/>
<path d="M396.76 277.901C396.59 277.901 396.63 277.251 396.5 276.611C396.37 275.971 395.92 275.681 395.94 275.551C395.96 275.421 396.15 275.451 396.4 275.601C396.557 275.702 396.693 275.834 396.797 275.988C396.902 276.143 396.975 276.317 397.01 276.501C397.16 277.341 396.87 277.911 396.76 277.901Z" fill="#263238"/>
<path d="M406.92 266.891C406.256 267.223 405.559 267.484 404.84 267.671C403.159 268.18 401.614 269.062 400.32 270.251C399.637 270.907 399.126 271.721 398.83 272.621C398.605 273.36 398.564 274.142 398.71 274.901C398.87 275.617 399.165 276.295 399.58 276.901C399.256 276.689 398.98 276.413 398.768 276.089C398.556 275.766 398.414 275.402 398.35 275.021C398.135 274.205 398.135 273.347 398.35 272.531C398.643 271.539 399.187 270.64 399.93 269.921C401.278 268.672 402.924 267.791 404.71 267.361C405.422 267.103 406.165 266.945 406.92 266.891V266.891Z" fill="#263238"/>
<path d="M366.341 267.671C367.109 267.52 367.896 267.499 368.671 267.611C369.517 267.669 370.354 267.83 371.161 268.091C372.166 268.417 373.1 268.933 373.911 269.611C374.757 270.276 375.392 271.172 375.741 272.191C376.03 273.037 375.995 273.96 375.641 274.781C375.405 275.331 375.003 275.792 374.491 276.101C374.131 276.311 373.901 276.321 373.891 276.301C374.524 275.91 375.018 275.329 375.301 274.641C375.577 273.899 375.577 273.083 375.301 272.341C374.961 271.419 374.368 270.611 373.591 270.011C372.165 268.887 370.447 268.193 368.641 268.011C367.868 267.944 367.1 267.83 366.341 267.671V267.671Z" fill="#263238"/>
<path d="M394.101 290.09C393.645 289.128 392.927 288.314 392.031 287.74C390.691 286.82 388.411 287.14 386.871 287.69L386.471 288.24C385.931 288.696 385.468 289.236 385.101 289.84C384.925 290.14 384.822 290.477 384.8 290.825C384.777 291.172 384.836 291.519 384.971 291.84C385.123 292.096 385.328 292.317 385.57 292.489C385.813 292.661 386.089 292.781 386.381 292.84C386.582 292.894 386.775 292.978 386.951 293.09C387.77 293.81 388.803 294.242 389.891 294.32C391.641 294.32 391.611 293.26 392.291 292.99C392.661 292.84 393.291 292.87 393.701 292.75C394.111 292.63 394.341 292.01 394.361 291.62C394.341 291.101 394.253 290.587 394.101 290.09V290.09Z" fill="white"/>
<path d="M394.101 292.14C394.101 292.14 393.781 292.5 393.041 292.7C392.601 292.816 392.142 292.843 391.691 292.78C391.397 292.745 391.113 292.651 390.856 292.505C390.598 292.359 390.372 292.164 390.191 291.93H390.591C390.511 292.01 390.431 292.1 390.341 292.18C389.923 292.541 389.422 292.794 388.883 292.916C388.344 293.038 387.784 293.026 387.251 292.88C386.441 292.65 386.101 292.22 386.141 292.18C386.181 292.14 386.591 292.4 387.331 292.52C387.802 292.597 388.285 292.572 388.745 292.446C389.206 292.32 389.634 292.096 390.001 291.79L390.201 291.59L390.431 291.37L390.611 291.61C390.912 291.918 391.286 292.146 391.699 292.272C392.111 292.398 392.549 292.418 392.971 292.33C393.661 292.26 394.061 292.07 394.101 292.14Z" fill="#263238"/>
<path d="M392.631 287.001C392.865 287.109 393.06 287.285 393.192 287.506C393.324 287.728 393.387 287.984 393.371 288.241C393.363 288.521 393.277 288.794 393.123 289.028C392.97 289.263 392.754 289.451 392.501 289.571C392.337 289.622 392.185 289.704 392.051 289.811C391.921 289.931 391.881 290.161 392.051 290.261C392.118 290.3 392.188 290.333 392.261 290.361C392.451 290.511 392.261 290.821 392.121 290.971C391.525 291.466 390.766 291.719 389.992 291.682C389.218 291.645 388.487 291.32 387.941 290.771C387.571 290.201 388.561 290.601 388.581 290.291C388.569 290.135 388.522 289.985 388.442 289.851C388.362 289.718 388.252 289.604 388.121 289.521C387.849 289.37 387.565 289.243 387.271 289.141C386.972 289.04 386.717 288.838 386.551 288.571C386.452 288.326 386.44 288.055 386.516 287.802C386.593 287.549 386.753 287.33 386.971 287.181C387.418 286.895 387.931 286.73 388.461 286.701C389.931 286.511 391.141 286.251 392.661 287.001" fill="#263238"/>
<path d="M308.65 348.88C308.909 348.16 309.356 347.522 309.946 347.033C310.535 346.544 311.244 346.222 312 346.1C313.507 345.851 315.044 345.851 316.55 346.1C327.07 347.22 337.27 346.87 347.55 349.51C347.55 349.51 343.77 350.01 341.49 350.25C335.81 350.86 329.91 351.36 324.49 351.81C318.88 352.28 313.01 351.86 308.69 348.81" fill="white"/>
<path d="M388.84 280.161C388.576 280.074 388.289 280.091 388.036 280.208C387.784 280.325 387.585 280.533 387.48 280.791C387.415 281.048 387.447 281.32 387.571 281.554C387.695 281.788 387.901 281.969 388.15 282.059C388.399 282.15 388.673 282.146 388.919 282.046C389.165 281.947 389.365 281.759 389.48 281.521C389.561 281.255 389.541 280.969 389.422 280.718C389.304 280.466 389.097 280.268 388.84 280.161V280.161Z" fill="white"/>
<path d="M391.141 275.821C391.045 275.682 390.905 275.579 390.744 275.528C390.583 275.477 390.409 275.482 390.251 275.541C389.921 275.621 389.631 275.811 389.301 275.891C388.788 275.966 388.264 275.883 387.801 275.651C387.339 275.414 386.843 275.252 386.331 275.171C385.821 275.121 385.111 275.251 385.031 275.901C384.711 277.541 386.551 278.521 387.941 278.631C388.639 278.674 389.332 278.485 389.911 278.092C390.491 277.7 390.923 277.126 391.141 276.461C391.221 276.255 391.221 276.027 391.141 275.821V275.821Z" fill="white"/>
<path d="M388.001 274.14C388.051 274.14 388.211 274.27 388.441 274.57L388.711 274.92L388.261 274.79C387.41 274.521 386.63 274.063 385.981 273.45C385.111 272.755 384.539 271.753 384.381 270.65C385.003 271.493 385.671 272.301 386.381 273.07C386.982 273.635 387.654 274.119 388.381 274.51L388.191 274.73C388.001 274.38 387.911 274.17 388.001 274.14Z" fill="#263238"/>
<path d="M388.871 274.491C388.811 274.611 388.181 274.431 387.591 273.911C387.001 273.391 386.741 272.801 386.861 272.721C386.981 272.641 387.401 273.061 387.941 273.521C388.481 273.981 388.931 274.361 388.871 274.491Z" fill="#263238"/>
<path d="M390.12 274.001C390.12 274.141 389.54 274.271 388.91 273.931C388.28 273.591 388.06 273.021 388.19 272.931C388.32 272.841 388.66 273.181 389.19 273.441C389.72 273.701 390.12 273.821 390.12 274.001Z" fill="#263238"/>
<g opacity="0.3">
<path d="M309.29 347.001C310.827 345.926 312.1 344.516 313.013 342.877C313.926 341.238 314.455 339.414 314.56 337.541C314.792 333.726 313.812 329.935 311.76 326.711C312.746 333.574 311.894 340.575 309.29 347.001" fill="black"/>
</g>
<g opacity="0.3">
<path d="M363.771 311.2C366.196 315.46 368.205 319.945 369.771 324.59C370.105 325.47 370.314 326.392 370.391 327.33C370.46 328.28 370.151 329.218 369.531 329.94C368.751 323.408 366.739 317.082 363.601 311.3" fill="black"/>
</g>
<g opacity="0.3">
<path d="M280.101 315.82C279.526 317.174 279.376 318.67 279.671 320.11C279.781 320.64 280.051 321.24 280.581 321.34C281.111 321.44 281.641 320.9 281.921 320.34C282.676 318.775 283.195 317.107 283.461 315.39C283.558 315.101 283.536 314.784 283.401 314.51C283.307 314.401 283.19 314.312 283.059 314.252C282.928 314.192 282.785 314.16 282.641 314.16C282.017 314.137 281.402 314.308 280.881 314.65C280.359 314.993 279.957 315.489 279.731 316.07" fill="black"/>
</g>
<path d="M301.851 308.641C300.997 308.724 300.138 308.754 299.281 308.731C297.226 308.787 295.179 309.011 293.161 309.401C291.141 309.79 289.158 310.345 287.231 311.061C286.442 311.398 285.634 311.689 284.811 311.931C285.513 311.427 286.28 311.02 287.091 310.721C289.017 309.89 291.029 309.273 293.091 308.881C295.139 308.486 297.225 308.311 299.311 308.361C300.166 308.341 301.02 308.435 301.851 308.641Z" fill="white"/>
<path d="M375.46 293.881C375.509 294.432 375.427 294.987 375.22 295.501C374.827 296.769 374.182 297.945 373.322 298.957C372.463 299.969 371.408 300.797 370.22 301.391C369.747 301.677 369.212 301.845 368.66 301.881C370.303 301.112 371.763 300 372.941 298.62C374.119 297.24 374.988 295.624 375.49 293.881H375.46Z" fill="white"/>
<path d="M691.81 399.26C691.81 399.4 540.45 399.52 353.81 399.52C167.17 399.52 15.7402 399.4 15.7402 399.26C15.7402 399.12 167 399 353.78 399C540.56 399 691.81 399.11 691.81 399.26Z" fill="#263238"/>
</g>
<defs>
<clipPath id="clip0_806_2">
<rect width="692" height="452" fill="white"/>
</clipPath>
</defs>
</svg>
